<svg xmlns="http://www.w3.org/2000/svg" width="1920" height="1080" viewBox="0 0 1920 1080">
<defs>
  <filter id="grain"><feTurbulence type="fractalNoise" baseFrequency="0.7" numOctaves="2" seed="19"/><feColorMatrix values="0 0 0 0 0.24 0 0 0 0 0.30 0 0 0 0 0.70 0 0 0 .10 0"/></filter>
  <radialGradient id="wash"><stop offset="0" stop-color="#3d4db3" stop-opacity=".22"/><stop offset="1" stop-color="#3d4db3" stop-opacity="0"/></radialGradient>
  
</defs>
<rect width="1920" height="1080" fill="#faf9f6"/>
<rect width="1920" height="1080" fill="url(#wash)" opacity=".58"/>
<rect width="1920" height="1080" filter="url(#grain)" opacity=".22"/>
<text x="120" y="112" font-family="IBM Plex Mono" font-size="36" font-weight="600" fill="#3d4db3" text-anchor="start" letter-spacing="4" opacity="1.0">EDGE CASE · MOTION PROOF</text><line x1="120" y1="142" x2="1800" y2="142" stroke="#3d4db3" stroke-width="2"/><text x="1800" y="112" font-family="IBM Plex Mono" font-size="36" font-weight="400" fill="#6b7c8e" text-anchor="end" letter-spacing="0" opacity="1.0">08 / 08</text><path d="M120 934v28h28 M1800 934v28h-28" fill="none" stroke="#3d4db3" stroke-width="3"/><text x="120" y="1012" font-family="IBM Plex Mono" font-size="28" font-weight="400" fill="#6b7c8e" text-anchor="start" letter-spacing="2" opacity="1.0">LUPINE SCIENCE · REVIEW CALIBRATION</text><text x="120" y="250" font-family="Newsreader" font-size="86" font-weight="400" fill="#1a1a1a" text-anchor="start" letter-spacing="0" opacity="1.0">The still passes. Does the motion?</text><text x="124" y="318" font-family="IBM Plex Mono" font-size="36" font-weight="400" fill="#6b7c8e" text-anchor="start" letter-spacing="0" opacity="1.0">A single frame cannot prove entrance, causal reveal, or transition continuity.</text><path d="M180 760 C420 720 540 510 760 580 S1080 800 1320 520 S1600 420 1770 360" fill="none" stroke="#6b7c8e" stroke-width="4" opacity=".35"/><path d="M180 760 C420 720 540 510 760 580 S1080 800 1320 520" fill="none" stroke="#3d4db3" stroke-width="12"/><circle cx="180" cy="760" r="18" fill="#faf9f6" stroke="#3d4db3" stroke-width="7"/><text x="180" y="714" font-family="IBM Plex Mono" font-size="36" font-weight="600" fill="#3d4db3" text-anchor="middle" letter-spacing="0" opacity="1.0">AXIS</text><circle cx="760" cy="580" r="18" fill="#faf9f6" stroke="#3d4db3" stroke-width="7"/><text x="760" y="534" font-family="IBM Plex Mono" font-size="36" font-weight="600" fill="#3d4db3" text-anchor="middle" letter-spacing="0" opacity="1.0">INFLECTION</text><circle cx="1320" cy="520" r="18" fill="#faf9f6" stroke="#3d4db3" stroke-width="7"/><text x="1320" y="474" font-family="IBM Plex Mono" font-size="36" font-weight="600" fill="#3d4db3" text-anchor="middle" letter-spacing="0" opacity="1.0">CURRENT</text><rect x="1240" y="690" width="500" height="132" rx="10" fill="#3d4db3"/><text x="1490" y="750" font-family="IBM Plex Mono" font-size="36" font-weight="600" fill="#faf9f6" text-anchor="middle" letter-spacing="2" opacity="1.0">REQUEST TIMELINE</text><text x="1490" y="796" font-family="IBM Plex Mono" font-size="30" font-weight="400" fill="#faf9f6" text-anchor="middle" letter-spacing="0" opacity="1.0">EVIDENCE BEFORE PASS</text>
</svg>