<svg xmlns="http://www.w3.org/2000/svg" width="1920" height="1080" viewBox="0 0 1920 1080">
<defs>
  <filter id="grain"><feTurbulence type="fractalNoise" baseFrequency="0.7" numOctaves="2" seed="19"/><feColorMatrix values="0 0 0 0 0.24 0 0 0 0 0.30 0 0 0 0 0.70 0 0 0 .10 0"/></filter>
  <radialGradient id="wash"><stop offset="0" stop-color="#3d4db3" stop-opacity=".22"/><stop offset="1" stop-color="#3d4db3" stop-opacity="0"/></radialGradient>
  <radialGradient id="wash"><stop offset="0" stop-color="#8a00ff" stop-opacity=".8"/><stop offset="1" stop-color="#050019"/></radialGradient>
</defs>
<rect width="1920" height="1080" fill="#050019"/>
<rect width="1920" height="1080" fill="url(#wash)" opacity=".58"/>
<rect width="1920" height="1080" filter="url(#grain)" opacity=".22"/>
<text x="960" y="180" font-family="Arial" font-size="72" font-weight="700" fill="#00ffff" text-anchor="middle" letter-spacing="0" opacity="1.0">THE FUTURE OF AI SCIENCE</text><text x="960" y="245" font-family="Arial" font-size="28" font-weight="400" fill="#ff00ff" text-anchor="middle" letter-spacing="6" opacity="1.0">UNLOCKING LIMITLESS INNOVATION</text><line x1="240" y1="520" x2="500" y2="360" stroke="#00ffff" stroke-width="3" opacity=".35"/><line x1="240" y1="520" x2="760" y2="610" stroke="#00ffff" stroke-width="3" opacity=".35"/><circle cx="240" cy="520" r="38" fill="#12002e" stroke="#ff00ff" stroke-width="7"/><line x1="500" y1="360" x2="760" y2="610" stroke="#00ffff" stroke-width="3" opacity=".35"/><line x1="500" y1="360" x2="980" y2="410" stroke="#00ffff" stroke-width="3" opacity=".35"/><circle cx="500" cy="360" r="38" fill="#12002e" stroke="#ff00ff" stroke-width="7"/><line x1="760" y1="610" x2="980" y2="410" stroke="#00ffff" stroke-width="3" opacity=".35"/><line x1="760" y1="610" x2="1240" y2="650" stroke="#00ffff" stroke-width="3" opacity=".35"/><circle cx="760" cy="610" r="38" fill="#12002e" stroke="#ff00ff" stroke-width="7"/><line x1="980" y1="410" x2="1240" y2="650" stroke="#00ffff" stroke-width="3" opacity=".35"/><line x1="980" y1="410" x2="1530" y2="400" stroke="#00ffff" stroke-width="3" opacity=".35"/><circle cx="980" cy="410" r="38" fill="#12002e" stroke="#ff00ff" stroke-width="7"/><line x1="1240" y1="650" x2="1530" y2="400" stroke="#00ffff" stroke-width="3" opacity=".35"/><line x1="1240" y1="650" x2="1730" y2="620" stroke="#00ffff" stroke-width="3" opacity=".35"/><circle cx="1240" cy="650" r="38" fill="#12002e" stroke="#ff00ff" stroke-width="7"/><line x1="1530" y1="400" x2="1730" y2="620" stroke="#00ffff" stroke-width="3" opacity=".35"/><circle cx="1530" cy="400" r="38" fill="#12002e" stroke="#ff00ff" stroke-width="7"/><circle cx="1730" cy="620" r="38" fill="#12002e" stroke="#ff00ff" stroke-width="7"/><text x="960" y="880" font-family="Arial" font-size="46" font-weight="400" fill="#ffffff" text-anchor="middle" letter-spacing="0" opacity="1.0">Generic network ≠ mechanism</text>
</svg>