<svg xmlns="http://www.w3.org/2000/svg" width="1920" height="1080" viewBox="0 0 1920 1080">
<defs>
  <filter id="grain"><feTurbulence type="fractalNoise" baseFrequency="0.7" numOctaves="2" seed="19"/><feColorMatrix values="0 0 0 0 0.24 0 0 0 0 0.30 0 0 0 0 0.70 0 0 0 .10 0"/></filter>
  <radialGradient id="wash"><stop offset="0" stop-color="#3d4db3" stop-opacity=".22"/><stop offset="1" stop-color="#3d4db3" stop-opacity="0"/></radialGradient>
  
</defs>
<rect width="1920" height="1080" fill="#faf9f6"/>
<rect width="1920" height="1080" fill="url(#wash)" opacity=".58"/>
<rect width="1920" height="1080" filter="url(#grain)" opacity=".22"/>
<text x="120" y="112" font-family="IBM Plex Mono" font-size="36" font-weight="600" fill="#3d4db3" text-anchor="start" letter-spacing="4" opacity="1.0">MECHANISM</text><line x1="120" y1="142" x2="1800" y2="142" stroke="#3d4db3" stroke-width="2"/><text x="1800" y="112" font-family="IBM Plex Mono" font-size="36" font-weight="400" fill="#6b7c8e" text-anchor="end" letter-spacing="0" opacity="1.0">03 / 08</text><path d="M120 934v28h28 M1800 934v28h-28" fill="none" stroke="#3d4db3" stroke-width="3"/><text x="120" y="1012" font-family="IBM Plex Mono" font-size="28" font-weight="400" fill="#6b7c8e" text-anchor="start" letter-spacing="2" opacity="1.0">LUPINE SCIENCE · REVIEW CALIBRATION</text><text x="120" y="252" font-family="Newsreader" font-size="80" font-weight="400" fill="#1a1a1a" text-anchor="start" letter-spacing="0" opacity="1.0">Scattered signals resolve into structure.</text><text x="124" y="314" font-family="IBM Plex Mono" font-size="36" font-weight="400" fill="#6b7c8e" text-anchor="start" letter-spacing="0" opacity="1.0">A mechanism frame must show cause, not science-themed decoration.</text><circle cx="170" cy="520" r="10" fill="#5a8a6e" opacity=".72"/><line x1="170" y1="520" x2="280" y2="450" stroke="#6b7c8e" stroke-width="2" opacity=".32"/><circle cx="280" cy="450" r="14" fill="#3d4db3" opacity=".72"/><line x1="280" y1="450" x2="360" y2="640" stroke="#6b7c8e" stroke-width="2" opacity=".32"/><circle cx="360" cy="640" r="18" fill="#3d4db3" opacity=".72"/><line x1="360" y1="640" x2="480" y2="520" stroke="#6b7c8e" stroke-width="2" opacity=".32"/><circle cx="480" cy="520" r="10" fill="#5a8a6e" opacity=".72"/><line x1="480" y1="520" x2="560" y2="760" stroke="#6b7c8e" stroke-width="2" opacity=".32"/><circle cx="560" cy="760" r="14" fill="#3d4db3" opacity=".72"/><line x1="560" y1="760" x2="680" y2="430" stroke="#6b7c8e" stroke-width="2" opacity=".32"/><circle cx="680" cy="430" r="18" fill="#3d4db3" opacity=".72"/><line x1="680" y1="430" x2="770" y2="620" stroke="#6b7c8e" stroke-width="2" opacity=".32"/><circle cx="770" cy="620" r="10" fill="#5a8a6e" opacity=".72"/><line x1="770" y1="620" x2="850" y2="500" stroke="#6b7c8e" stroke-width="2" opacity=".32"/><circle cx="850" cy="500" r="14" fill="#3d4db3" opacity=".72"/><line x1="850" y1="500" x2="950" y2="730" stroke="#6b7c8e" stroke-width="2" opacity=".32"/><circle cx="950" cy="730" r="18" fill="#3d4db3" opacity=".72"/><line x1="950" y1="730" x2="1040" y2="460" stroke="#6b7c8e" stroke-width="2" opacity=".32"/><circle cx="1040" cy="460" r="10" fill="#5a8a6e" opacity=".72"/><line x1="1040" y1="460" x2="1160" y2="620" stroke="#6b7c8e" stroke-width="2" opacity=".32"/><circle cx="1160" cy="620" r="14" fill="#3d4db3" opacity=".72"/><line x1="1160" y1="620" x2="1280" y2="490" stroke="#6b7c8e" stroke-width="2" opacity=".32"/><circle cx="1280" cy="490" r="18" fill="#3d4db3" opacity=".72"/><line x1="1280" y1="490" x2="1400" y2="700" stroke="#6b7c8e" stroke-width="2" opacity=".32"/><circle cx="1400" cy="700" r="10" fill="#5a8a6e" opacity=".72"/><line x1="1400" y1="700" x2="1540" y2="530" stroke="#6b7c8e" stroke-width="2" opacity=".32"/><circle cx="1540" cy="530" r="14" fill="#3d4db3" opacity=".72"/><line x1="1540" y1="530" x2="1690" y2="650" stroke="#6b7c8e" stroke-width="2" opacity=".32"/><circle cx="1690" cy="650" r="18" fill="#3d4db3" opacity=".72"/><path d="M150 780 C430 330 720 850 1000 510 S1510 360 1770 690" fill="none" stroke="#3d4db3" stroke-width="10"/><path d="M150 806 C430 356 720 876 1000 536 S1510 386 1770 716" fill="none" stroke="#3d4db3" stroke-width="2" opacity=".45"/><text x="1270" y="842" font-family="IBM Plex Mono" font-size="34" font-weight="600" fill="#3d4db3" text-anchor="start" letter-spacing="3" opacity="1.0">RESOLVED MANIFOLD</text>
</svg>