<svg xmlns="http://www.w3.org/2000/svg" width="1280" height="720" viewBox="0 0 1280 720">
  <rect width="1280" height="720" fill="#faf9f6"/>
  <rect x="0" y="0" width="1280" height="96" fill="#16171d"/>
  <rect x="0" y="624" width="1280" height="96" fill="#16171d"/>
  <path d="M96 360H1184" stroke="#d7d3c8" stroke-width="2"/>
  <path d="M200 205V515M1080 205V515" stroke="#d7d3c8" stroke-width="2" stroke-dasharray="6 12"/>

  <g transform="translate(180 230)">
    <rect x="0" y="0" width="250" height="250" rx="8" fill="#eef0f7" stroke="#3d4db3" stroke-width="5"/>
    <g fill="#3d4db3">
      <circle cx="42" cy="42" r="12"/><circle cx="125" cy="42" r="12"/><circle cx="208" cy="42" r="12"/>
      <circle cx="42" cy="125" r="12"/><circle cx="125" cy="125" r="12"/><circle cx="208" cy="125" r="12"/>
      <circle cx="42" cy="208" r="12"/><circle cx="125" cy="208" r="12"/><circle cx="208" cy="208" r="12"/>
    </g>
    <g stroke="#8790be" stroke-width="3">
      <path d="M42 42H208M42 125H208M42 208H208M42 42V208M125 42V208M208 42V208"/>
    </g>
    <path d="M38 280H212" stroke="#3d4db3" stroke-width="6" stroke-linecap="round"/>
    <circle cx="125" cy="280" r="13" fill="#3d4db3"/>
  </g>

  <g transform="translate(850 230)">
    <rect x="0" y="0" width="250" height="250" rx="8" fill="#edf1ea" stroke="#4c653d" stroke-width="5"/>
    <g fill="#4c653d">
      <circle cx="32" cy="32" r="8"/><circle cx="94" cy="32" r="8"/><circle cx="156" cy="32" r="8"/><circle cx="218" cy="32" r="8"/>
      <circle cx="32" cy="94" r="8"/><circle cx="94" cy="94" r="8"/><circle cx="156" cy="94" r="8"/><circle cx="218" cy="94" r="8"/>
      <circle cx="32" cy="156" r="8"/><circle cx="94" cy="156" r="8"/><circle cx="156" cy="156" r="8"/><circle cx="218" cy="156" r="8"/>
      <circle cx="32" cy="218" r="8"/><circle cx="94" cy="218" r="8"/><circle cx="156" cy="218" r="8"/><circle cx="218" cy="218" r="8"/>
    </g>
    <g stroke="#93a08c" stroke-width="2">
      <path d="M32 32H218M32 94H218M32 156H218M32 218H218M32 32V218M94 32V218M156 32V218M218 32V218"/>
    </g>
    <path d="M38 280H212" stroke="#4c653d" stroke-width="6" stroke-linecap="round"/>
    <circle cx="125" cy="280" r="13" fill="#4c653d"/>
  </g>

  <g transform="translate(505 185)">
    <circle cx="135" cy="150" r="110" fill="#16171d"/>
    <path d="M65 150A70 70 0 0 1 205 150" fill="none" stroke="#faf9f6" stroke-width="10" stroke-linecap="round"/>
    <path d="M135 150L190 112" stroke="#b28746" stroke-width="9" stroke-linecap="round"/>
    <circle cx="135" cy="150" r="13" fill="#b28746"/>
    <path d="M25 310C84 250 186 250 245 310" fill="none" stroke="#b28746" stroke-width="8" stroke-linecap="round"/>
    <path d="M242 310L216 293M242 310L220 334" stroke="#b28746" stroke-width="8" stroke-linecap="round"/>
    <path d="M135 260V360" stroke="#16171d" stroke-width="5" stroke-dasharray="10 12"/>
    <circle cx="135" cy="385" r="23" fill="#faf9f6" stroke="#16171d" stroke-width="5"/>
    <path d="M120 385L131 396L152 372" fill="none" stroke="#3d4db3" stroke-width="7" stroke-linecap="round" stroke-linejoin="round"/>
  </g>

  <path d="M430 355C470 355 480 335 505 335M775 335C800 335 810 355 850 355" fill="none" stroke="#16171d" stroke-width="5"/>
  <circle cx="460" cy="355" r="7" fill="#b28746"/><circle cx="820" cy="355" r="7" fill="#b28746"/>
</svg>
