<svg xmlns="http://www.w3.org/2000/svg" viewBox="0 0 24 24" fill="currentColor" aria-hidden="true" focusable="false">
  <path d="M12 10.8C10.913 8.686 7.954 4.747 5.202 2.805 2.566.944 1.561 1.266.902 1.565.139 1.908 0 3.08 0 3.768c0 .69.378 5.65.624 6.479.815 2.736 3.713 3.66 6.383 3.364-4.619.685-8.723 2.369-3.337 8.365C9.598 27.39 11.83 20.147 12 18.56c.17 1.587 2.402 8.83 8.33 3.816 5.386-5.996 1.282-7.68-3.337-8.365 2.67.297 5.568-.628 6.383-3.364.246-.828.624-5.79.624-6.478 0-.69-.139-1.861-.902-2.206-.659-.298-1.664-.62-4.3 1.24C16.046 4.748 13.087 8.687 12 10.8Z"/>
</svg>
