<svg xmlns="http://www.w3.org/2000/svg" viewBox="0 0 800 450" width="800" height="450" role="img" aria-labelledby="participation-ratio-title">
  <title id="participation-ratio-title">Participation ratio on the joint error manifold</title>
  <rect width="800" height="450" fill="#faf9f6"/>
  <text x="160" y="42" font-family="Newsreader, Georgia, serif" font-size="22" fill="#16171d" font-weight="500">Participation ratio on the joint error manifold</text>
  <text x="160" y="64" font-family="IBM Plex Mono, ui-monospace, monospace" font-size="11" fill="#6e707a" text-transform="uppercase" letter-spacing="0.06em">Classical potentials vs. foundation MLIPs · 15 elements</text>
  <g transform="translate(160,80)">
    <line x1="0" y1="270" x2="560" y2="270" stroke="#e2dfd4" stroke-width="1"/>
    <line x1="0.00" y1="0" x2="0.00" y2="270" stroke="#e2dfd4" stroke-width="1" stroke-dasharray="2,3"/>
    <text x="0.00" y="286.00" text-anchor="middle" font-family="IBM Plex Mono, ui-monospace, monospace" font-size="9" fill="#6e707a">0.97</text>
    <line x1="280.00" y1="0" x2="280.00" y2="270" stroke="#e2dfd4" stroke-width="1" stroke-dasharray="2,3"/>
    <text x="280.00" y="286.00" text-anchor="middle" font-family="IBM Plex Mono, ui-monospace, monospace" font-size="9" fill="#6e707a">1.55</text>
    <line x1="560.00" y1="0" x2="560.00" y2="270" stroke="#e2dfd4" stroke-width="1" stroke-dasharray="2,3"/>
    <text x="560.00" y="286.00" text-anchor="middle" font-family="IBM Plex Mono, ui-monospace, monospace" font-size="9" fill="#6e707a">2.13</text>
    <line x1="38.62" y1="22.50" x2="231.72" y2="22.50" stroke="#3d4db3" stroke-width="2" stroke-linecap="round"/>
    <circle cx="38.62" cy="22.50" r="4" fill="#3d4db3"/>
    <circle cx="231.72" cy="22.50" r="4" fill="#3d4db3"/>
    <rect x="38.62" y="14.63" width="193.10" height="15.75" fill="#3d4db3" opacity="0.14" rx="3"/>
    <text x="241.72" y="26.50" font-family="IBM Plex Mono, ui-monospace, monospace" font-size="10" fill="#4c4e58">1.05–1.45</text>
    <text x="-10" y="26.50" text-anchor="end" font-family="Newsreader, Georgia, serif" font-size="12" fill="#16171d">Classical (MEAM)</text>
    <line x1="53.10" y1="67.50" x2="265.52" y2="67.50" stroke="#3d4db3" stroke-width="2" stroke-linecap="round"/>
    <circle cx="53.10" cy="67.50" r="4" fill="#3d4db3"/>
    <circle cx="265.52" cy="67.50" r="4" fill="#3d4db3"/>
    <rect x="53.10" y="59.63" width="212.41" height="15.75" fill="#3d4db3" opacity="0.14" rx="3"/>
    <text x="275.52" y="71.50" font-family="IBM Plex Mono, ui-monospace, monospace" font-size="10" fill="#4c4e58">1.08–1.52</text>
    <text x="-10" y="71.50" text-anchor="end" font-family="Newsreader, Georgia, serif" font-size="12" fill="#16171d">Classical (EAM)</text>
    <line x1="86.90" y1="112.50" x2="391.03" y2="112.50" stroke="#3d4db3" stroke-width="2" stroke-linecap="round"/>
    <circle cx="86.90" cy="112.50" r="4" fill="#3d4db3"/>
    <circle cx="391.03" cy="112.50" r="4" fill="#3d4db3"/>
    <rect x="86.90" y="104.63" width="304.14" height="15.75" fill="#3d4db3" opacity="0.14" rx="3"/>
    <text x="401.03" y="116.50" font-family="IBM Plex Mono, ui-monospace, monospace" font-size="10" fill="#4c4e58">1.15–1.78</text>
    <text x="-10" y="116.50" text-anchor="end" font-family="Newsreader, Georgia, serif" font-size="12" fill="#16171d">Classical (ReaxFF)</text>
    <line x1="135.17" y1="157.50" x2="473.10" y2="157.50" stroke="#3d4db3" stroke-width="2" stroke-linecap="round"/>
    <circle cx="135.17" cy="157.50" r="4" fill="#3d4db3"/>
    <circle cx="473.10" cy="157.50" r="4" fill="#3d4db3"/>
    <rect x="135.17" y="149.63" width="337.93" height="15.75" fill="#3d4db3" opacity="0.14" rx="3"/>
    <text x="483.10" y="161.50" font-family="IBM Plex Mono, ui-monospace, monospace" font-size="10" fill="#4c4e58">1.25–1.95</text>
    <text x="-10" y="161.50" text-anchor="end" font-family="Newsreader, Georgia, serif" font-size="12" fill="#16171d">M3GNet</text>
    <line x1="120.69" y1="202.50" x2="439.31" y2="202.50" stroke="#3d4db3" stroke-width="2" stroke-linecap="round"/>
    <circle cx="120.69" cy="202.50" r="4" fill="#3d4db3"/>
    <circle cx="439.31" cy="202.50" r="4" fill="#3d4db3"/>
    <rect x="120.69" y="194.63" width="318.62" height="15.75" fill="#3d4db3" opacity="0.14" rx="3"/>
    <text x="449.31" y="206.50" font-family="IBM Plex Mono, ui-monospace, monospace" font-size="10" fill="#4c4e58">1.22–1.88</text>
    <text x="-10" y="206.50" text-anchor="end" font-family="Newsreader, Georgia, serif" font-size="12" fill="#16171d">CHGNet</text>
    <line x1="159.31" y1="247.50" x2="521.38" y2="247.50" stroke="#3d4db3" stroke-width="2" stroke-linecap="round"/>
    <circle cx="159.31" cy="247.50" r="4" fill="#3d4db3"/>
    <circle cx="521.38" cy="247.50" r="4" fill="#3d4db3"/>
    <rect x="159.31" y="239.63" width="362.07" height="15.75" fill="#3d4db3" opacity="0.14" rx="3"/>
    <text x="531.38" y="251.50" font-family="IBM Plex Mono, ui-monospace, monospace" font-size="10" fill="#4c4e58">1.30–2.05</text>
    <text x="-10" y="251.50" text-anchor="end" font-family="Newsreader, Georgia, serif" font-size="12" fill="#16171d">EquiMP</text>
    <text x="280" y="314.00" text-anchor="middle" font-family="IBM Plex Mono, ui-monospace, monospace" font-size="10" fill="#6e707a" text-transform="uppercase" letter-spacing="0.06em">Participation ratio</text>
  </g>
  <text x="160" y="422" font-family="IBM Plex Mono, ui-monospace, monospace" font-size="9" fill="#6e707a">Source: Lupine Science MLIP Failure Geometry Audit</text>
  <text x="160" y="436" font-family="Newsreader, Georgia, serif" font-size="10" fill="#4c4e58" font-style="italic">A ratio near 1 means errors concentrate on a single low-dimensional direction; higher values mean the error is more distributed.</text>
</svg>