<svg xmlns="http://www.w3.org/2000/svg" viewBox="0 0 1920 1080" width="1920" height="1080" role="img" aria-labelledby="dark-ribbon-title">
  <title id="dark-ribbon-title">Hyper-ribbon manifold on dark ground</title>
  <rect width="1920" height="1080" fill="#0b0c10"/>
  <line x1="93.3" y1="284.6" x2="129.7" y2="281.6" stroke="#6b7ff7" stroke-width="1" opacity="0.16"/>
  <line x1="753.1" y1="524.4" x2="833.7" y2="533.7" stroke="#6b7ff7" stroke-width="1" opacity="0.10"/>
  <line x1="873.2" y1="1077.2" x2="940.9" y2="1080.0" stroke="#6b7ff7" stroke-width="1" opacity="0.12"/>
  <line x1="957.1" y1="946.3" x2="983.1" y2="951.1" stroke="#6b7ff7" stroke-width="1" opacity="0.16"/>
  <line x1="1864.3" y1="655.3" x2="1902.1" y2="651.1" stroke="#6b7ff7" stroke-width="1" opacity="0.17"/>
  <line x1="542.9" y1="207.2" x2="609.8" y2="195.7" stroke="#6b7ff7" stroke-width="1" opacity="0.13"/>
  <line x1="483.2" y1="1005.6" x2="523.6" y2="1005.1" stroke="#6b7ff7" stroke-width="1" opacity="0.13"/>
  <line x1="411.1" y1="933.7" x2="493.8" y2="936.6" stroke="#6b7ff7" stroke-width="1" opacity="0.19"/>
  <line x1="1541.5" y1="954.8" x2="1625.4" y2="955.7" stroke="#6b7ff7" stroke-width="1" opacity="0.14"/>
  <line x1="751.5" y1="552.3" x2="822.8" y2="557.8" stroke="#6b7ff7" stroke-width="1" opacity="0.10"/>
  <line x1="393.5" y1="369.6" x2="470.4" y2="361.5" stroke="#6b7ff7" stroke-width="1" opacity="0.16"/>
  <line x1="189.1" y1="169.9" x2="212.4" y2="167.8" stroke="#6b7ff7" stroke-width="1" opacity="0.14"/>
  <line x1="2.0" y1="756.6" x2="62.1" y2="764.6" stroke="#6b7ff7" stroke-width="1" opacity="0.19"/>
  <line x1="51.4" y1="133.0" x2="86.7" y2="127.0" stroke="#6b7ff7" stroke-width="1" opacity="0.10"/>
  <line x1="485.5" y1="102.4" x2="527.6" y2="98.3" stroke="#6b7ff7" stroke-width="1" opacity="0.16"/>
  <line x1="314.7" y1="628.3" x2="334.3" y2="624.7" stroke="#6b7ff7" stroke-width="1" opacity="0.17"/>
  <line x1="1464.8" y1="313.9" x2="1499.3" y2="310.4" stroke="#6b7ff7" stroke-width="1" opacity="0.13"/>
  <line x1="670.8" y1="842.5" x2="750.4" y2="843.7" stroke="#6b7ff7" stroke-width="1" opacity="0.19"/>
  <line x1="1849.6" y1="257.5" x2="1869.1" y2="255.4" stroke="#6b7ff7" stroke-width="1" opacity="0.18"/>
  <line x1="953.9" y1="1002.3" x2="1025.1" y2="1009.2" stroke="#6b7ff7" stroke-width="1" opacity="0.15"/>
  <line x1="905.0" y1="320.1" x2="970.0" y2="316.2" stroke="#6b7ff7" stroke-width="1" opacity="0.13"/>
  <line x1="926.8" y1="814.3" x2="991.7" y2="814.2" stroke="#6b7ff7" stroke-width="1" opacity="0.10"/>
  <line x1="598.4" y1="128.2" x2="618.6" y2="130.8" stroke="#6b7ff7" stroke-width="1" opacity="0.17"/>
  <line x1="1348.1" y1="785.1" x2="1427.3" y2="788.4" stroke="#6b7ff7" stroke-width="1" opacity="0.12"/>
  <line x1="1546.2" y1="228.5" x2="1564.9" y2="225.3" stroke="#6b7ff7" stroke-width="1" opacity="0.19"/>
  <line x1="558.5" y1="1021.6" x2="581.7" y2="1021.8" stroke="#6b7ff7" stroke-width="1" opacity="0.20"/>
  <line x1="240.1" y1="167.7" x2="296.5" y2="168.4" stroke="#6b7ff7" stroke-width="1" opacity="0.15"/>
  <line x1="27.8" y1="750.2" x2="61.1" y2="754.5" stroke="#6b7ff7" stroke-width="1" opacity="0.08"/>
  <line x1="994.2" y1="532.5" x2="1072.3" y2="542.2" stroke="#6b7ff7" stroke-width="1" opacity="0.12"/>
  <line x1="1580.9" y1="717.8" x2="1647.2" y2="709.5" stroke="#6b7ff7" stroke-width="1" opacity="0.12"/>
  <line x1="371.6" y1="309.5" x2="412.1" y2="303.6" stroke="#6b7ff7" stroke-width="1" opacity="0.16"/>
  <line x1="145.5" y1="910.9" x2="209.4" y2="920.7" stroke="#6b7ff7" stroke-width="1" opacity="0.18"/>
  <line x1="1690.7" y1="365.3" x2="1752.3" y2="365.7" stroke="#6b7ff7" stroke-width="1" opacity="0.17"/>
  <line x1="817.6" y1="76.2" x2="868.7" y2="81.1" stroke="#6b7ff7" stroke-width="1" opacity="0.19"/>
  <line x1="92.2" y1="86.8" x2="149.1" y2="93.4" stroke="#6b7ff7" stroke-width="1" opacity="0.17"/>
  <line x1="729.3" y1="280.4" x2="760.0" y2="283.1" stroke="#6b7ff7" stroke-width="1" opacity="0.17"/>
  <line x1="1525.9" y1="140.4" x2="1584.9" y2="130.3" stroke="#6b7ff7" stroke-width="1" opacity="0.19"/>
  <line x1="994.6" y1="310.2" x2="1051.4" y2="313.1" stroke="#6b7ff7" stroke-width="1" opacity="0.20"/>
  <line x1="776.9" y1="553.0" x2="828.6" y2="561.1" stroke="#6b7ff7" stroke-width="1" opacity="0.14"/>
  <line x1="736.4" y1="592.2" x2="757.7" y2="595.3" stroke="#6b7ff7" stroke-width="1" opacity="0.16"/>
  <line x1="1092.5" y1="591.1" x2="1160.3" y2="590.5" stroke="#6b7ff7" stroke-width="1" opacity="0.17"/>
  <line x1="73.3" y1="193.1" x2="144.3" y2="184.2" stroke="#6b7ff7" stroke-width="1" opacity="0.09"/>
  <line x1="529.1" y1="441.4" x2="595.9" y2="441.7" stroke="#6b7ff7" stroke-width="1" opacity="0.11"/>
  <line x1="546.0" y1="1019.5" x2="572.9" y2="1018.3" stroke="#6b7ff7" stroke-width="1" opacity="0.20"/>
  <line x1="698.6" y1="370.6" x2="721.9" y2="370.3" stroke="#6b7ff7" stroke-width="1" opacity="0.15"/>
  <line x1="1064.1" y1="858.1" x2="1120.5" y2="866.6" stroke="#6b7ff7" stroke-width="1" opacity="0.18"/>
  <line x1="1435.0" y1="605.4" x2="1516.5" y2="603.6" stroke="#6b7ff7" stroke-width="1" opacity="0.19"/>
  <line x1="892.8" y1="95.7" x2="930.8" y2="102.0" stroke="#6b7ff7" stroke-width="1" opacity="0.10"/>
  <line x1="581.2" y1="852.4" x2="665.2" y2="844.1" stroke="#6b7ff7" stroke-width="1" opacity="0.12"/>
  <line x1="79.5" y1="518.8" x2="105.9" y2="521.0" stroke="#6b7ff7" stroke-width="1" opacity="0.14"/>
  <line x1="815.9" y1="538.3" x2="886.5" y2="544.1" stroke="#6b7ff7" stroke-width="1" opacity="0.17"/>
  <line x1="1160.6" y1="514.1" x2="1239.0" y2="513.5" stroke="#6b7ff7" stroke-width="1" opacity="0.08"/>
  <line x1="479.7" y1="849.7" x2="558.6" y2="846.7" stroke="#6b7ff7" stroke-width="1" opacity="0.19"/>
  <line x1="627.8" y1="708.3" x2="671.9" y2="714.3" stroke="#6b7ff7" stroke-width="1" opacity="0.14"/>
  <line x1="1042.2" y1="1013.4" x2="1079.5" y2="1017.1" stroke="#6b7ff7" stroke-width="1" opacity="0.19"/>
  <line x1="875.3" y1="608.1" x2="909.7" y2="607.4" stroke="#6b7ff7" stroke-width="1" opacity="0.11"/>
  <line x1="488.7" y1="695.9" x2="533.3" y2="695.4" stroke="#6b7ff7" stroke-width="1" opacity="0.14"/>
  <line x1="386.0" y1="280.1" x2="430.7" y2="276.2" stroke="#6b7ff7" stroke-width="1" opacity="0.09"/>
  <line x1="1426.6" y1="964.0" x2="1459.0" y2="969.9" stroke="#6b7ff7" stroke-width="1" opacity="0.15"/>
  <line x1="558.5" y1="591.0" x2="626.3" y2="592.6" stroke="#6b7ff7" stroke-width="1" opacity="0.18"/>
  <line x1="1272.1" y1="564.3" x2="1304.6" y2="569.1" stroke="#6b7ff7" stroke-width="1" opacity="0.15"/>
  <line x1="373.4" y1="927.4" x2="396.7" y2="924.4" stroke="#6b7ff7" stroke-width="1" opacity="0.19"/>
  <line x1="997.1" y1="483.5" x2="1050.0" y2="479.8" stroke="#6b7ff7" stroke-width="1" opacity="0.15"/>
  <line x1="20.4" y1="876.1" x2="96.7" y2="886.5" stroke="#6b7ff7" stroke-width="1" opacity="0.14"/>
  <line x1="1715.7" y1="588.3" x2="1781.0" y2="598.2" stroke="#6b7ff7" stroke-width="1" opacity="0.13"/>
  <line x1="44.6" y1="463.6" x2="122.0" y2="468.8" stroke="#6b7ff7" stroke-width="1" opacity="0.18"/>
  <line x1="630.8" y1="225.3" x2="684.6" y2="220.8" stroke="#6b7ff7" stroke-width="1" opacity="0.20"/>
  <line x1="1773.6" y1="36.7" x2="1820.5" y2="36.3" stroke="#6b7ff7" stroke-width="1" opacity="0.09"/>
  <line x1="1701.1" y1="621.2" x2="1773.0" y2="630.9" stroke="#6b7ff7" stroke-width="1" opacity="0.16"/>
  <line x1="1343.6" y1="862.0" x2="1368.2" y2="858.4" stroke="#6b7ff7" stroke-width="1" opacity="0.09"/>
  <line x1="707.1" y1="442.6" x2="727.8" y2="445.1" stroke="#6b7ff7" stroke-width="1" opacity="0.09"/>
  <line x1="366.4" y1="1046.3" x2="418.8" y2="1054.3" stroke="#6b7ff7" stroke-width="1" opacity="0.10"/>
  <line x1="398.5" y1="716.3" x2="473.2" y2="715.5" stroke="#6b7ff7" stroke-width="1" opacity="0.18"/>
  <line x1="596.1" y1="816.0" x2="665.8" y2="807.3" stroke="#6b7ff7" stroke-width="1" opacity="0.14"/>
  <line x1="40.6" y1="748.8" x2="63.1" y2="752.1" stroke="#6b7ff7" stroke-width="1" opacity="0.13"/>
  <line x1="1795.7" y1="958.0" x2="1859.2" y2="957.8" stroke="#6b7ff7" stroke-width="1" opacity="0.12"/>
  <line x1="1600.6" y1="166.9" x2="1672.5" y2="165.3" stroke="#6b7ff7" stroke-width="1" opacity="0.12"/>
  <line x1="883.6" y1="898.9" x2="931.2" y2="906.1" stroke="#6b7ff7" stroke-width="1" opacity="0.13"/>
  <line x1="1855.0" y1="597.2" x2="1921.8" y2="591.2" stroke="#6b7ff7" stroke-width="1" opacity="0.17"/>
  <line x1="40.8" y1="745.3" x2="123.9" y2="753.9" stroke="#6b7ff7" stroke-width="1" opacity="0.17"/>
  <line x1="1135.6" y1="506.5" x2="1205.3" y2="495.0" stroke="#6b7ff7" stroke-width="1" opacity="0.13"/>
  <line x1="736.7" y1="804.0" x2="764.4" y2="806.6" stroke="#6b7ff7" stroke-width="1" opacity="0.09"/>
  <line x1="1836.4" y1="481.2" x2="1894.3" y2="478.1" stroke="#6b7ff7" stroke-width="1" opacity="0.18"/>
  <line x1="956.5" y1="741.5" x2="995.3" y2="739.7" stroke="#6b7ff7" stroke-width="1" opacity="0.13"/>
  <line x1="520.5" y1="588.2" x2="603.4" y2="579.9" stroke="#6b7ff7" stroke-width="1" opacity="0.14"/>
  <line x1="1387.7" y1="544.6" x2="1443.2" y2="537.2" stroke="#6b7ff7" stroke-width="1" opacity="0.15"/>
  <line x1="506.2" y1="614.1" x2="575.8" y2="625.2" stroke="#6b7ff7" stroke-width="1" opacity="0.14"/>
  <line x1="1366.5" y1="40.0" x2="1406.8" y2="41.4" stroke="#6b7ff7" stroke-width="1" opacity="0.20"/>
  <line x1="774.5" y1="1025.5" x2="802.6" y2="1023.0" stroke="#6b7ff7" stroke-width="1" opacity="0.10"/>
  <line x1="1864.9" y1="214.2" x2="1922.7" y2="222.1" stroke="#6b7ff7" stroke-width="1" opacity="0.17"/>
  <line x1="1514.8" y1="329.2" x2="1545.3" y2="324.4" stroke="#6b7ff7" stroke-width="1" opacity="0.16"/>
  <line x1="156.8" y1="933.9" x2="195.9" y2="937.4" stroke="#6b7ff7" stroke-width="1" opacity="0.15"/>
  <line x1="1352.4" y1="711.7" x2="1420.0" y2="706.7" stroke="#6b7ff7" stroke-width="1" opacity="0.10"/>
  <line x1="1125.3" y1="465.9" x2="1199.0" y2="469.7" stroke="#6b7ff7" stroke-width="1" opacity="0.15"/>
  <line x1="1614.7" y1="359.8" x2="1643.7" y2="362.7" stroke="#6b7ff7" stroke-width="1" opacity="0.08"/>
  <line x1="1048.8" y1="36.8" x2="1079.7" y2="33.5" stroke="#6b7ff7" stroke-width="1" opacity="0.08"/>
  <line x1="358.0" y1="540.2" x2="385.5" y2="539.9" stroke="#6b7ff7" stroke-width="1" opacity="0.19"/>
  <line x1="1468.2" y1="473.2" x2="1542.1" y2="470.6" stroke="#6b7ff7" stroke-width="1" opacity="0.14"/>
  <line x1="1114.1" y1="439.4" x2="1142.1" y2="441.4" stroke="#6b7ff7" stroke-width="1" opacity="0.11"/>
  <line x1="1292.9" y1="641.9" x2="1331.1" y2="642.9" stroke="#6b7ff7" stroke-width="1" opacity="0.16"/>
  <path d="M 0.0 581.4 L 4.0 583.5 L 8.0 585.6 L 12.0 587.6 L 16.0 589.7 L 20.0 591.7 L 24.0 593.8 L 28.0 595.8 L 32.0 597.8 L 36.0 599.8 L 40.0 601.8 L 44.0 603.8 L 48.0 605.7 L 52.0 607.6 L 56.0 609.6 L 60.0 611.5 L 64.0 613.3 L 68.0 615.2 L 72.0 617.0 L 76.0 618.9 L 80.0 620.7 L 84.0 622.5 L 88.0 624.2 L 92.0 626.0 L 96.0 627.7 L 100.0 629.4 L 104.0 631.1 L 108.0 632.7 L 112.0 634.4 L 116.0 636.0 L 120.0 637.6 L 124.0 639.1 L 128.0 640.7 L 132.0 642.2 L 136.0 643.7 L 140.0 645.2 L 144.0 646.6 L 148.0 648.0 L 152.0 649.4 L 156.0 650.8 L 160.0 652.1 L 164.0 653.4 L 168.0 654.7 L 172.0 655.9 L 176.0 657.1 L 180.0 658.3 L 184.0 659.5 L 188.0 660.6 L 192.0 661.7 L 196.0 662.8 L 200.0 663.8 L 204.0 664.8 L 208.0 665.8 L 212.0 666.8 L 216.0 667.7 L 220.0 668.6 L 224.0 669.4 L 228.0 670.2 L 232.0 671.0 L 236.0 671.8 L 240.0 672.5 L 244.0 673.2 L 248.0 673.9 L 252.0 674.5 L 256.0 675.1 L 260.0 675.7 L 264.0 676.2 L 268.0 676.7 L 272.0 677.1 L 276.0 677.6 L 280.0 678.0 L 284.0 678.3 L 288.0 678.6 L 292.0 678.9 L 296.0 679.2 L 300.0 679.4 L 304.0 679.6 L 308.0 679.7 L 312.0 679.9 L 316.0 679.9 L 320.0 680.0 L 324.0 680.0 L 328.0 680.0 L 332.0 679.9 L 336.0 679.8 L 340.0 679.7 L 344.0 679.6 L 348.0 679.4 L 352.0 679.1 L 356.0 678.9 L 360.0 678.6 L 364.0 678.2 L 368.0 677.9 L 372.0 677.5 L 376.0 677.0 L 380.0 676.6 L 384.0 676.1 L 388.0 675.5 L 392.0 675.0 L 396.0 674.4 L 400.0 673.7 L 404.0 673.1 L 408.0 672.4 L 412.0 671.6 L 416.0 670.9 L 420.0 670.1 L 424.0 669.3 L 428.0 668.4 L 432.0 667.5 L 436.0 666.6 L 440.0 665.6 L 444.0 664.6 L 448.0 663.6 L 452.0 662.6 L 456.0 661.5 L 460.0 660.4 L 464.0 659.3 L 468.0 658.1 L 472.0 656.9 L 476.0 655.7 L 480.0 654.4 L 484.0 653.1 L 488.0 651.8 L 492.0 650.5 L 496.0 649.1 L 500.0 647.7 L 504.0 646.3 L 508.0 644.9 L 512.0 643.4 L 516.0 641.9 L 520.0 640.4 L 524.0 638.8 L 528.0 637.3 L 532.0 635.7 L 536.0 634.1 L 540.0 632.4 L 544.0 630.8 L 548.0 629.1 L 552.0 627.4 L 556.0 625.6 L 560.0 623.9 L 564.0 622.1 L 568.0 620.3 L 572.0 618.5 L 576.0 616.7 L 580.0 614.8 L 584.0 613.0 L 588.0 611.1 L 592.0 609.2 L 596.0 607.3 L 600.0 605.3 L 604.0 603.4 L 608.0 601.4 L 612.0 599.4 L 616.0 597.4 L 620.0 595.4 L 624.0 593.4 L 628.0 591.3 L 632.0 589.3 L 636.0 587.2 L 640.0 585.1 L 644.0 583.1 L 648.0 581.0 L 652.0 578.9 L 656.0 576.7 L 660.0 574.6 L 664.0 572.5 L 668.0 570.3 L 672.0 568.2 L 676.0 566.0 L 680.0 563.9 L 684.0 561.7 L 688.0 559.5 L 692.0 557.3 L 696.0 555.1 L 700.0 553.0 L 704.0 550.8 L 708.0 548.6 L 712.0 546.4 L 716.0 544.2 L 720.0 542.0 L 724.0 539.8 L 728.0 537.6 L 732.0 535.4 L 736.0 533.2 L 740.0 531.0 L 744.0 528.8 L 748.0 526.6 L 752.0 524.4 L 756.0 522.2 L 760.0 520.1 L 764.0 517.9 L 768.0 515.7 L 772.0 513.6 L 776.0 511.4 L 780.0 509.2 L 784.0 507.1 L 788.0 505.0 L 792.0 502.8 L 796.0 500.7 L 800.0 498.6 L 804.0 496.5 L 808.0 494.4 L 812.0 492.4 L 816.0 490.3 L 820.0 488.3 L 824.0 486.2 L 828.0 484.2 L 832.0 482.2 L 836.0 480.2 L 840.0 478.2 L 844.0 476.2 L 848.0 474.3 L 852.0 472.4 L 856.0 470.4 L 860.0 468.5 L 864.0 466.7 L 868.0 464.8 L 872.0 463.0 L 876.0 461.1 L 880.0 459.3 L 884.0 457.5 L 888.0 455.8 L 892.0 454.0 L 896.0 452.3 L 900.0 450.6 L 904.0 448.9 L 908.0 447.3 L 912.0 445.6 L 916.0 444.0 L 920.0 442.4 L 924.0 440.9 L 928.0 439.3 L 932.0 437.8 L 936.0 436.3 L 940.0 434.8 L 944.0 433.4 L 948.0 432.0 L 952.0 430.6 L 956.0 429.2 L 960.0 427.9 L 964.0 426.6 L 968.0 425.3 L 972.0 424.1 L 976.0 422.9 L 980.0 421.7 L 984.0 420.5 L 988.0 419.4 L 992.0 418.3 L 996.0 417.2 L 1000.0 416.2 L 1004.0 415.2 L 1008.0 414.2 L 1012.0 413.2 L 1016.0 412.3 L 1020.0 411.4 L 1024.0 410.6 L 1028.0 409.8 L 1032.0 409.0 L 1036.0 408.2 L 1040.0 407.5 L 1044.0 406.8 L 1048.0 406.1 L 1052.0 405.5 L 1056.0 404.9 L 1060.0 404.3 L 1064.0 403.8 L 1068.0 403.3 L 1072.0 402.9 L 1076.0 402.4 L 1080.0 402.0 L 1084.0 401.7 L 1088.0 401.4 L 1092.0 401.1 L 1096.0 400.8 L 1100.0 400.6 L 1104.0 400.4 L 1108.0 400.3 L 1112.0 400.1 L 1116.0 400.1 L 1120.0 400.0 L 1124.0 400.0 L 1128.0 400.0 L 1132.0 400.1 L 1136.0 400.2 L 1140.0 400.3 L 1144.0 400.4 L 1148.0 400.6 L 1152.0 400.9 L 1156.0 401.1 L 1160.0 401.4 L 1164.0 401.8 L 1168.0 402.1 L 1172.0 402.5 L 1176.0 403.0 L 1180.0 403.4 L 1184.0 403.9 L 1188.0 404.5 L 1192.0 405.0 L 1196.0 405.6 L 1200.0 406.3 L 1204.0 406.9 L 1208.0 407.6 L 1212.0 408.4 L 1216.0 409.1 L 1220.0 409.9 L 1224.0 410.7 L 1228.0 411.6 L 1232.0 412.5 L 1236.0 413.4 L 1240.0 414.4 L 1244.0 415.4 L 1248.0 416.4 L 1252.0 417.4 L 1256.0 418.5 L 1260.0 419.6 L 1264.0 420.7 L 1268.0 421.9 L 1272.0 423.1 L 1276.0 424.3 L 1280.0 425.6 L 1284.0 426.9 L 1288.0 428.2 L 1292.0 429.5 L 1296.0 430.9 L 1300.0 432.3 L 1304.0 433.7 L 1308.0 435.1 L 1312.0 436.6 L 1316.0 438.1 L 1320.0 439.6 L 1324.0 441.2 L 1328.0 442.7 L 1332.0 444.3 L 1336.0 445.9 L 1340.0 447.6 L 1344.0 449.2 L 1348.0 450.9 L 1352.0 452.6 L 1356.0 454.4 L 1360.0 456.1 L 1364.0 457.9 L 1368.0 459.7 L 1372.0 461.5 L 1376.0 463.3 L 1380.0 465.2 L 1384.0 467.0 L 1388.0 468.9 L 1392.0 470.8 L 1396.0 472.7 L 1400.0 474.7 L 1404.0 476.6 L 1408.0 478.6 L 1412.0 480.6 L 1416.0 482.6 L 1420.0 484.6 L 1424.0 486.6 L 1428.0 488.7 L 1432.0 490.7 L 1436.0 492.8 L 1440.0 494.9 L 1444.0 496.9 L 1448.0 499.0 L 1452.0 501.1 L 1456.0 503.3 L 1460.0 505.4 L 1464.0 507.5 L 1468.0 509.7 L 1472.0 511.8 L 1476.0 514.0 L 1480.0 516.1 L 1484.0 518.3 L 1488.0 520.5 L 1492.0 522.7 L 1496.0 524.9 L 1500.0 527.0 L 1504.0 529.2 L 1508.0 531.4 L 1512.0 533.6 L 1516.0 535.8 L 1520.0 538.0 L 1524.0 540.2 L 1528.0 542.4 L 1532.0 544.6 L 1536.0 546.8 L 1540.0 549.0 L 1544.0 551.2 L 1548.0 553.4 L 1552.0 555.6 L 1556.0 557.8 L 1560.0 559.9 L 1564.0 562.1 L 1568.0 564.3 L 1572.0 566.4 L 1576.0 568.6 L 1580.0 570.8 L 1584.0 572.9 L 1588.0 575.0 L 1592.0 577.2 L 1596.0 579.3 L 1600.0 581.4 L 1604.0 583.5 L 1608.0 585.6 L 1612.0 587.6 L 1616.0 589.7 L 1620.0 591.7 L 1624.0 593.8 L 1628.0 595.8 L 1632.0 597.8 L 1636.0 599.8 L 1640.0 601.8 L 1644.0 603.8 L 1648.0 605.7 L 1652.0 607.6 L 1656.0 609.6 L 1660.0 611.5 L 1664.0 613.3 L 1668.0 615.2 L 1672.0 617.0 L 1676.0 618.9 L 1680.0 620.7 L 1684.0 622.5 L 1688.0 624.2 L 1692.0 626.0 L 1696.0 627.7 L 1700.0 629.4 L 1704.0 631.1 L 1708.0 632.7 L 1712.0 634.4 L 1716.0 636.0 L 1720.0 637.6 L 1724.0 639.1 L 1728.0 640.7 L 1732.0 642.2 L 1736.0 643.7 L 1740.0 645.2 L 1744.0 646.6 L 1748.0 648.0 L 1752.0 649.4 L 1756.0 650.8 L 1760.0 652.1 L 1764.0 653.4 L 1768.0 654.7 L 1772.0 655.9 L 1776.0 657.1 L 1780.0 658.3 L 1784.0 659.5 L 1788.0 660.6 L 1792.0 661.7 L 1796.0 662.8 L 1800.0 663.8 L 1804.0 664.8 L 1808.0 665.8 L 1812.0 666.8 L 1816.0 667.7 L 1820.0 668.6 L 1824.0 669.4 L 1828.0 670.2 L 1832.0 671.0 L 1836.0 671.8 L 1840.0 672.5 L 1844.0 673.2 L 1848.0 673.9 L 1852.0 674.5 L 1856.0 675.1 L 1860.0 675.7 L 1864.0 676.2 L 1868.0 676.7 L 1872.0 677.1 L 1876.0 677.6 L 1880.0 678.0 L 1884.0 678.3 L 1888.0 678.6 L 1892.0 678.9 L 1896.0 679.2 L 1900.0 679.4 L 1904.0 679.6 L 1908.0 679.7 L 1912.0 679.9 L 1916.0 679.9 L 1920.0 680.0" fill="none" stroke="#6b7ff7" stroke-width="5" stroke-linecap="round" opacity="0.95"/>
  <path d="M 0.0 581.4 L 4.0 583.5 L 8.0 585.6 L 12.0 587.6 L 16.0 589.7 L 20.0 591.7 L 24.0 593.8 L 28.0 595.8 L 32.0 597.8 L 36.0 599.8 L 40.0 601.8 L 44.0 603.8 L 48.0 605.7 L 52.0 607.6 L 56.0 609.6 L 60.0 611.5 L 64.0 613.3 L 68.0 615.2 L 72.0 617.0 L 76.0 618.9 L 80.0 620.7 L 84.0 622.5 L 88.0 624.2 L 92.0 626.0 L 96.0 627.7 L 100.0 629.4 L 104.0 631.1 L 108.0 632.7 L 112.0 634.4 L 116.0 636.0 L 120.0 637.6 L 124.0 639.1 L 128.0 640.7 L 132.0 642.2 L 136.0 643.7 L 140.0 645.2 L 144.0 646.6 L 148.0 648.0 L 152.0 649.4 L 156.0 650.8 L 160.0 652.1 L 164.0 653.4 L 168.0 654.7 L 172.0 655.9 L 176.0 657.1 L 180.0 658.3 L 184.0 659.5 L 188.0 660.6 L 192.0 661.7 L 196.0 662.8 L 200.0 663.8 L 204.0 664.8 L 208.0 665.8 L 212.0 666.8 L 216.0 667.7 L 220.0 668.6 L 224.0 669.4 L 228.0 670.2 L 232.0 671.0 L 236.0 671.8 L 240.0 672.5 L 244.0 673.2 L 248.0 673.9 L 252.0 674.5 L 256.0 675.1 L 260.0 675.7 L 264.0 676.2 L 268.0 676.7 L 272.0 677.1 L 276.0 677.6 L 280.0 678.0 L 284.0 678.3 L 288.0 678.6 L 292.0 678.9 L 296.0 679.2 L 300.0 679.4 L 304.0 679.6 L 308.0 679.7 L 312.0 679.9 L 316.0 679.9 L 320.0 680.0 L 324.0 680.0 L 328.0 680.0 L 332.0 679.9 L 336.0 679.8 L 340.0 679.7 L 344.0 679.6 L 348.0 679.4 L 352.0 679.1 L 356.0 678.9 L 360.0 678.6 L 364.0 678.2 L 368.0 677.9 L 372.0 677.5 L 376.0 677.0 L 380.0 676.6 L 384.0 676.1 L 388.0 675.5 L 392.0 675.0 L 396.0 674.4 L 400.0 673.7 L 404.0 673.1 L 408.0 672.4 L 412.0 671.6 L 416.0 670.9 L 420.0 670.1 L 424.0 669.3 L 428.0 668.4 L 432.0 667.5 L 436.0 666.6 L 440.0 665.6 L 444.0 664.6 L 448.0 663.6 L 452.0 662.6 L 456.0 661.5 L 460.0 660.4 L 464.0 659.3 L 468.0 658.1 L 472.0 656.9 L 476.0 655.7 L 480.0 654.4 L 484.0 653.1 L 488.0 651.8 L 492.0 650.5 L 496.0 649.1 L 500.0 647.7 L 504.0 646.3 L 508.0 644.9 L 512.0 643.4 L 516.0 641.9 L 520.0 640.4 L 524.0 638.8 L 528.0 637.3 L 532.0 635.7 L 536.0 634.1 L 540.0 632.4 L 544.0 630.8 L 548.0 629.1 L 552.0 627.4 L 556.0 625.6 L 560.0 623.9 L 564.0 622.1 L 568.0 620.3 L 572.0 618.5 L 576.0 616.7 L 580.0 614.8 L 584.0 613.0 L 588.0 611.1 L 592.0 609.2 L 596.0 607.3 L 600.0 605.3 L 604.0 603.4 L 608.0 601.4 L 612.0 599.4 L 616.0 597.4 L 620.0 595.4 L 624.0 593.4 L 628.0 591.3 L 632.0 589.3 L 636.0 587.2 L 640.0 585.1 L 644.0 583.1 L 648.0 581.0 L 652.0 578.9 L 656.0 576.7 L 660.0 574.6 L 664.0 572.5 L 668.0 570.3 L 672.0 568.2 L 676.0 566.0 L 680.0 563.9 L 684.0 561.7 L 688.0 559.5 L 692.0 557.3 L 696.0 555.1 L 700.0 553.0 L 704.0 550.8 L 708.0 548.6 L 712.0 546.4 L 716.0 544.2 L 720.0 542.0 L 724.0 539.8 L 728.0 537.6 L 732.0 535.4 L 736.0 533.2 L 740.0 531.0 L 744.0 528.8 L 748.0 526.6 L 752.0 524.4 L 756.0 522.2 L 760.0 520.1 L 764.0 517.9 L 768.0 515.7 L 772.0 513.6 L 776.0 511.4 L 780.0 509.2 L 784.0 507.1 L 788.0 505.0 L 792.0 502.8 L 796.0 500.7 L 800.0 498.6 L 804.0 496.5 L 808.0 494.4 L 812.0 492.4 L 816.0 490.3 L 820.0 488.3 L 824.0 486.2 L 828.0 484.2 L 832.0 482.2 L 836.0 480.2 L 840.0 478.2 L 844.0 476.2 L 848.0 474.3 L 852.0 472.4 L 856.0 470.4 L 860.0 468.5 L 864.0 466.7 L 868.0 464.8 L 872.0 463.0 L 876.0 461.1 L 880.0 459.3 L 884.0 457.5 L 888.0 455.8 L 892.0 454.0 L 896.0 452.3 L 900.0 450.6 L 904.0 448.9 L 908.0 447.3 L 912.0 445.6 L 916.0 444.0 L 920.0 442.4 L 924.0 440.9 L 928.0 439.3 L 932.0 437.8 L 936.0 436.3 L 940.0 434.8 L 944.0 433.4 L 948.0 432.0 L 952.0 430.6 L 956.0 429.2 L 960.0 427.9 L 964.0 426.6 L 968.0 425.3 L 972.0 424.1 L 976.0 422.9 L 980.0 421.7 L 984.0 420.5 L 988.0 419.4 L 992.0 418.3 L 996.0 417.2 L 1000.0 416.2 L 1004.0 415.2 L 1008.0 414.2 L 1012.0 413.2 L 1016.0 412.3 L 1020.0 411.4 L 1024.0 410.6 L 1028.0 409.8 L 1032.0 409.0 L 1036.0 408.2 L 1040.0 407.5 L 1044.0 406.8 L 1048.0 406.1 L 1052.0 405.5 L 1056.0 404.9 L 1060.0 404.3 L 1064.0 403.8 L 1068.0 403.3 L 1072.0 402.9 L 1076.0 402.4 L 1080.0 402.0 L 1084.0 401.7 L 1088.0 401.4 L 1092.0 401.1 L 1096.0 400.8 L 1100.0 400.6 L 1104.0 400.4 L 1108.0 400.3 L 1112.0 400.1 L 1116.0 400.1 L 1120.0 400.0 L 1124.0 400.0 L 1128.0 400.0 L 1132.0 400.1 L 1136.0 400.2 L 1140.0 400.3 L 1144.0 400.4 L 1148.0 400.6 L 1152.0 400.9 L 1156.0 401.1 L 1160.0 401.4 L 1164.0 401.8 L 1168.0 402.1 L 1172.0 402.5 L 1176.0 403.0 L 1180.0 403.4 L 1184.0 403.9 L 1188.0 404.5 L 1192.0 405.0 L 1196.0 405.6 L 1200.0 406.3 L 1204.0 406.9 L 1208.0 407.6 L 1212.0 408.4 L 1216.0 409.1 L 1220.0 409.9 L 1224.0 410.7 L 1228.0 411.6 L 1232.0 412.5 L 1236.0 413.4 L 1240.0 414.4 L 1244.0 415.4 L 1248.0 416.4 L 1252.0 417.4 L 1256.0 418.5 L 1260.0 419.6 L 1264.0 420.7 L 1268.0 421.9 L 1272.0 423.1 L 1276.0 424.3 L 1280.0 425.6 L 1284.0 426.9 L 1288.0 428.2 L 1292.0 429.5 L 1296.0 430.9 L 1300.0 432.3 L 1304.0 433.7 L 1308.0 435.1 L 1312.0 436.6 L 1316.0 438.1 L 1320.0 439.6 L 1324.0 441.2 L 1328.0 442.7 L 1332.0 444.3 L 1336.0 445.9 L 1340.0 447.6 L 1344.0 449.2 L 1348.0 450.9 L 1352.0 452.6 L 1356.0 454.4 L 1360.0 456.1 L 1364.0 457.9 L 1368.0 459.7 L 1372.0 461.5 L 1376.0 463.3 L 1380.0 465.2 L 1384.0 467.0 L 1388.0 468.9 L 1392.0 470.8 L 1396.0 472.7 L 1400.0 474.7 L 1404.0 476.6 L 1408.0 478.6 L 1412.0 480.6 L 1416.0 482.6 L 1420.0 484.6 L 1424.0 486.6 L 1428.0 488.7 L 1432.0 490.7 L 1436.0 492.8 L 1440.0 494.9 L 1444.0 496.9 L 1448.0 499.0 L 1452.0 501.1 L 1456.0 503.3 L 1460.0 505.4 L 1464.0 507.5 L 1468.0 509.7 L 1472.0 511.8 L 1476.0 514.0 L 1480.0 516.1 L 1484.0 518.3 L 1488.0 520.5 L 1492.0 522.7 L 1496.0 524.9 L 1500.0 527.0 L 1504.0 529.2 L 1508.0 531.4 L 1512.0 533.6 L 1516.0 535.8 L 1520.0 538.0 L 1524.0 540.2 L 1528.0 542.4 L 1532.0 544.6 L 1536.0 546.8 L 1540.0 549.0 L 1544.0 551.2 L 1548.0 553.4 L 1552.0 555.6 L 1556.0 557.8 L 1560.0 559.9 L 1564.0 562.1 L 1568.0 564.3 L 1572.0 566.4 L 1576.0 568.6 L 1580.0 570.8 L 1584.0 572.9 L 1588.0 575.0 L 1592.0 577.2 L 1596.0 579.3 L 1600.0 581.4 L 1604.0 583.5 L 1608.0 585.6 L 1612.0 587.6 L 1616.0 589.7 L 1620.0 591.7 L 1624.0 593.8 L 1628.0 595.8 L 1632.0 597.8 L 1636.0 599.8 L 1640.0 601.8 L 1644.0 603.8 L 1648.0 605.7 L 1652.0 607.6 L 1656.0 609.6 L 1660.0 611.5 L 1664.0 613.3 L 1668.0 615.2 L 1672.0 617.0 L 1676.0 618.9 L 1680.0 620.7 L 1684.0 622.5 L 1688.0 624.2 L 1692.0 626.0 L 1696.0 627.7 L 1700.0 629.4 L 1704.0 631.1 L 1708.0 632.7 L 1712.0 634.4 L 1716.0 636.0 L 1720.0 637.6 L 1724.0 639.1 L 1728.0 640.7 L 1732.0 642.2 L 1736.0 643.7 L 1740.0 645.2 L 1744.0 646.6 L 1748.0 648.0 L 1752.0 649.4 L 1756.0 650.8 L 1760.0 652.1 L 1764.0 653.4 L 1768.0 654.7 L 1772.0 655.9 L 1776.0 657.1 L 1780.0 658.3 L 1784.0 659.5 L 1788.0 660.6 L 1792.0 661.7 L 1796.0 662.8 L 1800.0 663.8 L 1804.0 664.8 L 1808.0 665.8 L 1812.0 666.8 L 1816.0 667.7 L 1820.0 668.6 L 1824.0 669.4 L 1828.0 670.2 L 1832.0 671.0 L 1836.0 671.8 L 1840.0 672.5 L 1844.0 673.2 L 1848.0 673.9 L 1852.0 674.5 L 1856.0 675.1 L 1860.0 675.7 L 1864.0 676.2 L 1868.0 676.7 L 1872.0 677.1 L 1876.0 677.6 L 1880.0 678.0 L 1884.0 678.3 L 1888.0 678.6 L 1892.0 678.9 L 1896.0 679.2 L 1900.0 679.4 L 1904.0 679.6 L 1908.0 679.7 L 1912.0 679.9 L 1916.0 679.9 L 1920.0 680.0" fill="none" stroke="#6b7ff7" stroke-width="34" stroke-linecap="round" opacity="0.16"/>
  <path d="M 0.0 581.4 L 4.0 583.5 L 8.0 585.6 L 12.0 587.6 L 16.0 589.7 L 20.0 591.7 L 24.0 593.8 L 28.0 595.8 L 32.0 597.8 L 36.0 599.8 L 40.0 601.8 L 44.0 603.8 L 48.0 605.7 L 52.0 607.6 L 56.0 609.6 L 60.0 611.5 L 64.0 613.3 L 68.0 615.2 L 72.0 617.0 L 76.0 618.9 L 80.0 620.7 L 84.0 622.5 L 88.0 624.2 L 92.0 626.0 L 96.0 627.7 L 100.0 629.4 L 104.0 631.1 L 108.0 632.7 L 112.0 634.4 L 116.0 636.0 L 120.0 637.6 L 124.0 639.1 L 128.0 640.7 L 132.0 642.2 L 136.0 643.7 L 140.0 645.2 L 144.0 646.6 L 148.0 648.0 L 152.0 649.4 L 156.0 650.8 L 160.0 652.1 L 164.0 653.4 L 168.0 654.7 L 172.0 655.9 L 176.0 657.1 L 180.0 658.3 L 184.0 659.5 L 188.0 660.6 L 192.0 661.7 L 196.0 662.8 L 200.0 663.8 L 204.0 664.8 L 208.0 665.8 L 212.0 666.8 L 216.0 667.7 L 220.0 668.6 L 224.0 669.4 L 228.0 670.2 L 232.0 671.0 L 236.0 671.8 L 240.0 672.5 L 244.0 673.2 L 248.0 673.9 L 252.0 674.5 L 256.0 675.1 L 260.0 675.7 L 264.0 676.2 L 268.0 676.7 L 272.0 677.1 L 276.0 677.6 L 280.0 678.0 L 284.0 678.3 L 288.0 678.6 L 292.0 678.9 L 296.0 679.2 L 300.0 679.4 L 304.0 679.6 L 308.0 679.7 L 312.0 679.9 L 316.0 679.9 L 320.0 680.0 L 324.0 680.0 L 328.0 680.0 L 332.0 679.9 L 336.0 679.8 L 340.0 679.7 L 344.0 679.6 L 348.0 679.4 L 352.0 679.1 L 356.0 678.9 L 360.0 678.6 L 364.0 678.2 L 368.0 677.9 L 372.0 677.5 L 376.0 677.0 L 380.0 676.6 L 384.0 676.1 L 388.0 675.5 L 392.0 675.0 L 396.0 674.4 L 400.0 673.7 L 404.0 673.1 L 408.0 672.4 L 412.0 671.6 L 416.0 670.9 L 420.0 670.1 L 424.0 669.3 L 428.0 668.4 L 432.0 667.5 L 436.0 666.6 L 440.0 665.6 L 444.0 664.6 L 448.0 663.6 L 452.0 662.6 L 456.0 661.5 L 460.0 660.4 L 464.0 659.3 L 468.0 658.1 L 472.0 656.9 L 476.0 655.7 L 480.0 654.4 L 484.0 653.1 L 488.0 651.8 L 492.0 650.5 L 496.0 649.1 L 500.0 647.7 L 504.0 646.3 L 508.0 644.9 L 512.0 643.4 L 516.0 641.9 L 520.0 640.4 L 524.0 638.8 L 528.0 637.3 L 532.0 635.7 L 536.0 634.1 L 540.0 632.4 L 544.0 630.8 L 548.0 629.1 L 552.0 627.4 L 556.0 625.6 L 560.0 623.9 L 564.0 622.1 L 568.0 620.3 L 572.0 618.5 L 576.0 616.7 L 580.0 614.8 L 584.0 613.0 L 588.0 611.1 L 592.0 609.2 L 596.0 607.3 L 600.0 605.3 L 604.0 603.4 L 608.0 601.4 L 612.0 599.4 L 616.0 597.4 L 620.0 595.4 L 624.0 593.4 L 628.0 591.3 L 632.0 589.3 L 636.0 587.2 L 640.0 585.1 L 644.0 583.1 L 648.0 581.0 L 652.0 578.9 L 656.0 576.7 L 660.0 574.6 L 664.0 572.5 L 668.0 570.3 L 672.0 568.2 L 676.0 566.0 L 680.0 563.9 L 684.0 561.7 L 688.0 559.5 L 692.0 557.3 L 696.0 555.1 L 700.0 553.0 L 704.0 550.8 L 708.0 548.6 L 712.0 546.4 L 716.0 544.2 L 720.0 542.0 L 724.0 539.8 L 728.0 537.6 L 732.0 535.4 L 736.0 533.2 L 740.0 531.0 L 744.0 528.8 L 748.0 526.6 L 752.0 524.4 L 756.0 522.2 L 760.0 520.1 L 764.0 517.9 L 768.0 515.7 L 772.0 513.6 L 776.0 511.4 L 780.0 509.2 L 784.0 507.1 L 788.0 505.0 L 792.0 502.8 L 796.0 500.7 L 800.0 498.6 L 804.0 496.5 L 808.0 494.4 L 812.0 492.4 L 816.0 490.3 L 820.0 488.3 L 824.0 486.2 L 828.0 484.2 L 832.0 482.2 L 836.0 480.2 L 840.0 478.2 L 844.0 476.2 L 848.0 474.3 L 852.0 472.4 L 856.0 470.4 L 860.0 468.5 L 864.0 466.7 L 868.0 464.8 L 872.0 463.0 L 876.0 461.1 L 880.0 459.3 L 884.0 457.5 L 888.0 455.8 L 892.0 454.0 L 896.0 452.3 L 900.0 450.6 L 904.0 448.9 L 908.0 447.3 L 912.0 445.6 L 916.0 444.0 L 920.0 442.4 L 924.0 440.9 L 928.0 439.3 L 932.0 437.8 L 936.0 436.3 L 940.0 434.8 L 944.0 433.4 L 948.0 432.0 L 952.0 430.6 L 956.0 429.2 L 960.0 427.9 L 964.0 426.6 L 968.0 425.3 L 972.0 424.1 L 976.0 422.9 L 980.0 421.7 L 984.0 420.5 L 988.0 419.4 L 992.0 418.3 L 996.0 417.2 L 1000.0 416.2 L 1004.0 415.2 L 1008.0 414.2 L 1012.0 413.2 L 1016.0 412.3 L 1020.0 411.4 L 1024.0 410.6 L 1028.0 409.8 L 1032.0 409.0 L 1036.0 408.2 L 1040.0 407.5 L 1044.0 406.8 L 1048.0 406.1 L 1052.0 405.5 L 1056.0 404.9 L 1060.0 404.3 L 1064.0 403.8 L 1068.0 403.3 L 1072.0 402.9 L 1076.0 402.4 L 1080.0 402.0 L 1084.0 401.7 L 1088.0 401.4 L 1092.0 401.1 L 1096.0 400.8 L 1100.0 400.6 L 1104.0 400.4 L 1108.0 400.3 L 1112.0 400.1 L 1116.0 400.1 L 1120.0 400.0 L 1124.0 400.0 L 1128.0 400.0 L 1132.0 400.1 L 1136.0 400.2 L 1140.0 400.3 L 1144.0 400.4 L 1148.0 400.6 L 1152.0 400.9 L 1156.0 401.1 L 1160.0 401.4 L 1164.0 401.8 L 1168.0 402.1 L 1172.0 402.5 L 1176.0 403.0 L 1180.0 403.4 L 1184.0 403.9 L 1188.0 404.5 L 1192.0 405.0 L 1196.0 405.6 L 1200.0 406.3 L 1204.0 406.9 L 1208.0 407.6 L 1212.0 408.4 L 1216.0 409.1 L 1220.0 409.9 L 1224.0 410.7 L 1228.0 411.6 L 1232.0 412.5 L 1236.0 413.4 L 1240.0 414.4 L 1244.0 415.4 L 1248.0 416.4 L 1252.0 417.4 L 1256.0 418.5 L 1260.0 419.6 L 1264.0 420.7 L 1268.0 421.9 L 1272.0 423.1 L 1276.0 424.3 L 1280.0 425.6 L 1284.0 426.9 L 1288.0 428.2 L 1292.0 429.5 L 1296.0 430.9 L 1300.0 432.3 L 1304.0 433.7 L 1308.0 435.1 L 1312.0 436.6 L 1316.0 438.1 L 1320.0 439.6 L 1324.0 441.2 L 1328.0 442.7 L 1332.0 444.3 L 1336.0 445.9 L 1340.0 447.6 L 1344.0 449.2 L 1348.0 450.9 L 1352.0 452.6 L 1356.0 454.4 L 1360.0 456.1 L 1364.0 457.9 L 1368.0 459.7 L 1372.0 461.5 L 1376.0 463.3 L 1380.0 465.2 L 1384.0 467.0 L 1388.0 468.9 L 1392.0 470.8 L 1396.0 472.7 L 1400.0 474.7 L 1404.0 476.6 L 1408.0 478.6 L 1412.0 480.6 L 1416.0 482.6 L 1420.0 484.6 L 1424.0 486.6 L 1428.0 488.7 L 1432.0 490.7 L 1436.0 492.8 L 1440.0 494.9 L 1444.0 496.9 L 1448.0 499.0 L 1452.0 501.1 L 1456.0 503.3 L 1460.0 505.4 L 1464.0 507.5 L 1468.0 509.7 L 1472.0 511.8 L 1476.0 514.0 L 1480.0 516.1 L 1484.0 518.3 L 1488.0 520.5 L 1492.0 522.7 L 1496.0 524.9 L 1500.0 527.0 L 1504.0 529.2 L 1508.0 531.4 L 1512.0 533.6 L 1516.0 535.8 L 1520.0 538.0 L 1524.0 540.2 L 1528.0 542.4 L 1532.0 544.6 L 1536.0 546.8 L 1540.0 549.0 L 1544.0 551.2 L 1548.0 553.4 L 1552.0 555.6 L 1556.0 557.8 L 1560.0 559.9 L 1564.0 562.1 L 1568.0 564.3 L 1572.0 566.4 L 1576.0 568.6 L 1580.0 570.8 L 1584.0 572.9 L 1588.0 575.0 L 1592.0 577.2 L 1596.0 579.3 L 1600.0 581.4 L 1604.0 583.5 L 1608.0 585.6 L 1612.0 587.6 L 1616.0 589.7 L 1620.0 591.7 L 1624.0 593.8 L 1628.0 595.8 L 1632.0 597.8 L 1636.0 599.8 L 1640.0 601.8 L 1644.0 603.8 L 1648.0 605.7 L 1652.0 607.6 L 1656.0 609.6 L 1660.0 611.5 L 1664.0 613.3 L 1668.0 615.2 L 1672.0 617.0 L 1676.0 618.9 L 1680.0 620.7 L 1684.0 622.5 L 1688.0 624.2 L 1692.0 626.0 L 1696.0 627.7 L 1700.0 629.4 L 1704.0 631.1 L 1708.0 632.7 L 1712.0 634.4 L 1716.0 636.0 L 1720.0 637.6 L 1724.0 639.1 L 1728.0 640.7 L 1732.0 642.2 L 1736.0 643.7 L 1740.0 645.2 L 1744.0 646.6 L 1748.0 648.0 L 1752.0 649.4 L 1756.0 650.8 L 1760.0 652.1 L 1764.0 653.4 L 1768.0 654.7 L 1772.0 655.9 L 1776.0 657.1 L 1780.0 658.3 L 1784.0 659.5 L 1788.0 660.6 L 1792.0 661.7 L 1796.0 662.8 L 1800.0 663.8 L 1804.0 664.8 L 1808.0 665.8 L 1812.0 666.8 L 1816.0 667.7 L 1820.0 668.6 L 1824.0 669.4 L 1828.0 670.2 L 1832.0 671.0 L 1836.0 671.8 L 1840.0 672.5 L 1844.0 673.2 L 1848.0 673.9 L 1852.0 674.5 L 1856.0 675.1 L 1860.0 675.7 L 1864.0 676.2 L 1868.0 676.7 L 1872.0 677.1 L 1876.0 677.6 L 1880.0 678.0 L 1884.0 678.3 L 1888.0 678.6 L 1892.0 678.9 L 1896.0 679.2 L 1900.0 679.4 L 1904.0 679.6 L 1908.0 679.7 L 1912.0 679.9 L 1916.0 679.9 L 1920.0 680.0" fill="none" stroke="#ffffff" stroke-width="1.5" stroke-linecap="round" opacity="0.35"/>
</svg>