<svg xmlns="http://www.w3.org/2000/svg" viewBox="0 0 1600 900" width="1600" height="900" role="img" aria-labelledby="error-vectors-title">
  <title id="error-vectors-title">Error vectors aligning</title>
  <rect width="1600" height="900" fill="#faf9f6"/>
  <line x1="79.9" y1="135.7" x2="196.1" y2="169.5" stroke="#3d4db3" stroke-width="1.0" opacity="0.16" stroke-linecap="round"/>
  <circle cx="196.1" cy="169.5" r="1.5" fill="#3d4db3" opacity="0.16"/>
  <line x1="80.1" y1="187.2" x2="195.4" y2="215.4" stroke="#3d4db3" stroke-width="1.0" opacity="0.16" stroke-linecap="round"/>
  <circle cx="195.4" cy="215.4" r="1.5" fill="#3d4db3" opacity="0.16"/>
  <line x1="77.4" y1="252.9" x2="200.5" y2="273.9" stroke="#3d4db3" stroke-width="1.0" opacity="0.16" stroke-linecap="round"/>
  <circle cx="200.5" cy="273.9" r="1.5" fill="#3d4db3" opacity="0.16"/>
  <line x1="76.8" y1="308.9" x2="199.8" y2="325.4" stroke="#3d4db3" stroke-width="1.0" opacity="0.16" stroke-linecap="round"/>
  <circle cx="199.8" cy="325.4" r="1.5" fill="#3d4db3" opacity="0.16"/>
  <line x1="76.1" y1="358.7" x2="174.1" y2="368.1" stroke="#3d4db3" stroke-width="1.0" opacity="0.16" stroke-linecap="round"/>
  <circle cx="174.1" cy="368.1" r="1.5" fill="#3d4db3" opacity="0.16"/>
  <line x1="79.3" y1="426.8" x2="207.8" y2="429.3" stroke="#3d4db3" stroke-width="1.0" opacity="0.16" stroke-linecap="round"/>
  <circle cx="207.8" cy="429.3" r="1.5" fill="#3d4db3" opacity="0.16"/>
  <line x1="82.1" y1="476.0" x2="203.3" y2="474.7" stroke="#3d4db3" stroke-width="1.0" opacity="0.16" stroke-linecap="round"/>
  <circle cx="203.3" cy="474.7" r="1.5" fill="#3d4db3" opacity="0.16"/>
  <line x1="76.8" y1="536.5" x2="220.3" y2="523.5" stroke="#3d4db3" stroke-width="1.0" opacity="0.16" stroke-linecap="round"/>
  <circle cx="220.3" cy="523.5" r="1.5" fill="#3d4db3" opacity="0.16"/>
  <line x1="78.2" y1="591.4" x2="184.1" y2="578.5" stroke="#3d4db3" stroke-width="1.0" opacity="0.16" stroke-linecap="round"/>
  <circle cx="184.1" cy="578.5" r="1.5" fill="#3d4db3" opacity="0.16"/>
  <line x1="84.6" y1="650.1" x2="200.7" y2="628.5" stroke="#3d4db3" stroke-width="1.0" opacity="0.16" stroke-linecap="round"/>
  <circle cx="200.7" cy="628.5" r="1.5" fill="#3d4db3" opacity="0.16"/>
  <line x1="83.1" y1="709.6" x2="200.9" y2="679.6" stroke="#3d4db3" stroke-width="1.0" opacity="0.16" stroke-linecap="round"/>
  <circle cx="200.9" cy="679.6" r="1.5" fill="#3d4db3" opacity="0.16"/>
  <line x1="126.5" y1="129.6" x2="255.4" y2="170.7" stroke="#3d4db3" stroke-width="1.1" opacity="0.18" stroke-linecap="round"/>
  <circle cx="255.4" cy="170.7" r="1.6" fill="#3d4db3" opacity="0.18"/>
  <line x1="136.9" y1="190.2" x2="253.8" y2="220.2" stroke="#3d4db3" stroke-width="1.1" opacity="0.18" stroke-linecap="round"/>
  <circle cx="253.8" cy="220.2" r="1.6" fill="#3d4db3" opacity="0.18"/>
  <line x1="135.5" y1="249.0" x2="240.2" y2="269.0" stroke="#3d4db3" stroke-width="1.1" opacity="0.18" stroke-linecap="round"/>
  <circle cx="240.2" cy="269.0" r="1.6" fill="#3d4db3" opacity="0.18"/>
  <line x1="134.3" y1="302.4" x2="282.7" y2="325.3" stroke="#3d4db3" stroke-width="1.1" opacity="0.18" stroke-linecap="round"/>
  <circle cx="282.7" cy="325.3" r="1.6" fill="#3d4db3" opacity="0.18"/>
  <line x1="137.0" y1="369.2" x2="271.4" y2="380.7" stroke="#3d4db3" stroke-width="1.1" opacity="0.18" stroke-linecap="round"/>
  <circle cx="271.4" cy="380.7" r="1.6" fill="#3d4db3" opacity="0.18"/>
  <line x1="132.1" y1="415.7" x2="237.1" y2="418.8" stroke="#3d4db3" stroke-width="1.1" opacity="0.18" stroke-linecap="round"/>
  <circle cx="237.1" cy="418.8" r="1.6" fill="#3d4db3" opacity="0.18"/>
  <line x1="130.2" y1="480.9" x2="287.0" y2="475.1" stroke="#3d4db3" stroke-width="1.1" opacity="0.18" stroke-linecap="round"/>
  <circle cx="287.0" cy="475.1" r="1.6" fill="#3d4db3" opacity="0.18"/>
  <line x1="125.5" y1="534.2" x2="221.4" y2="526.2" stroke="#3d4db3" stroke-width="1.1" opacity="0.18" stroke-linecap="round"/>
  <circle cx="221.4" cy="526.2" r="1.6" fill="#3d4db3" opacity="0.18"/>
  <line x1="137.3" y1="592.7" x2="259.0" y2="576.1" stroke="#3d4db3" stroke-width="1.1" opacity="0.18" stroke-linecap="round"/>
  <circle cx="259.0" cy="576.1" r="1.6" fill="#3d4db3" opacity="0.18"/>
  <line x1="126.9" y1="654.0" x2="216.8" y2="635.8" stroke="#3d4db3" stroke-width="1.1" opacity="0.18" stroke-linecap="round"/>
  <circle cx="216.8" cy="635.8" r="1.6" fill="#3d4db3" opacity="0.18"/>
  <line x1="127.3" y1="710.2" x2="273.7" y2="674.0" stroke="#3d4db3" stroke-width="1.1" opacity="0.18" stroke-linecap="round"/>
  <circle cx="273.7" cy="674.0" r="1.6" fill="#3d4db3" opacity="0.18"/>
  <line x1="179.6" y1="139.0" x2="271.1" y2="167.3" stroke="#3d4db3" stroke-width="1.2" opacity="0.20" stroke-linecap="round"/>
  <circle cx="271.1" cy="167.3" r="1.6" fill="#3d4db3" opacity="0.20"/>
  <line x1="177.1" y1="192.7" x2="273.8" y2="218.9" stroke="#3d4db3" stroke-width="1.2" opacity="0.20" stroke-linecap="round"/>
  <circle cx="273.8" cy="218.9" r="1.6" fill="#3d4db3" opacity="0.20"/>
  <line x1="182.8" y1="244.2" x2="275.2" y2="263.9" stroke="#3d4db3" stroke-width="1.2" opacity="0.20" stroke-linecap="round"/>
  <circle cx="275.2" cy="263.9" r="1.6" fill="#3d4db3" opacity="0.20"/>
  <line x1="181.1" y1="303.6" x2="279.4" y2="319.4" stroke="#3d4db3" stroke-width="1.2" opacity="0.20" stroke-linecap="round"/>
  <circle cx="279.4" cy="319.4" r="1.6" fill="#3d4db3" opacity="0.20"/>
  <line x1="178.8" y1="358.1" x2="296.7" y2="367.7" stroke="#3d4db3" stroke-width="1.2" opacity="0.20" stroke-linecap="round"/>
  <circle cx="296.7" cy="367.7" r="1.6" fill="#3d4db3" opacity="0.20"/>
  <line x1="178.2" y1="421.1" x2="321.1" y2="423.2" stroke="#3d4db3" stroke-width="1.2" opacity="0.20" stroke-linecap="round"/>
  <circle cx="321.1" cy="423.2" r="1.6" fill="#3d4db3" opacity="0.20"/>
  <line x1="182.3" y1="481.5" x2="322.4" y2="478.8" stroke="#3d4db3" stroke-width="1.2" opacity="0.20" stroke-linecap="round"/>
  <circle cx="322.4" cy="478.8" r="1.6" fill="#3d4db3" opacity="0.20"/>
  <line x1="184.5" y1="533.1" x2="335.5" y2="518.1" stroke="#3d4db3" stroke-width="1.2" opacity="0.20" stroke-linecap="round"/>
  <circle cx="335.5" cy="518.1" r="1.6" fill="#3d4db3" opacity="0.20"/>
  <line x1="177.9" y1="588.0" x2="268.9" y2="574.4" stroke="#3d4db3" stroke-width="1.2" opacity="0.20" stroke-linecap="round"/>
  <circle cx="268.9" cy="574.4" r="1.6" fill="#3d4db3" opacity="0.20"/>
  <line x1="184.1" y1="649.7" x2="334.3" y2="618.8" stroke="#3d4db3" stroke-width="1.2" opacity="0.20" stroke-linecap="round"/>
  <circle cx="334.3" cy="618.8" r="1.6" fill="#3d4db3" opacity="0.20"/>
  <line x1="183.2" y1="706.8" x2="315.3" y2="672.9" stroke="#3d4db3" stroke-width="1.2" opacity="0.20" stroke-linecap="round"/>
  <circle cx="315.3" cy="672.9" r="1.6" fill="#3d4db3" opacity="0.20"/>
  <line x1="234.3" y1="139.9" x2="383.8" y2="189.8" stroke="#3d4db3" stroke-width="1.3" opacity="0.22" stroke-linecap="round"/>
  <circle cx="383.8" cy="189.8" r="1.7" fill="#3d4db3" opacity="0.22"/>
  <line x1="238.9" y1="191.3" x2="378.3" y2="231.7" stroke="#3d4db3" stroke-width="1.3" opacity="0.22" stroke-linecap="round"/>
  <circle cx="378.3" cy="231.7" r="1.7" fill="#3d4db3" opacity="0.22"/>
  <line x1="239.3" y1="250.1" x2="383.9" y2="281.7" stroke="#3d4db3" stroke-width="1.3" opacity="0.22" stroke-linecap="round"/>
  <circle cx="383.9" cy="281.7" r="1.7" fill="#3d4db3" opacity="0.22"/>
  <line x1="233.6" y1="301.7" x2="367.5" y2="323.1" stroke="#3d4db3" stroke-width="1.3" opacity="0.22" stroke-linecap="round"/>
  <circle cx="367.5" cy="323.1" r="1.7" fill="#3d4db3" opacity="0.22"/>
  <line x1="233.0" y1="367.1" x2="353.6" y2="377.9" stroke="#3d4db3" stroke-width="1.3" opacity="0.22" stroke-linecap="round"/>
  <circle cx="353.6" cy="377.9" r="1.7" fill="#3d4db3" opacity="0.22"/>
  <line x1="238.9" y1="424.0" x2="361.5" y2="427.0" stroke="#3d4db3" stroke-width="1.3" opacity="0.22" stroke-linecap="round"/>
  <circle cx="361.5" cy="427.0" r="1.7" fill="#3d4db3" opacity="0.22"/>
  <line x1="240.2" y1="480.5" x2="341.9" y2="477.7" stroke="#3d4db3" stroke-width="1.3" opacity="0.22" stroke-linecap="round"/>
  <circle cx="341.9" cy="477.7" r="1.7" fill="#3d4db3" opacity="0.22"/>
  <line x1="230.7" y1="536.2" x2="386.9" y2="519.0" stroke="#3d4db3" stroke-width="1.3" opacity="0.22" stroke-linecap="round"/>
  <circle cx="386.9" cy="519.0" r="1.7" fill="#3d4db3" opacity="0.22"/>
  <line x1="234.5" y1="587.6" x2="368.8" y2="566.0" stroke="#3d4db3" stroke-width="1.3" opacity="0.22" stroke-linecap="round"/>
  <circle cx="368.8" cy="566.0" r="1.7" fill="#3d4db3" opacity="0.22"/>
  <line x1="231.1" y1="653.3" x2="360.2" y2="626.3" stroke="#3d4db3" stroke-width="1.3" opacity="0.22" stroke-linecap="round"/>
  <circle cx="360.2" cy="626.3" r="1.7" fill="#3d4db3" opacity="0.22"/>
  <line x1="233.0" y1="711.7" x2="347.4" y2="678.1" stroke="#3d4db3" stroke-width="1.3" opacity="0.22" stroke-linecap="round"/>
  <circle cx="347.4" cy="678.1" r="1.7" fill="#3d4db3" opacity="0.22"/>
  <line x1="290.4" y1="135.8" x2="407.1" y2="177.8" stroke="#3d4db3" stroke-width="1.4" opacity="0.24" stroke-linecap="round"/>
  <circle cx="407.1" cy="177.8" r="1.8" fill="#3d4db3" opacity="0.24"/>
  <line x1="282.7" y1="191.1" x2="371.0" y2="216.9" stroke="#3d4db3" stroke-width="1.4" opacity="0.24" stroke-linecap="round"/>
  <circle cx="371.0" cy="216.9" r="1.8" fill="#3d4db3" opacity="0.24"/>
  <line x1="280.4" y1="252.4" x2="429.6" y2="286.6" stroke="#3d4db3" stroke-width="1.4" opacity="0.24" stroke-linecap="round"/>
  <circle cx="429.6" cy="286.6" r="1.8" fill="#3d4db3" opacity="0.24"/>
  <line x1="281.0" y1="305.7" x2="372.0" y2="320.6" stroke="#3d4db3" stroke-width="1.4" opacity="0.24" stroke-linecap="round"/>
  <circle cx="372.0" cy="320.6" r="1.8" fill="#3d4db3" opacity="0.24"/>
  <line x1="281.2" y1="366.8" x2="408.4" y2="376.8" stroke="#3d4db3" stroke-width="1.4" opacity="0.24" stroke-linecap="round"/>
  <circle cx="408.4" cy="376.8" r="1.8" fill="#3d4db3" opacity="0.24"/>
  <line x1="283.1" y1="419.5" x2="407.4" y2="424.9" stroke="#3d4db3" stroke-width="1.4" opacity="0.24" stroke-linecap="round"/>
  <circle cx="407.4" cy="424.9" r="1.8" fill="#3d4db3" opacity="0.24"/>
  <line x1="282.5" y1="480.2" x2="399.2" y2="478.0" stroke="#3d4db3" stroke-width="1.4" opacity="0.24" stroke-linecap="round"/>
  <circle cx="399.2" cy="478.0" r="1.8" fill="#3d4db3" opacity="0.24"/>
  <line x1="291.1" y1="539.5" x2="395.1" y2="527.2" stroke="#3d4db3" stroke-width="1.4" opacity="0.24" stroke-linecap="round"/>
  <circle cx="395.1" cy="527.2" r="1.8" fill="#3d4db3" opacity="0.24"/>
  <line x1="281.3" y1="595.9" x2="389.4" y2="579.6" stroke="#3d4db3" stroke-width="1.4" opacity="0.24" stroke-linecap="round"/>
  <circle cx="389.4" cy="579.6" r="1.8" fill="#3d4db3" opacity="0.24"/>
  <line x1="283.9" y1="648.3" x2="414.3" y2="620.0" stroke="#3d4db3" stroke-width="1.4" opacity="0.24" stroke-linecap="round"/>
  <circle cx="414.3" cy="620.0" r="1.8" fill="#3d4db3" opacity="0.24"/>
  <line x1="289.2" y1="710.2" x2="384.2" y2="681.6" stroke="#3d4db3" stroke-width="1.4" opacity="0.24" stroke-linecap="round"/>
  <circle cx="384.2" cy="681.6" r="1.8" fill="#3d4db3" opacity="0.24"/>
  <line x1="339.7" y1="140.5" x2="446.0" y2="180.2" stroke="#3d4db3" stroke-width="1.5" opacity="0.26" stroke-linecap="round"/>
  <circle cx="446.0" cy="180.2" r="1.9" fill="#3d4db3" opacity="0.26"/>
  <line x1="337.8" y1="193.1" x2="478.7" y2="237.8" stroke="#3d4db3" stroke-width="1.5" opacity="0.26" stroke-linecap="round"/>
  <circle cx="478.7" cy="237.8" r="1.9" fill="#3d4db3" opacity="0.26"/>
  <line x1="340.1" y1="249.9" x2="453.5" y2="278.2" stroke="#3d4db3" stroke-width="1.5" opacity="0.26" stroke-linecap="round"/>
  <circle cx="453.5" cy="278.2" r="1.9" fill="#3d4db3" opacity="0.26"/>
  <line x1="332.2" y1="302.5" x2="472.3" y2="330.0" stroke="#3d4db3" stroke-width="1.5" opacity="0.26" stroke-linecap="round"/>
  <circle cx="472.3" cy="330.0" r="1.9" fill="#3d4db3" opacity="0.26"/>
  <line x1="342.2" y1="363.5" x2="437.8" y2="373.3" stroke="#3d4db3" stroke-width="1.5" opacity="0.26" stroke-linecap="round"/>
  <circle cx="437.8" cy="373.3" r="1.9" fill="#3d4db3" opacity="0.26"/>
  <line x1="341.8" y1="419.5" x2="435.3" y2="422.2" stroke="#3d4db3" stroke-width="1.5" opacity="0.26" stroke-linecap="round"/>
  <circle cx="435.3" cy="422.2" r="1.9" fill="#3d4db3" opacity="0.26"/>
  <line x1="335.4" y1="476.8" x2="468.3" y2="474.0" stroke="#3d4db3" stroke-width="1.5" opacity="0.26" stroke-linecap="round"/>
  <circle cx="468.3" cy="474.0" r="1.9" fill="#3d4db3" opacity="0.26"/>
  <line x1="337.6" y1="530.5" x2="460.7" y2="516.8" stroke="#3d4db3" stroke-width="1.5" opacity="0.26" stroke-linecap="round"/>
  <circle cx="460.7" cy="516.8" r="1.9" fill="#3d4db3" opacity="0.26"/>
  <line x1="334.8" y1="590.1" x2="438.5" y2="572.6" stroke="#3d4db3" stroke-width="1.5" opacity="0.26" stroke-linecap="round"/>
  <circle cx="438.5" cy="572.6" r="1.9" fill="#3d4db3" opacity="0.26"/>
  <line x1="338.2" y1="652.4" x2="425.2" y2="629.4" stroke="#3d4db3" stroke-width="1.5" opacity="0.26" stroke-linecap="round"/>
  <circle cx="425.2" cy="629.4" r="1.9" fill="#3d4db3" opacity="0.26"/>
  <line x1="337.0" y1="707.2" x2="429.4" y2="677.8" stroke="#3d4db3" stroke-width="1.5" opacity="0.26" stroke-linecap="round"/>
  <circle cx="429.4" cy="677.8" r="1.9" fill="#3d4db3" opacity="0.26"/>
  <line x1="383.6" y1="132.7" x2="528.6" y2="193.7" stroke="#3d4db3" stroke-width="1.6" opacity="0.28" stroke-linecap="round"/>
  <circle cx="528.6" cy="193.7" r="1.9" fill="#3d4db3" opacity="0.28"/>
  <line x1="393.1" y1="188.3" x2="542.9" y2="243.4" stroke="#3d4db3" stroke-width="1.6" opacity="0.28" stroke-linecap="round"/>
  <circle cx="542.9" cy="243.4" r="1.9" fill="#3d4db3" opacity="0.28"/>
  <line x1="392.8" y1="252.6" x2="480.8" y2="276.8" stroke="#3d4db3" stroke-width="1.6" opacity="0.28" stroke-linecap="round"/>
  <circle cx="480.8" cy="276.8" r="1.9" fill="#3d4db3" opacity="0.28"/>
  <line x1="386.3" y1="308.2" x2="500.1" y2="330.4" stroke="#3d4db3" stroke-width="1.6" opacity="0.28" stroke-linecap="round"/>
  <circle cx="500.1" cy="330.4" r="1.9" fill="#3d4db3" opacity="0.28"/>
  <line x1="386.2" y1="369.5" x2="523.3" y2="381.9" stroke="#3d4db3" stroke-width="1.6" opacity="0.28" stroke-linecap="round"/>
  <circle cx="523.3" cy="381.9" r="1.9" fill="#3d4db3" opacity="0.28"/>
  <line x1="391.1" y1="415.5" x2="503.8" y2="419.0" stroke="#3d4db3" stroke-width="1.6" opacity="0.28" stroke-linecap="round"/>
  <circle cx="503.8" cy="419.0" r="1.9" fill="#3d4db3" opacity="0.28"/>
  <line x1="383.3" y1="475.7" x2="510.2" y2="471.6" stroke="#3d4db3" stroke-width="1.6" opacity="0.28" stroke-linecap="round"/>
  <circle cx="510.2" cy="471.6" r="1.9" fill="#3d4db3" opacity="0.28"/>
  <line x1="393.9" y1="531.0" x2="493.2" y2="518.6" stroke="#3d4db3" stroke-width="1.6" opacity="0.28" stroke-linecap="round"/>
  <circle cx="493.2" cy="518.6" r="1.9" fill="#3d4db3" opacity="0.28"/>
  <line x1="384.3" y1="591.1" x2="479.7" y2="572.6" stroke="#3d4db3" stroke-width="1.6" opacity="0.28" stroke-linecap="round"/>
  <circle cx="479.7" cy="572.6" r="1.9" fill="#3d4db3" opacity="0.28"/>
  <line x1="387.5" y1="648.2" x2="509.7" y2="616.8" stroke="#3d4db3" stroke-width="1.6" opacity="0.28" stroke-linecap="round"/>
  <circle cx="509.7" cy="616.8" r="1.9" fill="#3d4db3" opacity="0.28"/>
  <line x1="393.3" y1="709.8" x2="509.4" y2="670.8" stroke="#3d4db3" stroke-width="1.6" opacity="0.28" stroke-linecap="round"/>
  <circle cx="509.4" cy="670.8" r="1.9" fill="#3d4db3" opacity="0.28"/>
  <line x1="437.0" y1="138.4" x2="546.8" y2="187.4" stroke="#3d4db3" stroke-width="1.7" opacity="0.30" stroke-linecap="round"/>
  <circle cx="546.8" cy="187.4" r="2.0" fill="#3d4db3" opacity="0.30"/>
  <line x1="439.5" y1="196.7" x2="551.7" y2="237.4" stroke="#3d4db3" stroke-width="1.7" opacity="0.30" stroke-linecap="round"/>
  <circle cx="551.7" cy="237.4" r="2.0" fill="#3d4db3" opacity="0.30"/>
  <line x1="436.7" y1="252.9" x2="573.1" y2="288.4" stroke="#3d4db3" stroke-width="1.7" opacity="0.30" stroke-linecap="round"/>
  <circle cx="573.1" cy="288.4" r="2.0" fill="#3d4db3" opacity="0.30"/>
  <line x1="435.2" y1="306.3" x2="551.2" y2="327.1" stroke="#3d4db3" stroke-width="1.7" opacity="0.30" stroke-linecap="round"/>
  <circle cx="551.2" cy="327.1" r="2.0" fill="#3d4db3" opacity="0.30"/>
  <line x1="437.4" y1="358.1" x2="548.7" y2="373.5" stroke="#3d4db3" stroke-width="1.7" opacity="0.30" stroke-linecap="round"/>
  <circle cx="548.7" cy="373.5" r="2.0" fill="#3d4db3" opacity="0.30"/>
  <line x1="434.3" y1="421.3" x2="525.4" y2="425.2" stroke="#3d4db3" stroke-width="1.7" opacity="0.30" stroke-linecap="round"/>
  <circle cx="525.4" cy="425.2" r="2.0" fill="#3d4db3" opacity="0.30"/>
  <line x1="443.4" y1="477.8" x2="539.3" y2="475.1" stroke="#3d4db3" stroke-width="1.7" opacity="0.30" stroke-linecap="round"/>
  <circle cx="539.3" cy="475.1" r="2.0" fill="#3d4db3" opacity="0.30"/>
  <line x1="445.6" y1="539.5" x2="555.7" y2="524.6" stroke="#3d4db3" stroke-width="1.7" opacity="0.30" stroke-linecap="round"/>
  <circle cx="555.7" cy="524.6" r="2.0" fill="#3d4db3" opacity="0.30"/>
  <line x1="438.6" y1="598.1" x2="555.5" y2="575.8" stroke="#3d4db3" stroke-width="1.7" opacity="0.30" stroke-linecap="round"/>
  <circle cx="555.5" cy="575.8" r="2.0" fill="#3d4db3" opacity="0.30"/>
  <line x1="438.6" y1="653.9" x2="563.9" y2="619.0" stroke="#3d4db3" stroke-width="1.7" opacity="0.30" stroke-linecap="round"/>
  <circle cx="563.9" cy="619.0" r="2.0" fill="#3d4db3" opacity="0.30"/>
  <line x1="441.1" y1="705.9" x2="554.7" y2="663.3" stroke="#3d4db3" stroke-width="1.7" opacity="0.30" stroke-linecap="round"/>
  <circle cx="554.7" cy="663.3" r="2.0" fill="#3d4db3" opacity="0.30"/>
  <line x1="490.0" y1="130.1" x2="571.7" y2="168.5" stroke="#3d4db3" stroke-width="1.8" opacity="0.32" stroke-linecap="round"/>
  <circle cx="571.7" cy="168.5" r="2.1" fill="#3d4db3" opacity="0.32"/>
  <line x1="497.2" y1="193.7" x2="643.1" y2="250.0" stroke="#3d4db3" stroke-width="1.8" opacity="0.32" stroke-linecap="round"/>
  <circle cx="643.1" cy="250.0" r="2.1" fill="#3d4db3" opacity="0.32"/>
  <line x1="488.3" y1="252.2" x2="631.2" y2="293.8" stroke="#3d4db3" stroke-width="1.8" opacity="0.32" stroke-linecap="round"/>
  <circle cx="631.2" cy="293.8" r="2.1" fill="#3d4db3" opacity="0.32"/>
  <line x1="486.6" y1="302.4" x2="633.2" y2="337.6" stroke="#3d4db3" stroke-width="1.8" opacity="0.32" stroke-linecap="round"/>
  <circle cx="633.2" cy="337.6" r="2.1" fill="#3d4db3" opacity="0.32"/>
  <line x1="493.3" y1="358.2" x2="603.0" y2="372.3" stroke="#3d4db3" stroke-width="1.8" opacity="0.32" stroke-linecap="round"/>
  <circle cx="603.0" cy="372.3" r="2.1" fill="#3d4db3" opacity="0.32"/>
  <line x1="497.4" y1="415.5" x2="626.9" y2="420.9" stroke="#3d4db3" stroke-width="1.8" opacity="0.32" stroke-linecap="round"/>
  <circle cx="626.9" cy="420.9" r="2.1" fill="#3d4db3" opacity="0.32"/>
  <line x1="492.8" y1="474.1" x2="589.2" y2="470.4" stroke="#3d4db3" stroke-width="1.8" opacity="0.32" stroke-linecap="round"/>
  <circle cx="589.2" cy="470.4" r="2.1" fill="#3d4db3" opacity="0.32"/>
  <line x1="491.4" y1="530.3" x2="629.1" y2="514.9" stroke="#3d4db3" stroke-width="1.8" opacity="0.32" stroke-linecap="round"/>
  <circle cx="629.1" cy="514.9" r="2.1" fill="#3d4db3" opacity="0.32"/>
  <line x1="496.8" y1="590.8" x2="633.4" y2="563.2" stroke="#3d4db3" stroke-width="1.8" opacity="0.32" stroke-linecap="round"/>
  <circle cx="633.4" cy="563.2" r="2.1" fill="#3d4db3" opacity="0.32"/>
  <line x1="485.6" y1="646.0" x2="622.8" y2="605.3" stroke="#3d4db3" stroke-width="1.8" opacity="0.32" stroke-linecap="round"/>
  <circle cx="622.8" cy="605.3" r="2.1" fill="#3d4db3" opacity="0.32"/>
  <line x1="492.4" y1="711.0" x2="591.9" y2="674.4" stroke="#3d4db3" stroke-width="1.8" opacity="0.32" stroke-linecap="round"/>
  <circle cx="591.9" cy="674.4" r="2.1" fill="#3d4db3" opacity="0.32"/>
  <line x1="539.0" y1="137.1" x2="639.5" y2="190.6" stroke="#3d4db3" stroke-width="1.9" opacity="0.34" stroke-linecap="round"/>
  <circle cx="639.5" cy="190.6" r="2.1" fill="#3d4db3" opacity="0.34"/>
  <line x1="541.5" y1="189.3" x2="684.0" y2="253.9" stroke="#3d4db3" stroke-width="1.9" opacity="0.34" stroke-linecap="round"/>
  <circle cx="684.0" cy="253.9" r="2.1" fill="#3d4db3" opacity="0.34"/>
  <line x1="536.9" y1="247.3" x2="686.9" y2="299.8" stroke="#3d4db3" stroke-width="1.9" opacity="0.34" stroke-linecap="round"/>
  <circle cx="686.9" cy="299.8" r="2.1" fill="#3d4db3" opacity="0.34"/>
  <line x1="546.0" y1="303.3" x2="671.1" y2="335.2" stroke="#3d4db3" stroke-width="1.9" opacity="0.34" stroke-linecap="round"/>
  <circle cx="671.1" cy="335.2" r="2.1" fill="#3d4db3" opacity="0.34"/>
  <line x1="546.6" y1="364.8" x2="687.4" y2="387.1" stroke="#3d4db3" stroke-width="1.9" opacity="0.34" stroke-linecap="round"/>
  <circle cx="687.4" cy="387.1" r="2.1" fill="#3d4db3" opacity="0.34"/>
  <line x1="546.9" y1="424.3" x2="639.8" y2="428.7" stroke="#3d4db3" stroke-width="1.9" opacity="0.34" stroke-linecap="round"/>
  <circle cx="639.8" cy="428.7" r="2.1" fill="#3d4db3" opacity="0.34"/>
  <line x1="546.3" y1="484.5" x2="666.9" y2="477.3" stroke="#3d4db3" stroke-width="1.9" opacity="0.34" stroke-linecap="round"/>
  <circle cx="666.9" cy="477.3" r="2.1" fill="#3d4db3" opacity="0.34"/>
  <line x1="541.4" y1="531.7" x2="647.2" y2="516.1" stroke="#3d4db3" stroke-width="1.9" opacity="0.34" stroke-linecap="round"/>
  <circle cx="647.2" cy="516.1" r="2.1" fill="#3d4db3" opacity="0.34"/>
  <line x1="538.9" y1="589.0" x2="659.5" y2="559.7" stroke="#3d4db3" stroke-width="1.9" opacity="0.34" stroke-linecap="round"/>
  <circle cx="659.5" cy="559.7" r="2.1" fill="#3d4db3" opacity="0.34"/>
  <line x1="540.9" y1="645.7" x2="631.0" y2="615.8" stroke="#3d4db3" stroke-width="1.9" opacity="0.34" stroke-linecap="round"/>
  <circle cx="631.0" cy="615.8" r="2.1" fill="#3d4db3" opacity="0.34"/>
  <line x1="538.8" y1="702.9" x2="654.8" y2="654.3" stroke="#3d4db3" stroke-width="1.9" opacity="0.34" stroke-linecap="round"/>
  <circle cx="654.8" cy="654.3" r="2.1" fill="#3d4db3" opacity="0.34"/>
  <line x1="589.2" y1="136.2" x2="692.1" y2="194.6" stroke="#3d4db3" stroke-width="2.0" opacity="0.36" stroke-linecap="round"/>
  <circle cx="692.1" cy="194.6" r="2.2" fill="#3d4db3" opacity="0.36"/>
  <line x1="594.3" y1="193.9" x2="708.3" y2="250.2" stroke="#3d4db3" stroke-width="2.0" opacity="0.36" stroke-linecap="round"/>
  <circle cx="708.3" cy="250.2" r="2.2" fill="#3d4db3" opacity="0.36"/>
  <line x1="591.3" y1="249.3" x2="718.3" y2="293.6" stroke="#3d4db3" stroke-width="2.0" opacity="0.36" stroke-linecap="round"/>
  <circle cx="718.3" cy="293.6" r="2.2" fill="#3d4db3" opacity="0.36"/>
  <line x1="596.1" y1="303.1" x2="742.0" y2="342.5" stroke="#3d4db3" stroke-width="2.0" opacity="0.36" stroke-linecap="round"/>
  <circle cx="742.0" cy="342.5" r="2.2" fill="#3d4db3" opacity="0.36"/>
  <line x1="592.5" y1="366.0" x2="744.0" y2="390.6" stroke="#3d4db3" stroke-width="2.0" opacity="0.36" stroke-linecap="round"/>
  <circle cx="744.0" cy="390.6" r="2.2" fill="#3d4db3" opacity="0.36"/>
  <line x1="596.9" y1="420.1" x2="736.1" y2="429.1" stroke="#3d4db3" stroke-width="2.0" opacity="0.36" stroke-linecap="round"/>
  <circle cx="736.1" cy="429.1" r="2.2" fill="#3d4db3" opacity="0.36"/>
  <line x1="600.0" y1="472.7" x2="758.3" y2="467.2" stroke="#3d4db3" stroke-width="2.0" opacity="0.36" stroke-linecap="round"/>
  <circle cx="758.3" cy="467.2" r="2.2" fill="#3d4db3" opacity="0.36"/>
  <line x1="600.1" y1="533.1" x2="708.6" y2="518.0" stroke="#3d4db3" stroke-width="2.0" opacity="0.36" stroke-linecap="round"/>
  <circle cx="708.6" cy="518.0" r="2.2" fill="#3d4db3" opacity="0.36"/>
  <line x1="596.3" y1="598.2" x2="736.4" y2="557.5" stroke="#3d4db3" stroke-width="2.0" opacity="0.36" stroke-linecap="round"/>
  <circle cx="736.4" cy="557.5" r="2.2" fill="#3d4db3" opacity="0.36"/>
  <line x1="589.9" y1="645.9" x2="728.9" y2="600.8" stroke="#3d4db3" stroke-width="2.0" opacity="0.36" stroke-linecap="round"/>
  <circle cx="728.9" cy="600.8" r="2.2" fill="#3d4db3" opacity="0.36"/>
  <line x1="593.9" y1="708.2" x2="721.4" y2="647.2" stroke="#3d4db3" stroke-width="2.0" opacity="0.36" stroke-linecap="round"/>
  <circle cx="721.4" cy="647.2" r="2.2" fill="#3d4db3" opacity="0.36"/>
  <line x1="641.6" y1="130.6" x2="718.3" y2="178.2" stroke="#3d4db3" stroke-width="2.1" opacity="0.38" stroke-linecap="round"/>
  <circle cx="718.3" cy="178.2" r="2.3" fill="#3d4db3" opacity="0.38"/>
  <line x1="642.2" y1="193.7" x2="749.3" y2="248.0" stroke="#3d4db3" stroke-width="2.1" opacity="0.38" stroke-linecap="round"/>
  <circle cx="749.3" cy="248.0" r="2.3" fill="#3d4db3" opacity="0.38"/>
  <line x1="650.5" y1="250.2" x2="756.4" y2="294.0" stroke="#3d4db3" stroke-width="2.1" opacity="0.38" stroke-linecap="round"/>
  <circle cx="756.4" cy="294.0" r="2.3" fill="#3d4db3" opacity="0.38"/>
  <line x1="643.2" y1="302.3" x2="756.7" y2="334.1" stroke="#3d4db3" stroke-width="2.1" opacity="0.38" stroke-linecap="round"/>
  <circle cx="756.7" cy="334.1" r="2.3" fill="#3d4db3" opacity="0.38"/>
  <line x1="643.0" y1="365.2" x2="797.2" y2="389.4" stroke="#3d4db3" stroke-width="2.1" opacity="0.38" stroke-linecap="round"/>
  <circle cx="797.2" cy="389.4" r="2.3" fill="#3d4db3" opacity="0.38"/>
  <line x1="644.0" y1="420.2" x2="748.8" y2="428.6" stroke="#3d4db3" stroke-width="2.1" opacity="0.38" stroke-linecap="round"/>
  <circle cx="748.8" cy="428.6" r="2.3" fill="#3d4db3" opacity="0.38"/>
  <line x1="641.5" y1="484.3" x2="736.1" y2="479.6" stroke="#3d4db3" stroke-width="2.1" opacity="0.38" stroke-linecap="round"/>
  <circle cx="736.1" cy="479.6" r="2.3" fill="#3d4db3" opacity="0.38"/>
  <line x1="644.7" y1="531.3" x2="763.5" y2="513.4" stroke="#3d4db3" stroke-width="2.1" opacity="0.38" stroke-linecap="round"/>
  <circle cx="763.5" cy="513.4" r="2.3" fill="#3d4db3" opacity="0.38"/>
  <line x1="650.8" y1="589.2" x2="765.2" y2="556.7" stroke="#3d4db3" stroke-width="2.1" opacity="0.38" stroke-linecap="round"/>
  <circle cx="765.2" cy="556.7" r="2.3" fill="#3d4db3" opacity="0.38"/>
  <line x1="649.3" y1="653.6" x2="739.7" y2="618.9" stroke="#3d4db3" stroke-width="2.1" opacity="0.38" stroke-linecap="round"/>
  <circle cx="739.7" cy="618.9" r="2.3" fill="#3d4db3" opacity="0.38"/>
  <line x1="648.5" y1="705.0" x2="790.6" y2="636.6" stroke="#3d4db3" stroke-width="2.1" opacity="0.38" stroke-linecap="round"/>
  <circle cx="790.6" cy="636.6" r="2.3" fill="#3d4db3" opacity="0.38"/>
  <line x1="699.3" y1="140.2" x2="773.7" y2="193.8" stroke="#3d4db3" stroke-width="2.2" opacity="0.40" stroke-linecap="round"/>
  <circle cx="773.7" cy="193.8" r="2.4" fill="#3d4db3" opacity="0.40"/>
  <line x1="695.3" y1="193.2" x2="806.9" y2="259.6" stroke="#3d4db3" stroke-width="2.2" opacity="0.40" stroke-linecap="round"/>
  <circle cx="806.9" cy="259.6" r="2.4" fill="#3d4db3" opacity="0.40"/>
  <line x1="694.6" y1="245.4" x2="817.8" y2="300.6" stroke="#3d4db3" stroke-width="2.2" opacity="0.40" stroke-linecap="round"/>
  <circle cx="817.8" cy="300.6" r="2.4" fill="#3d4db3" opacity="0.40"/>
  <line x1="699.6" y1="310.1" x2="794.4" y2="340.0" stroke="#3d4db3" stroke-width="2.2" opacity="0.40" stroke-linecap="round"/>
  <circle cx="794.4" cy="340.0" r="2.4" fill="#3d4db3" opacity="0.40"/>
  <line x1="701.4" y1="364.2" x2="829.0" y2="387.2" stroke="#3d4db3" stroke-width="2.2" opacity="0.40" stroke-linecap="round"/>
  <circle cx="829.0" cy="387.2" r="2.4" fill="#3d4db3" opacity="0.40"/>
  <line x1="693.3" y1="425.4" x2="820.6" y2="434.1" stroke="#3d4db3" stroke-width="2.2" opacity="0.40" stroke-linecap="round"/>
  <circle cx="820.6" cy="434.1" r="2.4" fill="#3d4db3" opacity="0.40"/>
  <line x1="692.3" y1="482.0" x2="839.6" y2="471.2" stroke="#3d4db3" stroke-width="2.2" opacity="0.40" stroke-linecap="round"/>
  <circle cx="839.6" cy="471.2" r="2.4" fill="#3d4db3" opacity="0.40"/>
  <line x1="696.2" y1="537.4" x2="796.3" y2="517.4" stroke="#3d4db3" stroke-width="2.2" opacity="0.40" stroke-linecap="round"/>
  <circle cx="796.3" cy="517.4" r="2.4" fill="#3d4db3" opacity="0.40"/>
  <line x1="697.0" y1="592.1" x2="833.0" y2="553.5" stroke="#3d4db3" stroke-width="2.2" opacity="0.40" stroke-linecap="round"/>
  <circle cx="833.0" cy="553.5" r="2.4" fill="#3d4db3" opacity="0.40"/>
  <line x1="702.3" y1="644.9" x2="797.8" y2="607.6" stroke="#3d4db3" stroke-width="2.2" opacity="0.40" stroke-linecap="round"/>
  <circle cx="797.8" cy="607.6" r="2.4" fill="#3d4db3" opacity="0.40"/>
  <line x1="692.6" y1="701.9" x2="799.6" y2="641.4" stroke="#3d4db3" stroke-width="2.2" opacity="0.40" stroke-linecap="round"/>
  <circle cx="799.6" cy="641.4" r="2.4" fill="#3d4db3" opacity="0.40"/>
  <line x1="746.1" y1="140.4" x2="837.4" y2="205.7" stroke="#3d4db3" stroke-width="2.3" opacity="0.42" stroke-linecap="round"/>
  <circle cx="837.4" cy="205.7" r="2.4" fill="#3d4db3" opacity="0.42"/>
  <line x1="746.0" y1="193.7" x2="838.9" y2="252.0" stroke="#3d4db3" stroke-width="2.3" opacity="0.42" stroke-linecap="round"/>
  <circle cx="838.9" cy="252.0" r="2.4" fill="#3d4db3" opacity="0.42"/>
  <line x1="743.1" y1="252.7" x2="859.3" y2="306.6" stroke="#3d4db3" stroke-width="2.3" opacity="0.42" stroke-linecap="round"/>
  <circle cx="859.3" cy="306.6" r="2.4" fill="#3d4db3" opacity="0.42"/>
  <line x1="750.7" y1="307.3" x2="860.4" y2="345.3" stroke="#3d4db3" stroke-width="2.3" opacity="0.42" stroke-linecap="round"/>
  <circle cx="860.4" cy="345.3" r="2.4" fill="#3d4db3" opacity="0.42"/>
  <line x1="745.7" y1="365.5" x2="848.9" y2="384.0" stroke="#3d4db3" stroke-width="2.3" opacity="0.42" stroke-linecap="round"/>
  <circle cx="848.9" cy="384.0" r="2.4" fill="#3d4db3" opacity="0.42"/>
  <line x1="745.8" y1="426.9" x2="869.1" y2="431.0" stroke="#3d4db3" stroke-width="2.3" opacity="0.42" stroke-linecap="round"/>
  <circle cx="869.1" cy="431.0" r="2.4" fill="#3d4db3" opacity="0.42"/>
  <line x1="751.3" y1="475.9" x2="909.5" y2="465.9" stroke="#3d4db3" stroke-width="2.3" opacity="0.42" stroke-linecap="round"/>
  <circle cx="909.5" cy="465.9" r="2.4" fill="#3d4db3" opacity="0.42"/>
  <line x1="753.6" y1="531.3" x2="846.1" y2="514.0" stroke="#3d4db3" stroke-width="2.3" opacity="0.42" stroke-linecap="round"/>
  <circle cx="846.1" cy="514.0" r="2.4" fill="#3d4db3" opacity="0.42"/>
  <line x1="753.2" y1="595.3" x2="862.0" y2="559.9" stroke="#3d4db3" stroke-width="2.3" opacity="0.42" stroke-linecap="round"/>
  <circle cx="862.0" cy="559.9" r="2.4" fill="#3d4db3" opacity="0.42"/>
  <line x1="748.8" y1="647.1" x2="844.0" y2="601.4" stroke="#3d4db3" stroke-width="2.3" opacity="0.42" stroke-linecap="round"/>
  <circle cx="844.0" cy="601.4" r="2.4" fill="#3d4db3" opacity="0.42"/>
  <line x1="746.8" y1="704.1" x2="876.1" y2="621.7" stroke="#3d4db3" stroke-width="2.3" opacity="0.42" stroke-linecap="round"/>
  <circle cx="876.1" cy="621.7" r="2.4" fill="#3d4db3" opacity="0.42"/>
  <circle cx="1152" cy="450" r="6" fill="#3d4db3" opacity="0.9"/>
  <circle cx="1152" cy="450" r="28" fill="none" stroke="#3d4db3" stroke-width="1.5" opacity="0.25"/>
</svg>