<svg xmlns="http://www.w3.org/2000/svg" viewBox="0 0 1920 1080" width="1920" height="1080" role="img" aria-labelledby="hyper-ribbon-title">
  <title id="hyper-ribbon-title">Hyper-ribbon manifold</title>
  <rect width="1920" height="1080" fill="#faf9f6"/>
  <line x1="1700.9" y1="883.0" x2="1774.4" y2="890.4" stroke="#3d4db3" stroke-width="1.2" opacity="0.20"/>
  <line x1="1384.4" y1="643.6" x2="1406.9" y2="645.3" stroke="#3d4db3" stroke-width="1.2" opacity="0.23"/>
  <line x1="1363.7" y1="347.3" x2="1419.1" y2="357.1" stroke="#3d4db3" stroke-width="1.2" opacity="0.26"/>
  <line x1="1715.8" y1="197.3" x2="1743.4" y2="198.8" stroke="#3d4db3" stroke-width="1.2" opacity="0.24"/>
  <line x1="313.4" y1="477.0" x2="352.2" y2="476.9" stroke="#3d4db3" stroke-width="1.2" opacity="0.21"/>
  <line x1="77.9" y1="589.8" x2="143.2" y2="588.2" stroke="#3d4db3" stroke-width="1.2" opacity="0.22"/>
  <line x1="233.0" y1="979.0" x2="277.9" y2="973.5" stroke="#3d4db3" stroke-width="1.2" opacity="0.24"/>
  <line x1="358.0" y1="367.9" x2="421.6" y2="362.9" stroke="#3d4db3" stroke-width="1.2" opacity="0.12"/>
  <line x1="1881.0" y1="199.9" x2="1932.4" y2="209.0" stroke="#3d4db3" stroke-width="1.2" opacity="0.16"/>
  <line x1="1252.4" y1="78.2" x2="1276.1" y2="77.5" stroke="#3d4db3" stroke-width="1.2" opacity="0.23"/>
  <line x1="1678.1" y1="406.3" x2="1723.3" y2="400.4" stroke="#3d4db3" stroke-width="1.2" opacity="0.25"/>
  <line x1="1173.0" y1="347.5" x2="1224.9" y2="348.6" stroke="#3d4db3" stroke-width="1.2" opacity="0.23"/>
  <line x1="1094.0" y1="825.0" x2="1172.8" y2="823.9" stroke="#3d4db3" stroke-width="1.2" opacity="0.21"/>
  <line x1="593.8" y1="682.2" x2="644.5" y2="676.3" stroke="#3d4db3" stroke-width="1.2" opacity="0.19"/>
  <line x1="33.8" y1="42.5" x2="81.0" y2="40.4" stroke="#3d4db3" stroke-width="1.2" opacity="0.16"/>
  <line x1="1837.8" y1="69.2" x2="1876.4" y2="67.7" stroke="#3d4db3" stroke-width="1.2" opacity="0.19"/>
  <line x1="1105.0" y1="205.6" x2="1131.1" y2="205.4" stroke="#3d4db3" stroke-width="1.2" opacity="0.23"/>
  <line x1="543.6" y1="455.1" x2="595.0" y2="454.4" stroke="#3d4db3" stroke-width="1.2" opacity="0.24"/>
  <line x1="1723.9" y1="61.0" x2="1751.8" y2="58.9" stroke="#3d4db3" stroke-width="1.2" opacity="0.19"/>
  <line x1="1451.8" y1="146.5" x2="1477.5" y2="142.3" stroke="#3d4db3" stroke-width="1.2" opacity="0.24"/>
  <line x1="942.2" y1="595.2" x2="1002.7" y2="604.8" stroke="#3d4db3" stroke-width="1.2" opacity="0.20"/>
  <line x1="912.1" y1="890.2" x2="963.3" y2="885.4" stroke="#3d4db3" stroke-width="1.2" opacity="0.21"/>
  <line x1="1794.1" y1="594.9" x2="1855.8" y2="585.7" stroke="#3d4db3" stroke-width="1.2" opacity="0.23"/>
  <line x1="1389.7" y1="552.7" x2="1430.7" y2="557.3" stroke="#3d4db3" stroke-width="1.2" opacity="0.20"/>
  <line x1="1482.6" y1="486.9" x2="1539.7" y2="483.6" stroke="#3d4db3" stroke-width="1.2" opacity="0.13"/>
  <line x1="372.0" y1="560.8" x2="401.8" y2="562.3" stroke="#3d4db3" stroke-width="1.2" opacity="0.22"/>
  <line x1="126.2" y1="417.8" x2="165.7" y2="413.5" stroke="#3d4db3" stroke-width="1.2" opacity="0.24"/>
  <line x1="1675.3" y1="21.2" x2="1722.1" y2="23.8" stroke="#3d4db3" stroke-width="1.2" opacity="0.25"/>
  <line x1="1185.5" y1="134.2" x2="1221.7" y2="137.5" stroke="#3d4db3" stroke-width="1.2" opacity="0.22"/>
  <line x1="1151.5" y1="280.4" x2="1216.6" y2="273.9" stroke="#3d4db3" stroke-width="1.2" opacity="0.20"/>
  <line x1="1650.3" y1="662.9" x2="1676.1" y2="660.7" stroke="#3d4db3" stroke-width="1.2" opacity="0.14"/>
  <line x1="554.5" y1="485.1" x2="591.6" y2="485.4" stroke="#3d4db3" stroke-width="1.2" opacity="0.24"/>
  <line x1="785.7" y1="230.4" x2="844.5" y2="240.9" stroke="#3d4db3" stroke-width="1.2" opacity="0.23"/>
  <line x1="1567.4" y1="342.1" x2="1626.1" y2="337.1" stroke="#3d4db3" stroke-width="1.2" opacity="0.25"/>
  <line x1="559.1" y1="623.5" x2="587.0" y2="618.3" stroke="#3d4db3" stroke-width="1.2" opacity="0.14"/>
  <line x1="1108.8" y1="358.0" x2="1155.0" y2="357.0" stroke="#3d4db3" stroke-width="1.2" opacity="0.20"/>
  <line x1="1586.8" y1="228.9" x2="1620.5" y2="231.8" stroke="#3d4db3" stroke-width="1.2" opacity="0.16"/>
  <line x1="1359.2" y1="639.4" x2="1389.1" y2="638.2" stroke="#3d4db3" stroke-width="1.2" opacity="0.23"/>
  <line x1="360.7" y1="753.1" x2="424.4" y2="759.9" stroke="#3d4db3" stroke-width="1.2" opacity="0.13"/>
  <line x1="1868.4" y1="413.1" x2="1938.8" y2="420.0" stroke="#3d4db3" stroke-width="1.2" opacity="0.18"/>
  <line x1="1194.9" y1="622.9" x2="1228.4" y2="624.7" stroke="#3d4db3" stroke-width="1.2" opacity="0.24"/>
  <line x1="621.6" y1="425.7" x2="688.8" y2="414.4" stroke="#3d4db3" stroke-width="1.2" opacity="0.16"/>
  <line x1="652.3" y1="984.8" x2="714.7" y2="983.1" stroke="#3d4db3" stroke-width="1.2" opacity="0.15"/>
  <line x1="226.1" y1="663.8" x2="269.7" y2="670.8" stroke="#3d4db3" stroke-width="1.2" opacity="0.17"/>
  <line x1="131.3" y1="545.7" x2="210.2" y2="542.7" stroke="#3d4db3" stroke-width="1.2" opacity="0.16"/>
  <line x1="18.3" y1="954.1" x2="80.3" y2="961.2" stroke="#3d4db3" stroke-width="1.2" opacity="0.25"/>
  <line x1="532.9" y1="852.2" x2="553.3" y2="850.3" stroke="#3d4db3" stroke-width="1.2" opacity="0.17"/>
  <line x1="970.0" y1="123.3" x2="988.8" y2="125.6" stroke="#3d4db3" stroke-width="1.2" opacity="0.16"/>
  <line x1="126.6" y1="410.8" x2="151.5" y2="415.8" stroke="#3d4db3" stroke-width="1.2" opacity="0.20"/>
  <line x1="355.3" y1="198.1" x2="426.4" y2="204.9" stroke="#3d4db3" stroke-width="1.2" opacity="0.13"/>
  <line x1="1377.5" y1="328.4" x2="1401.6" y2="327.8" stroke="#3d4db3" stroke-width="1.2" opacity="0.15"/>
  <line x1="1137.1" y1="525.1" x2="1204.5" y2="513.2" stroke="#3d4db3" stroke-width="1.2" opacity="0.16"/>
  <line x1="1773.2" y1="951.5" x2="1807.9" y2="951.6" stroke="#3d4db3" stroke-width="1.2" opacity="0.19"/>
  <line x1="1513.9" y1="170.9" x2="1549.5" y2="168.7" stroke="#3d4db3" stroke-width="1.2" opacity="0.16"/>
  <line x1="1289.8" y1="306.8" x2="1322.0" y2="301.7" stroke="#3d4db3" stroke-width="1.2" opacity="0.13"/>
  <line x1="1106.6" y1="1042.4" x2="1132.6" y2="1043.3" stroke="#3d4db3" stroke-width="1.2" opacity="0.22"/>
  <line x1="1539.3" y1="821.0" x2="1600.6" y2="822.8" stroke="#3d4db3" stroke-width="1.2" opacity="0.19"/>
  <line x1="744.7" y1="926.0" x2="772.1" y2="922.8" stroke="#3d4db3" stroke-width="1.2" opacity="0.13"/>
  <line x1="435.6" y1="560.8" x2="483.7" y2="553.3" stroke="#3d4db3" stroke-width="1.2" opacity="0.23"/>
  <line x1="1613.4" y1="208.6" x2="1657.0" y2="204.9" stroke="#3d4db3" stroke-width="1.2" opacity="0.25"/>
  <line x1="1581.9" y1="312.8" x2="1643.9" y2="311.0" stroke="#3d4db3" stroke-width="1.2" opacity="0.16"/>
  <line x1="1840.2" y1="676.7" x2="1896.7" y2="667.8" stroke="#3d4db3" stroke-width="1.2" opacity="0.24"/>
  <line x1="1896.5" y1="583.6" x2="1948.4" y2="583.5" stroke="#3d4db3" stroke-width="1.2" opacity="0.22"/>
  <line x1="121.3" y1="717.0" x2="139.4" y2="719.6" stroke="#3d4db3" stroke-width="1.2" opacity="0.25"/>
  <line x1="1640.3" y1="400.1" x2="1698.8" y2="403.8" stroke="#3d4db3" stroke-width="1.2" opacity="0.26"/>
  <line x1="628.5" y1="956.2" x2="654.7" y2="954.5" stroke="#3d4db3" stroke-width="1.2" opacity="0.25"/>
  <line x1="362.9" y1="68.7" x2="390.3" y2="70.0" stroke="#3d4db3" stroke-width="1.2" opacity="0.26"/>
  <line x1="1916.0" y1="901.0" x2="1957.6" y2="907.8" stroke="#3d4db3" stroke-width="1.2" opacity="0.15"/>
  <line x1="1809.4" y1="336.3" x2="1841.4" y2="340.5" stroke="#3d4db3" stroke-width="1.2" opacity="0.20"/>
  <line x1="546.7" y1="618.0" x2="575.5" y2="620.8" stroke="#3d4db3" stroke-width="1.2" opacity="0.20"/>
  <line x1="907.2" y1="109.4" x2="935.0" y2="113.9" stroke="#3d4db3" stroke-width="1.2" opacity="0.22"/>
  <line x1="1759.1" y1="973.8" x2="1778.3" y2="971.2" stroke="#3d4db3" stroke-width="1.2" opacity="0.24"/>
  <line x1="832.7" y1="294.7" x2="865.0" y2="293.2" stroke="#3d4db3" stroke-width="1.2" opacity="0.22"/>
  <line x1="694.0" y1="275.3" x2="768.3" y2="281.7" stroke="#3d4db3" stroke-width="1.2" opacity="0.19"/>
  <line x1="637.8" y1="798.9" x2="686.9" y2="795.2" stroke="#3d4db3" stroke-width="1.2" opacity="0.23"/>
  <line x1="1381.0" y1="268.9" x2="1420.8" y2="269.5" stroke="#3d4db3" stroke-width="1.2" opacity="0.21"/>
  <line x1="1436.4" y1="408.7" x2="1505.7" y2="407.9" stroke="#3d4db3" stroke-width="1.2" opacity="0.21"/>
  <line x1="525.3" y1="981.5" x2="593.1" y2="978.7" stroke="#3d4db3" stroke-width="1.2" opacity="0.19"/>
  <line x1="431.5" y1="630.7" x2="487.4" y2="627.3" stroke="#3d4db3" stroke-width="1.2" opacity="0.16"/>
  <line x1="1374.3" y1="599.6" x2="1442.8" y2="591.9" stroke="#3d4db3" stroke-width="1.2" opacity="0.16"/>
  <line x1="1581.7" y1="531.6" x2="1661.0" y2="531.8" stroke="#3d4db3" stroke-width="1.2" opacity="0.12"/>
  <line x1="64.2" y1="389.9" x2="90.5" y2="393.5" stroke="#3d4db3" stroke-width="1.2" opacity="0.23"/>
  <line x1="667.7" y1="938.0" x2="695.6" y2="932.5" stroke="#3d4db3" stroke-width="1.2" opacity="0.19"/>
  <line x1="127.0" y1="619.1" x2="154.2" y2="621.5" stroke="#3d4db3" stroke-width="1.2" opacity="0.18"/>
  <line x1="439.2" y1="716.6" x2="458.3" y2="714.3" stroke="#3d4db3" stroke-width="1.2" opacity="0.16"/>
  <line x1="1396.7" y1="433.9" x2="1458.9" y2="446.5" stroke="#3d4db3" stroke-width="1.2" opacity="0.16"/>
  <line x1="161.2" y1="254.2" x2="198.6" y2="249.4" stroke="#3d4db3" stroke-width="1.2" opacity="0.24"/>
  <line x1="1716.3" y1="620.9" x2="1753.4" y2="619.4" stroke="#3d4db3" stroke-width="1.2" opacity="0.22"/>
  <line x1="1801.3" y1="257.3" x2="1823.4" y2="255.0" stroke="#3d4db3" stroke-width="1.2" opacity="0.24"/>
  <line x1="1844.3" y1="606.8" x2="1899.7" y2="614.5" stroke="#3d4db3" stroke-width="1.2" opacity="0.17"/>
  <path d="M 0.0 586.7 L 4.0 588.5 L 8.0 590.3 L 12.0 592.1 L 16.0 593.9 L 20.0 595.6 L 24.0 597.3 L 28.0 599.1 L 32.0 600.8 L 36.0 602.4 L 40.0 604.1 L 44.0 605.8 L 48.0 607.4 L 52.0 609.0 L 56.0 610.6 L 60.0 612.2 L 64.0 613.7 L 68.0 615.3 L 72.0 616.8 L 76.0 618.3 L 80.0 619.8 L 84.0 621.2 L 88.0 622.7 L 92.0 624.1 L 96.0 625.5 L 100.0 626.8 L 104.0 628.2 L 108.0 629.5 L 112.0 630.8 L 116.0 632.1 L 120.0 633.3 L 124.0 634.5 L 128.0 635.7 L 132.0 636.9 L 136.0 638.0 L 140.0 639.2 L 144.0 640.3 L 148.0 641.3 L 152.0 642.4 L 156.0 643.4 L 160.0 644.4 L 164.0 645.3 L 168.0 646.2 L 172.0 647.1 L 176.0 648.0 L 180.0 648.9 L 184.0 649.7 L 188.0 650.4 L 192.0 651.2 L 196.0 651.9 L 200.0 652.6 L 204.0 653.3 L 208.0 653.9 L 212.0 654.5 L 216.0 655.1 L 220.0 655.6 L 224.0 656.1 L 228.0 656.6 L 232.0 657.1 L 236.0 657.5 L 240.0 657.9 L 244.0 658.2 L 248.0 658.5 L 252.0 658.8 L 256.0 659.1 L 260.0 659.3 L 264.0 659.5 L 268.0 659.7 L 272.0 659.8 L 276.0 659.9 L 280.0 660.0 L 284.0 660.0 L 288.0 660.0 L 292.0 660.0 L 296.0 659.9 L 300.0 659.8 L 304.0 659.7 L 308.0 659.5 L 312.0 659.3 L 316.0 659.1 L 320.0 658.9 L 324.0 658.6 L 328.0 658.3 L 332.0 657.9 L 336.0 657.5 L 340.0 657.1 L 344.0 656.7 L 348.0 656.2 L 352.0 655.7 L 356.0 655.1 L 360.0 654.6 L 364.0 654.0 L 368.0 653.3 L 372.0 652.7 L 376.0 652.0 L 380.0 651.3 L 384.0 650.5 L 388.0 649.7 L 392.0 648.9 L 396.0 648.1 L 400.0 647.2 L 404.0 646.3 L 408.0 645.4 L 412.0 644.5 L 416.0 643.5 L 420.0 642.5 L 424.0 641.4 L 428.0 640.4 L 432.0 639.3 L 436.0 638.2 L 440.0 637.0 L 444.0 635.9 L 448.0 634.7 L 452.0 633.4 L 456.0 632.2 L 460.0 630.9 L 464.0 629.6 L 468.0 628.3 L 472.0 627.0 L 476.0 625.6 L 480.0 624.2 L 484.0 622.8 L 488.0 621.4 L 492.0 619.9 L 496.0 618.5 L 500.0 617.0 L 504.0 615.4 L 508.0 613.9 L 512.0 612.4 L 516.0 610.8 L 520.0 609.2 L 524.0 607.6 L 528.0 605.9 L 532.0 604.3 L 536.0 602.6 L 540.0 600.9 L 544.0 599.2 L 548.0 597.5 L 552.0 595.8 L 556.0 594.0 L 560.0 592.3 L 564.0 590.5 L 568.0 588.7 L 572.0 586.9 L 576.0 585.1 L 580.0 583.3 L 584.0 581.4 L 588.0 579.6 L 592.0 577.7 L 596.0 575.9 L 600.0 574.0 L 604.0 572.1 L 608.0 570.2 L 612.0 568.3 L 616.0 566.4 L 620.0 564.5 L 624.0 562.6 L 628.0 560.6 L 632.0 558.7 L 636.0 556.7 L 640.0 554.8 L 644.0 552.8 L 648.0 550.9 L 652.0 548.9 L 656.0 547.0 L 660.0 545.0 L 664.0 543.1 L 668.0 541.1 L 672.0 539.1 L 676.0 537.2 L 680.0 535.2 L 684.0 533.2 L 688.0 531.3 L 692.0 529.3 L 696.0 527.4 L 700.0 525.4 L 704.0 523.5 L 708.0 521.5 L 712.0 519.6 L 716.0 517.7 L 720.0 515.7 L 724.0 513.8 L 728.0 511.9 L 732.0 510.0 L 736.0 508.1 L 740.0 506.2 L 744.0 504.3 L 748.0 502.5 L 752.0 500.6 L 756.0 498.7 L 760.0 496.9 L 764.0 495.1 L 768.0 493.3 L 772.0 491.5 L 776.0 489.7 L 780.0 487.9 L 784.0 486.1 L 788.0 484.4 L 792.0 482.7 L 796.0 480.9 L 800.0 479.2 L 804.0 477.6 L 808.0 475.9 L 812.0 474.2 L 816.0 472.6 L 820.0 471.0 L 824.0 469.4 L 828.0 467.8 L 832.0 466.3 L 836.0 464.7 L 840.0 463.2 L 844.0 461.7 L 848.0 460.2 L 852.0 458.8 L 856.0 457.3 L 860.0 455.9 L 864.0 454.5 L 868.0 453.2 L 872.0 451.8 L 876.0 450.5 L 880.0 449.2 L 884.0 447.9 L 888.0 446.7 L 892.0 445.5 L 896.0 444.3 L 900.0 443.1 L 904.0 442.0 L 908.0 440.8 L 912.0 439.7 L 916.0 438.7 L 920.0 437.6 L 924.0 436.6 L 928.0 435.6 L 932.0 434.7 L 936.0 433.8 L 940.0 432.9 L 944.0 432.0 L 948.0 431.1 L 952.0 430.3 L 956.0 429.6 L 960.0 428.8 L 964.0 428.1 L 968.0 427.4 L 972.0 426.7 L 976.0 426.1 L 980.0 425.5 L 984.0 424.9 L 988.0 424.4 L 992.0 423.9 L 996.0 423.4 L 1000.0 422.9 L 1004.0 422.5 L 1008.0 422.1 L 1012.0 421.8 L 1016.0 421.5 L 1020.0 421.2 L 1024.0 420.9 L 1028.0 420.7 L 1032.0 420.5 L 1036.0 420.3 L 1040.0 420.2 L 1044.0 420.1 L 1048.0 420.0 L 1052.0 420.0 L 1056.0 420.0 L 1060.0 420.0 L 1064.0 420.1 L 1068.0 420.2 L 1072.0 420.3 L 1076.0 420.5 L 1080.0 420.7 L 1084.0 420.9 L 1088.0 421.1 L 1092.0 421.4 L 1096.0 421.7 L 1100.0 422.1 L 1104.0 422.5 L 1108.0 422.9 L 1112.0 423.3 L 1116.0 423.8 L 1120.0 424.3 L 1124.0 424.9 L 1128.0 425.4 L 1132.0 426.0 L 1136.0 426.7 L 1140.0 427.3 L 1144.0 428.0 L 1148.0 428.7 L 1152.0 429.5 L 1156.0 430.3 L 1160.0 431.1 L 1164.0 431.9 L 1168.0 432.8 L 1172.0 433.7 L 1176.0 434.6 L 1180.0 435.5 L 1184.0 436.5 L 1188.0 437.5 L 1192.0 438.6 L 1196.0 439.6 L 1200.0 440.7 L 1204.0 441.8 L 1208.0 443.0 L 1212.0 444.1 L 1216.0 445.3 L 1220.0 446.6 L 1224.0 447.8 L 1228.0 449.1 L 1232.0 450.4 L 1236.0 451.7 L 1240.0 453.0 L 1244.0 454.4 L 1248.0 455.8 L 1252.0 457.2 L 1256.0 458.6 L 1260.0 460.1 L 1264.0 461.5 L 1268.0 463.0 L 1272.0 464.6 L 1276.0 466.1 L 1280.0 467.6 L 1284.0 469.2 L 1288.0 470.8 L 1292.0 472.4 L 1296.0 474.1 L 1300.0 475.7 L 1304.0 477.4 L 1308.0 479.1 L 1312.0 480.8 L 1316.0 482.5 L 1320.0 484.2 L 1324.0 486.0 L 1328.0 487.7 L 1332.0 489.5 L 1336.0 491.3 L 1340.0 493.1 L 1344.0 494.9 L 1348.0 496.7 L 1352.0 498.6 L 1356.0 500.4 L 1360.0 502.3 L 1364.0 504.1 L 1368.0 506.0 L 1372.0 507.9 L 1376.0 509.8 L 1380.0 511.7 L 1384.0 513.6 L 1388.0 515.5 L 1392.0 517.4 L 1396.0 519.4 L 1400.0 521.3 L 1404.0 523.3 L 1408.0 525.2 L 1412.0 527.2 L 1416.0 529.1 L 1420.0 531.1 L 1424.0 533.0 L 1428.0 535.0 L 1432.0 536.9 L 1436.0 538.9 L 1440.0 540.9 L 1444.0 542.8 L 1448.0 544.8 L 1452.0 546.8 L 1456.0 548.7 L 1460.0 550.7 L 1464.0 552.6 L 1468.0 554.6 L 1472.0 556.5 L 1476.0 558.5 L 1480.0 560.4 L 1484.0 562.3 L 1488.0 564.3 L 1492.0 566.2 L 1496.0 568.1 L 1500.0 570.0 L 1504.0 571.9 L 1508.0 573.8 L 1512.0 575.7 L 1516.0 577.5 L 1520.0 579.4 L 1524.0 581.3 L 1528.0 583.1 L 1532.0 584.9 L 1536.0 586.7 L 1540.0 588.5 L 1544.0 590.3 L 1548.0 592.1 L 1552.0 593.9 L 1556.0 595.6 L 1560.0 597.3 L 1564.0 599.1 L 1568.0 600.8 L 1572.0 602.4 L 1576.0 604.1 L 1580.0 605.8 L 1584.0 607.4 L 1588.0 609.0 L 1592.0 610.6 L 1596.0 612.2 L 1600.0 613.7 L 1604.0 615.3 L 1608.0 616.8 L 1612.0 618.3 L 1616.0 619.8 L 1620.0 621.2 L 1624.0 622.7 L 1628.0 624.1 L 1632.0 625.5 L 1636.0 626.8 L 1640.0 628.2 L 1644.0 629.5 L 1648.0 630.8 L 1652.0 632.1 L 1656.0 633.3 L 1660.0 634.5 L 1664.0 635.7 L 1668.0 636.9 L 1672.0 638.0 L 1676.0 639.2 L 1680.0 640.3 L 1684.0 641.3 L 1688.0 642.4 L 1692.0 643.4 L 1696.0 644.4 L 1700.0 645.3 L 1704.0 646.2 L 1708.0 647.1 L 1712.0 648.0 L 1716.0 648.9 L 1720.0 649.7 L 1724.0 650.4 L 1728.0 651.2 L 1732.0 651.9 L 1736.0 652.6 L 1740.0 653.3 L 1744.0 653.9 L 1748.0 654.5 L 1752.0 655.1 L 1756.0 655.6 L 1760.0 656.1 L 1764.0 656.6 L 1768.0 657.1 L 1772.0 657.5 L 1776.0 657.9 L 1780.0 658.2 L 1784.0 658.5 L 1788.0 658.8 L 1792.0 659.1 L 1796.0 659.3 L 1800.0 659.5 L 1804.0 659.7 L 1808.0 659.8 L 1812.0 659.9 L 1816.0 660.0 L 1820.0 660.0 L 1824.0 660.0 L 1828.0 660.0 L 1832.0 659.9 L 1836.0 659.8 L 1840.0 659.7 L 1844.0 659.5 L 1848.0 659.3 L 1852.0 659.1 L 1856.0 658.9 L 1860.0 658.6 L 1864.0 658.3 L 1868.0 657.9 L 1872.0 657.5 L 1876.0 657.1 L 1880.0 656.7 L 1884.0 656.2 L 1888.0 655.7 L 1892.0 655.1 L 1896.0 654.6 L 1900.0 654.0 L 1904.0 653.3 L 1908.0 652.7 L 1912.0 652.0 L 1916.0 651.3 L 1920.0 650.5" fill="none" stroke="#3d4db3" stroke-width="5" stroke-linecap="round" opacity="0.9"/>
  <path d="M 0.0 586.7 L 4.0 588.5 L 8.0 590.3 L 12.0 592.1 L 16.0 593.9 L 20.0 595.6 L 24.0 597.3 L 28.0 599.1 L 32.0 600.8 L 36.0 602.4 L 40.0 604.1 L 44.0 605.8 L 48.0 607.4 L 52.0 609.0 L 56.0 610.6 L 60.0 612.2 L 64.0 613.7 L 68.0 615.3 L 72.0 616.8 L 76.0 618.3 L 80.0 619.8 L 84.0 621.2 L 88.0 622.7 L 92.0 624.1 L 96.0 625.5 L 100.0 626.8 L 104.0 628.2 L 108.0 629.5 L 112.0 630.8 L 116.0 632.1 L 120.0 633.3 L 124.0 634.5 L 128.0 635.7 L 132.0 636.9 L 136.0 638.0 L 140.0 639.2 L 144.0 640.3 L 148.0 641.3 L 152.0 642.4 L 156.0 643.4 L 160.0 644.4 L 164.0 645.3 L 168.0 646.2 L 172.0 647.1 L 176.0 648.0 L 180.0 648.9 L 184.0 649.7 L 188.0 650.4 L 192.0 651.2 L 196.0 651.9 L 200.0 652.6 L 204.0 653.3 L 208.0 653.9 L 212.0 654.5 L 216.0 655.1 L 220.0 655.6 L 224.0 656.1 L 228.0 656.6 L 232.0 657.1 L 236.0 657.5 L 240.0 657.9 L 244.0 658.2 L 248.0 658.5 L 252.0 658.8 L 256.0 659.1 L 260.0 659.3 L 264.0 659.5 L 268.0 659.7 L 272.0 659.8 L 276.0 659.9 L 280.0 660.0 L 284.0 660.0 L 288.0 660.0 L 292.0 660.0 L 296.0 659.9 L 300.0 659.8 L 304.0 659.7 L 308.0 659.5 L 312.0 659.3 L 316.0 659.1 L 320.0 658.9 L 324.0 658.6 L 328.0 658.3 L 332.0 657.9 L 336.0 657.5 L 340.0 657.1 L 344.0 656.7 L 348.0 656.2 L 352.0 655.7 L 356.0 655.1 L 360.0 654.6 L 364.0 654.0 L 368.0 653.3 L 372.0 652.7 L 376.0 652.0 L 380.0 651.3 L 384.0 650.5 L 388.0 649.7 L 392.0 648.9 L 396.0 648.1 L 400.0 647.2 L 404.0 646.3 L 408.0 645.4 L 412.0 644.5 L 416.0 643.5 L 420.0 642.5 L 424.0 641.4 L 428.0 640.4 L 432.0 639.3 L 436.0 638.2 L 440.0 637.0 L 444.0 635.9 L 448.0 634.7 L 452.0 633.4 L 456.0 632.2 L 460.0 630.9 L 464.0 629.6 L 468.0 628.3 L 472.0 627.0 L 476.0 625.6 L 480.0 624.2 L 484.0 622.8 L 488.0 621.4 L 492.0 619.9 L 496.0 618.5 L 500.0 617.0 L 504.0 615.4 L 508.0 613.9 L 512.0 612.4 L 516.0 610.8 L 520.0 609.2 L 524.0 607.6 L 528.0 605.9 L 532.0 604.3 L 536.0 602.6 L 540.0 600.9 L 544.0 599.2 L 548.0 597.5 L 552.0 595.8 L 556.0 594.0 L 560.0 592.3 L 564.0 590.5 L 568.0 588.7 L 572.0 586.9 L 576.0 585.1 L 580.0 583.3 L 584.0 581.4 L 588.0 579.6 L 592.0 577.7 L 596.0 575.9 L 600.0 574.0 L 604.0 572.1 L 608.0 570.2 L 612.0 568.3 L 616.0 566.4 L 620.0 564.5 L 624.0 562.6 L 628.0 560.6 L 632.0 558.7 L 636.0 556.7 L 640.0 554.8 L 644.0 552.8 L 648.0 550.9 L 652.0 548.9 L 656.0 547.0 L 660.0 545.0 L 664.0 543.1 L 668.0 541.1 L 672.0 539.1 L 676.0 537.2 L 680.0 535.2 L 684.0 533.2 L 688.0 531.3 L 692.0 529.3 L 696.0 527.4 L 700.0 525.4 L 704.0 523.5 L 708.0 521.5 L 712.0 519.6 L 716.0 517.7 L 720.0 515.7 L 724.0 513.8 L 728.0 511.9 L 732.0 510.0 L 736.0 508.1 L 740.0 506.2 L 744.0 504.3 L 748.0 502.5 L 752.0 500.6 L 756.0 498.7 L 760.0 496.9 L 764.0 495.1 L 768.0 493.3 L 772.0 491.5 L 776.0 489.7 L 780.0 487.9 L 784.0 486.1 L 788.0 484.4 L 792.0 482.7 L 796.0 480.9 L 800.0 479.2 L 804.0 477.6 L 808.0 475.9 L 812.0 474.2 L 816.0 472.6 L 820.0 471.0 L 824.0 469.4 L 828.0 467.8 L 832.0 466.3 L 836.0 464.7 L 840.0 463.2 L 844.0 461.7 L 848.0 460.2 L 852.0 458.8 L 856.0 457.3 L 860.0 455.9 L 864.0 454.5 L 868.0 453.2 L 872.0 451.8 L 876.0 450.5 L 880.0 449.2 L 884.0 447.9 L 888.0 446.7 L 892.0 445.5 L 896.0 444.3 L 900.0 443.1 L 904.0 442.0 L 908.0 440.8 L 912.0 439.7 L 916.0 438.7 L 920.0 437.6 L 924.0 436.6 L 928.0 435.6 L 932.0 434.7 L 936.0 433.8 L 940.0 432.9 L 944.0 432.0 L 948.0 431.1 L 952.0 430.3 L 956.0 429.6 L 960.0 428.8 L 964.0 428.1 L 968.0 427.4 L 972.0 426.7 L 976.0 426.1 L 980.0 425.5 L 984.0 424.9 L 988.0 424.4 L 992.0 423.9 L 996.0 423.4 L 1000.0 422.9 L 1004.0 422.5 L 1008.0 422.1 L 1012.0 421.8 L 1016.0 421.5 L 1020.0 421.2 L 1024.0 420.9 L 1028.0 420.7 L 1032.0 420.5 L 1036.0 420.3 L 1040.0 420.2 L 1044.0 420.1 L 1048.0 420.0 L 1052.0 420.0 L 1056.0 420.0 L 1060.0 420.0 L 1064.0 420.1 L 1068.0 420.2 L 1072.0 420.3 L 1076.0 420.5 L 1080.0 420.7 L 1084.0 420.9 L 1088.0 421.1 L 1092.0 421.4 L 1096.0 421.7 L 1100.0 422.1 L 1104.0 422.5 L 1108.0 422.9 L 1112.0 423.3 L 1116.0 423.8 L 1120.0 424.3 L 1124.0 424.9 L 1128.0 425.4 L 1132.0 426.0 L 1136.0 426.7 L 1140.0 427.3 L 1144.0 428.0 L 1148.0 428.7 L 1152.0 429.5 L 1156.0 430.3 L 1160.0 431.1 L 1164.0 431.9 L 1168.0 432.8 L 1172.0 433.7 L 1176.0 434.6 L 1180.0 435.5 L 1184.0 436.5 L 1188.0 437.5 L 1192.0 438.6 L 1196.0 439.6 L 1200.0 440.7 L 1204.0 441.8 L 1208.0 443.0 L 1212.0 444.1 L 1216.0 445.3 L 1220.0 446.6 L 1224.0 447.8 L 1228.0 449.1 L 1232.0 450.4 L 1236.0 451.7 L 1240.0 453.0 L 1244.0 454.4 L 1248.0 455.8 L 1252.0 457.2 L 1256.0 458.6 L 1260.0 460.1 L 1264.0 461.5 L 1268.0 463.0 L 1272.0 464.6 L 1276.0 466.1 L 1280.0 467.6 L 1284.0 469.2 L 1288.0 470.8 L 1292.0 472.4 L 1296.0 474.1 L 1300.0 475.7 L 1304.0 477.4 L 1308.0 479.1 L 1312.0 480.8 L 1316.0 482.5 L 1320.0 484.2 L 1324.0 486.0 L 1328.0 487.7 L 1332.0 489.5 L 1336.0 491.3 L 1340.0 493.1 L 1344.0 494.9 L 1348.0 496.7 L 1352.0 498.6 L 1356.0 500.4 L 1360.0 502.3 L 1364.0 504.1 L 1368.0 506.0 L 1372.0 507.9 L 1376.0 509.8 L 1380.0 511.7 L 1384.0 513.6 L 1388.0 515.5 L 1392.0 517.4 L 1396.0 519.4 L 1400.0 521.3 L 1404.0 523.3 L 1408.0 525.2 L 1412.0 527.2 L 1416.0 529.1 L 1420.0 531.1 L 1424.0 533.0 L 1428.0 535.0 L 1432.0 536.9 L 1436.0 538.9 L 1440.0 540.9 L 1444.0 542.8 L 1448.0 544.8 L 1452.0 546.8 L 1456.0 548.7 L 1460.0 550.7 L 1464.0 552.6 L 1468.0 554.6 L 1472.0 556.5 L 1476.0 558.5 L 1480.0 560.4 L 1484.0 562.3 L 1488.0 564.3 L 1492.0 566.2 L 1496.0 568.1 L 1500.0 570.0 L 1504.0 571.9 L 1508.0 573.8 L 1512.0 575.7 L 1516.0 577.5 L 1520.0 579.4 L 1524.0 581.3 L 1528.0 583.1 L 1532.0 584.9 L 1536.0 586.7 L 1540.0 588.5 L 1544.0 590.3 L 1548.0 592.1 L 1552.0 593.9 L 1556.0 595.6 L 1560.0 597.3 L 1564.0 599.1 L 1568.0 600.8 L 1572.0 602.4 L 1576.0 604.1 L 1580.0 605.8 L 1584.0 607.4 L 1588.0 609.0 L 1592.0 610.6 L 1596.0 612.2 L 1600.0 613.7 L 1604.0 615.3 L 1608.0 616.8 L 1612.0 618.3 L 1616.0 619.8 L 1620.0 621.2 L 1624.0 622.7 L 1628.0 624.1 L 1632.0 625.5 L 1636.0 626.8 L 1640.0 628.2 L 1644.0 629.5 L 1648.0 630.8 L 1652.0 632.1 L 1656.0 633.3 L 1660.0 634.5 L 1664.0 635.7 L 1668.0 636.9 L 1672.0 638.0 L 1676.0 639.2 L 1680.0 640.3 L 1684.0 641.3 L 1688.0 642.4 L 1692.0 643.4 L 1696.0 644.4 L 1700.0 645.3 L 1704.0 646.2 L 1708.0 647.1 L 1712.0 648.0 L 1716.0 648.9 L 1720.0 649.7 L 1724.0 650.4 L 1728.0 651.2 L 1732.0 651.9 L 1736.0 652.6 L 1740.0 653.3 L 1744.0 653.9 L 1748.0 654.5 L 1752.0 655.1 L 1756.0 655.6 L 1760.0 656.1 L 1764.0 656.6 L 1768.0 657.1 L 1772.0 657.5 L 1776.0 657.9 L 1780.0 658.2 L 1784.0 658.5 L 1788.0 658.8 L 1792.0 659.1 L 1796.0 659.3 L 1800.0 659.5 L 1804.0 659.7 L 1808.0 659.8 L 1812.0 659.9 L 1816.0 660.0 L 1820.0 660.0 L 1824.0 660.0 L 1828.0 660.0 L 1832.0 659.9 L 1836.0 659.8 L 1840.0 659.7 L 1844.0 659.5 L 1848.0 659.3 L 1852.0 659.1 L 1856.0 658.9 L 1860.0 658.6 L 1864.0 658.3 L 1868.0 657.9 L 1872.0 657.5 L 1876.0 657.1 L 1880.0 656.7 L 1884.0 656.2 L 1888.0 655.7 L 1892.0 655.1 L 1896.0 654.6 L 1900.0 654.0 L 1904.0 653.3 L 1908.0 652.7 L 1912.0 652.0 L 1916.0 651.3 L 1920.0 650.5" fill="none" stroke="#3d4db3" stroke-width="28" stroke-linecap="round" opacity="0.14"/>
  <path d="M 0.0 586.7 L 4.0 588.5 L 8.0 590.3 L 12.0 592.1 L 16.0 593.9 L 20.0 595.6 L 24.0 597.3 L 28.0 599.1 L 32.0 600.8 L 36.0 602.4 L 40.0 604.1 L 44.0 605.8 L 48.0 607.4 L 52.0 609.0 L 56.0 610.6 L 60.0 612.2 L 64.0 613.7 L 68.0 615.3 L 72.0 616.8 L 76.0 618.3 L 80.0 619.8 L 84.0 621.2 L 88.0 622.7 L 92.0 624.1 L 96.0 625.5 L 100.0 626.8 L 104.0 628.2 L 108.0 629.5 L 112.0 630.8 L 116.0 632.1 L 120.0 633.3 L 124.0 634.5 L 128.0 635.7 L 132.0 636.9 L 136.0 638.0 L 140.0 639.2 L 144.0 640.3 L 148.0 641.3 L 152.0 642.4 L 156.0 643.4 L 160.0 644.4 L 164.0 645.3 L 168.0 646.2 L 172.0 647.1 L 176.0 648.0 L 180.0 648.9 L 184.0 649.7 L 188.0 650.4 L 192.0 651.2 L 196.0 651.9 L 200.0 652.6 L 204.0 653.3 L 208.0 653.9 L 212.0 654.5 L 216.0 655.1 L 220.0 655.6 L 224.0 656.1 L 228.0 656.6 L 232.0 657.1 L 236.0 657.5 L 240.0 657.9 L 244.0 658.2 L 248.0 658.5 L 252.0 658.8 L 256.0 659.1 L 260.0 659.3 L 264.0 659.5 L 268.0 659.7 L 272.0 659.8 L 276.0 659.9 L 280.0 660.0 L 284.0 660.0 L 288.0 660.0 L 292.0 660.0 L 296.0 659.9 L 300.0 659.8 L 304.0 659.7 L 308.0 659.5 L 312.0 659.3 L 316.0 659.1 L 320.0 658.9 L 324.0 658.6 L 328.0 658.3 L 332.0 657.9 L 336.0 657.5 L 340.0 657.1 L 344.0 656.7 L 348.0 656.2 L 352.0 655.7 L 356.0 655.1 L 360.0 654.6 L 364.0 654.0 L 368.0 653.3 L 372.0 652.7 L 376.0 652.0 L 380.0 651.3 L 384.0 650.5 L 388.0 649.7 L 392.0 648.9 L 396.0 648.1 L 400.0 647.2 L 404.0 646.3 L 408.0 645.4 L 412.0 644.5 L 416.0 643.5 L 420.0 642.5 L 424.0 641.4 L 428.0 640.4 L 432.0 639.3 L 436.0 638.2 L 440.0 637.0 L 444.0 635.9 L 448.0 634.7 L 452.0 633.4 L 456.0 632.2 L 460.0 630.9 L 464.0 629.6 L 468.0 628.3 L 472.0 627.0 L 476.0 625.6 L 480.0 624.2 L 484.0 622.8 L 488.0 621.4 L 492.0 619.9 L 496.0 618.5 L 500.0 617.0 L 504.0 615.4 L 508.0 613.9 L 512.0 612.4 L 516.0 610.8 L 520.0 609.2 L 524.0 607.6 L 528.0 605.9 L 532.0 604.3 L 536.0 602.6 L 540.0 600.9 L 544.0 599.2 L 548.0 597.5 L 552.0 595.8 L 556.0 594.0 L 560.0 592.3 L 564.0 590.5 L 568.0 588.7 L 572.0 586.9 L 576.0 585.1 L 580.0 583.3 L 584.0 581.4 L 588.0 579.6 L 592.0 577.7 L 596.0 575.9 L 600.0 574.0 L 604.0 572.1 L 608.0 570.2 L 612.0 568.3 L 616.0 566.4 L 620.0 564.5 L 624.0 562.6 L 628.0 560.6 L 632.0 558.7 L 636.0 556.7 L 640.0 554.8 L 644.0 552.8 L 648.0 550.9 L 652.0 548.9 L 656.0 547.0 L 660.0 545.0 L 664.0 543.1 L 668.0 541.1 L 672.0 539.1 L 676.0 537.2 L 680.0 535.2 L 684.0 533.2 L 688.0 531.3 L 692.0 529.3 L 696.0 527.4 L 700.0 525.4 L 704.0 523.5 L 708.0 521.5 L 712.0 519.6 L 716.0 517.7 L 720.0 515.7 L 724.0 513.8 L 728.0 511.9 L 732.0 510.0 L 736.0 508.1 L 740.0 506.2 L 744.0 504.3 L 748.0 502.5 L 752.0 500.6 L 756.0 498.7 L 760.0 496.9 L 764.0 495.1 L 768.0 493.3 L 772.0 491.5 L 776.0 489.7 L 780.0 487.9 L 784.0 486.1 L 788.0 484.4 L 792.0 482.7 L 796.0 480.9 L 800.0 479.2 L 804.0 477.6 L 808.0 475.9 L 812.0 474.2 L 816.0 472.6 L 820.0 471.0 L 824.0 469.4 L 828.0 467.8 L 832.0 466.3 L 836.0 464.7 L 840.0 463.2 L 844.0 461.7 L 848.0 460.2 L 852.0 458.8 L 856.0 457.3 L 860.0 455.9 L 864.0 454.5 L 868.0 453.2 L 872.0 451.8 L 876.0 450.5 L 880.0 449.2 L 884.0 447.9 L 888.0 446.7 L 892.0 445.5 L 896.0 444.3 L 900.0 443.1 L 904.0 442.0 L 908.0 440.8 L 912.0 439.7 L 916.0 438.7 L 920.0 437.6 L 924.0 436.6 L 928.0 435.6 L 932.0 434.7 L 936.0 433.8 L 940.0 432.9 L 944.0 432.0 L 948.0 431.1 L 952.0 430.3 L 956.0 429.6 L 960.0 428.8 L 964.0 428.1 L 968.0 427.4 L 972.0 426.7 L 976.0 426.1 L 980.0 425.5 L 984.0 424.9 L 988.0 424.4 L 992.0 423.9 L 996.0 423.4 L 1000.0 422.9 L 1004.0 422.5 L 1008.0 422.1 L 1012.0 421.8 L 1016.0 421.5 L 1020.0 421.2 L 1024.0 420.9 L 1028.0 420.7 L 1032.0 420.5 L 1036.0 420.3 L 1040.0 420.2 L 1044.0 420.1 L 1048.0 420.0 L 1052.0 420.0 L 1056.0 420.0 L 1060.0 420.0 L 1064.0 420.1 L 1068.0 420.2 L 1072.0 420.3 L 1076.0 420.5 L 1080.0 420.7 L 1084.0 420.9 L 1088.0 421.1 L 1092.0 421.4 L 1096.0 421.7 L 1100.0 422.1 L 1104.0 422.5 L 1108.0 422.9 L 1112.0 423.3 L 1116.0 423.8 L 1120.0 424.3 L 1124.0 424.9 L 1128.0 425.4 L 1132.0 426.0 L 1136.0 426.7 L 1140.0 427.3 L 1144.0 428.0 L 1148.0 428.7 L 1152.0 429.5 L 1156.0 430.3 L 1160.0 431.1 L 1164.0 431.9 L 1168.0 432.8 L 1172.0 433.7 L 1176.0 434.6 L 1180.0 435.5 L 1184.0 436.5 L 1188.0 437.5 L 1192.0 438.6 L 1196.0 439.6 L 1200.0 440.7 L 1204.0 441.8 L 1208.0 443.0 L 1212.0 444.1 L 1216.0 445.3 L 1220.0 446.6 L 1224.0 447.8 L 1228.0 449.1 L 1232.0 450.4 L 1236.0 451.7 L 1240.0 453.0 L 1244.0 454.4 L 1248.0 455.8 L 1252.0 457.2 L 1256.0 458.6 L 1260.0 460.1 L 1264.0 461.5 L 1268.0 463.0 L 1272.0 464.6 L 1276.0 466.1 L 1280.0 467.6 L 1284.0 469.2 L 1288.0 470.8 L 1292.0 472.4 L 1296.0 474.1 L 1300.0 475.7 L 1304.0 477.4 L 1308.0 479.1 L 1312.0 480.8 L 1316.0 482.5 L 1320.0 484.2 L 1324.0 486.0 L 1328.0 487.7 L 1332.0 489.5 L 1336.0 491.3 L 1340.0 493.1 L 1344.0 494.9 L 1348.0 496.7 L 1352.0 498.6 L 1356.0 500.4 L 1360.0 502.3 L 1364.0 504.1 L 1368.0 506.0 L 1372.0 507.9 L 1376.0 509.8 L 1380.0 511.7 L 1384.0 513.6 L 1388.0 515.5 L 1392.0 517.4 L 1396.0 519.4 L 1400.0 521.3 L 1404.0 523.3 L 1408.0 525.2 L 1412.0 527.2 L 1416.0 529.1 L 1420.0 531.1 L 1424.0 533.0 L 1428.0 535.0 L 1432.0 536.9 L 1436.0 538.9 L 1440.0 540.9 L 1444.0 542.8 L 1448.0 544.8 L 1452.0 546.8 L 1456.0 548.7 L 1460.0 550.7 L 1464.0 552.6 L 1468.0 554.6 L 1472.0 556.5 L 1476.0 558.5 L 1480.0 560.4 L 1484.0 562.3 L 1488.0 564.3 L 1492.0 566.2 L 1496.0 568.1 L 1500.0 570.0 L 1504.0 571.9 L 1508.0 573.8 L 1512.0 575.7 L 1516.0 577.5 L 1520.0 579.4 L 1524.0 581.3 L 1528.0 583.1 L 1532.0 584.9 L 1536.0 586.7 L 1540.0 588.5 L 1544.0 590.3 L 1548.0 592.1 L 1552.0 593.9 L 1556.0 595.6 L 1560.0 597.3 L 1564.0 599.1 L 1568.0 600.8 L 1572.0 602.4 L 1576.0 604.1 L 1580.0 605.8 L 1584.0 607.4 L 1588.0 609.0 L 1592.0 610.6 L 1596.0 612.2 L 1600.0 613.7 L 1604.0 615.3 L 1608.0 616.8 L 1612.0 618.3 L 1616.0 619.8 L 1620.0 621.2 L 1624.0 622.7 L 1628.0 624.1 L 1632.0 625.5 L 1636.0 626.8 L 1640.0 628.2 L 1644.0 629.5 L 1648.0 630.8 L 1652.0 632.1 L 1656.0 633.3 L 1660.0 634.5 L 1664.0 635.7 L 1668.0 636.9 L 1672.0 638.0 L 1676.0 639.2 L 1680.0 640.3 L 1684.0 641.3 L 1688.0 642.4 L 1692.0 643.4 L 1696.0 644.4 L 1700.0 645.3 L 1704.0 646.2 L 1708.0 647.1 L 1712.0 648.0 L 1716.0 648.9 L 1720.0 649.7 L 1724.0 650.4 L 1728.0 651.2 L 1732.0 651.9 L 1736.0 652.6 L 1740.0 653.3 L 1744.0 653.9 L 1748.0 654.5 L 1752.0 655.1 L 1756.0 655.6 L 1760.0 656.1 L 1764.0 656.6 L 1768.0 657.1 L 1772.0 657.5 L 1776.0 657.9 L 1780.0 658.2 L 1784.0 658.5 L 1788.0 658.8 L 1792.0 659.1 L 1796.0 659.3 L 1800.0 659.5 L 1804.0 659.7 L 1808.0 659.8 L 1812.0 659.9 L 1816.0 660.0 L 1820.0 660.0 L 1824.0 660.0 L 1828.0 660.0 L 1832.0 659.9 L 1836.0 659.8 L 1840.0 659.7 L 1844.0 659.5 L 1848.0 659.3 L 1852.0 659.1 L 1856.0 658.9 L 1860.0 658.6 L 1864.0 658.3 L 1868.0 657.9 L 1872.0 657.5 L 1876.0 657.1 L 1880.0 656.7 L 1884.0 656.2 L 1888.0 655.7 L 1892.0 655.1 L 1896.0 654.6 L 1900.0 654.0 L 1904.0 653.3 L 1908.0 652.7 L 1912.0 652.0 L 1916.0 651.3 L 1920.0 650.5" fill="none" stroke="#faf9f6" stroke-width="2" stroke-linecap="round" opacity="0.6"/>
</svg>