<svg xmlns="http://www.w3.org/2000/svg" viewBox="0 0 1200 1200" width="1200" height="1200" role="img" aria-labelledby="lattice-dots-title">
  <title id="lattice-dots-title">Subtle lattice dot pattern</title>
  <rect width="1200" height="1200" fill="#faf9f6"/>
  <circle cx="22.0" cy="23.8" r="1.2" fill="#3d4db3" opacity="0.08"/>
  <circle cx="24.0" cy="71.0" r="1.5" fill="#3d4db3" opacity="0.12"/>
  <circle cx="23.9" cy="121.5" r="1.5" fill="#3d4db3" opacity="0.14"/>
  <circle cx="23.7" cy="166.5" r="1.6" fill="#3d4db3" opacity="0.13"/>
  <circle cx="23.7" cy="218.7" r="2.7" fill="#3d4db3" opacity="0.11"/>
  <circle cx="26.0" cy="266.1" r="2.7" fill="#3d4db3" opacity="0.08"/>
  <circle cx="23.9" cy="313.0" r="2.6" fill="#3d4db3" opacity="0.11"/>
  <circle cx="25.1" cy="359.6" r="2.3" fill="#3d4db3" opacity="0.10"/>
  <circle cx="25.1" cy="409.1" r="2.5" fill="#3d4db3" opacity="0.07"/>
  <circle cx="26.5" cy="455.3" r="2.1" fill="#3d4db3" opacity="0.08"/>
  <circle cx="26.3" cy="503.6" r="1.3" fill="#3d4db3" opacity="0.07"/>
  <circle cx="25.4" cy="554.6" r="2.1" fill="#3d4db3" opacity="0.08"/>
  <circle cx="23.6" cy="597.4" r="1.3" fill="#3d4db3" opacity="0.09"/>
  <circle cx="25.3" cy="648.7" r="2.3" fill="#3d4db3" opacity="0.07"/>
  <circle cx="24.8" cy="694.5" r="2.6" fill="#3d4db3" opacity="0.10"/>
  <circle cx="25.1" cy="743.2" r="2.6" fill="#3d4db3" opacity="0.12"/>
  <circle cx="26.1" cy="792.9" r="1.7" fill="#3d4db3" opacity="0.08"/>
  <circle cx="21.2" cy="838.9" r="1.7" fill="#3d4db3" opacity="0.08"/>
  <circle cx="23.1" cy="890.8" r="2.5" fill="#3d4db3" opacity="0.13"/>
  <circle cx="26.7" cy="934.2" r="2.1" fill="#3d4db3" opacity="0.07"/>
  <circle cx="24.8" cy="985.7" r="2.2" fill="#3d4db3" opacity="0.08"/>
  <circle cx="21.5" cy="1032.2" r="2.0" fill="#3d4db3" opacity="0.11"/>
  <circle cx="25.0" cy="1082.6" r="1.4" fill="#3d4db3" opacity="0.09"/>
  <circle cx="21.5" cy="1126.9" r="1.9" fill="#3d4db3" opacity="0.09"/>
  <circle cx="24.3" cy="1177.4" r="2.1" fill="#3d4db3" opacity="0.10"/>
  <circle cx="73.1" cy="24.2" r="2.2" fill="#3d4db3" opacity="0.12"/>
  <circle cx="69.4" cy="72.6" r="2.0" fill="#3d4db3" opacity="0.06"/>
  <circle cx="71.6" cy="118.3" r="2.4" fill="#3d4db3" opacity="0.08"/>
  <circle cx="73.0" cy="168.8" r="2.5" fill="#3d4db3" opacity="0.13"/>
  <circle cx="70.3" cy="214.7" r="1.7" fill="#3d4db3" opacity="0.14"/>
  <circle cx="71.4" cy="265.0" r="2.2" fill="#3d4db3" opacity="0.10"/>
  <circle cx="70.7" cy="314.6" r="1.5" fill="#3d4db3" opacity="0.09"/>
  <circle cx="70.3" cy="357.3" r="2.4" fill="#3d4db3" opacity="0.13"/>
  <circle cx="69.6" cy="409.5" r="2.7" fill="#3d4db3" opacity="0.13"/>
  <circle cx="70.1" cy="453.5" r="2.2" fill="#3d4db3" opacity="0.13"/>
  <circle cx="73.5" cy="504.3" r="1.7" fill="#3d4db3" opacity="0.10"/>
  <circle cx="70.2" cy="549.8" r="1.7" fill="#3d4db3" opacity="0.07"/>
  <circle cx="69.3" cy="601.4" r="2.2" fill="#3d4db3" opacity="0.08"/>
  <circle cx="71.7" cy="647.8" r="2.4" fill="#3d4db3" opacity="0.09"/>
  <circle cx="71.3" cy="695.9" r="1.8" fill="#3d4db3" opacity="0.14"/>
  <circle cx="72.4" cy="744.5" r="2.8" fill="#3d4db3" opacity="0.14"/>
  <circle cx="69.1" cy="791.7" r="2.3" fill="#3d4db3" opacity="0.07"/>
  <circle cx="70.8" cy="839.7" r="2.7" fill="#3d4db3" opacity="0.14"/>
  <circle cx="71.1" cy="886.7" r="1.6" fill="#3d4db3" opacity="0.12"/>
  <circle cx="69.6" cy="934.0" r="2.5" fill="#3d4db3" opacity="0.11"/>
  <circle cx="72.8" cy="985.3" r="2.0" fill="#3d4db3" opacity="0.12"/>
  <circle cx="69.7" cy="1032.1" r="1.5" fill="#3d4db3" opacity="0.08"/>
  <circle cx="71.2" cy="1078.8" r="2.4" fill="#3d4db3" opacity="0.09"/>
  <circle cx="69.2" cy="1130.7" r="2.6" fill="#3d4db3" opacity="0.07"/>
  <circle cx="72.0" cy="1178.5" r="1.8" fill="#3d4db3" opacity="0.08"/>
  <circle cx="119.9" cy="24.1" r="1.6" fill="#3d4db3" opacity="0.06"/>
  <circle cx="118.0" cy="73.9" r="2.2" fill="#3d4db3" opacity="0.12"/>
  <circle cx="118.1" cy="118.0" r="2.1" fill="#3d4db3" opacity="0.08"/>
  <circle cx="117.7" cy="167.8" r="2.7" fill="#3d4db3" opacity="0.09"/>
  <circle cx="121.3" cy="218.8" r="1.9" fill="#3d4db3" opacity="0.07"/>
  <circle cx="122.0" cy="266.7" r="1.8" fill="#3d4db3" opacity="0.14"/>
  <circle cx="122.6" cy="313.9" r="2.0" fill="#3d4db3" opacity="0.14"/>
  <circle cx="119.1" cy="357.6" r="2.8" fill="#3d4db3" opacity="0.06"/>
  <circle cx="117.7" cy="410.4" r="2.0" fill="#3d4db3" opacity="0.07"/>
  <circle cx="120.7" cy="454.5" r="2.1" fill="#3d4db3" opacity="0.11"/>
  <circle cx="121.3" cy="506.1" r="2.7" fill="#3d4db3" opacity="0.07"/>
  <circle cx="121.1" cy="553.3" r="2.1" fill="#3d4db3" opacity="0.09"/>
  <circle cx="121.8" cy="599.5" r="2.4" fill="#3d4db3" opacity="0.12"/>
  <circle cx="119.9" cy="650.3" r="2.8" fill="#3d4db3" opacity="0.06"/>
  <circle cx="118.4" cy="693.3" r="1.6" fill="#3d4db3" opacity="0.09"/>
  <circle cx="118.1" cy="747.0" r="2.6" fill="#3d4db3" opacity="0.09"/>
  <circle cx="119.0" cy="794.4" r="2.4" fill="#3d4db3" opacity="0.10"/>
  <circle cx="119.4" cy="840.4" r="1.6" fill="#3d4db3" opacity="0.12"/>
  <circle cx="119.5" cy="888.9" r="2.0" fill="#3d4db3" opacity="0.12"/>
  <circle cx="122.5" cy="936.2" r="2.7" fill="#3d4db3" opacity="0.07"/>
  <circle cx="122.1" cy="986.6" r="1.5" fill="#3d4db3" opacity="0.08"/>
  <circle cx="117.9" cy="1029.2" r="1.6" fill="#3d4db3" opacity="0.13"/>
  <circle cx="122.4" cy="1079.8" r="1.6" fill="#3d4db3" opacity="0.11"/>
  <circle cx="118.7" cy="1129.9" r="2.4" fill="#3d4db3" opacity="0.09"/>
  <circle cx="117.5" cy="1178.0" r="2.7" fill="#3d4db3" opacity="0.09"/>
  <circle cx="170.9" cy="23.2" r="1.6" fill="#3d4db3" opacity="0.12"/>
  <circle cx="167.0" cy="74.3" r="2.2" fill="#3d4db3" opacity="0.14"/>
  <circle cx="170.2" cy="121.3" r="1.3" fill="#3d4db3" opacity="0.12"/>
  <circle cx="169.7" cy="170.4" r="2.2" fill="#3d4db3" opacity="0.13"/>
  <circle cx="169.2" cy="217.9" r="2.0" fill="#3d4db3" opacity="0.11"/>
  <circle cx="166.1" cy="263.0" r="1.9" fill="#3d4db3" opacity="0.12"/>
  <circle cx="165.0" cy="313.3" r="1.4" fill="#3d4db3" opacity="0.14"/>
  <circle cx="165.0" cy="358.5" r="2.7" fill="#3d4db3" opacity="0.07"/>
  <circle cx="169.0" cy="407.1" r="2.2" fill="#3d4db3" opacity="0.14"/>
  <circle cx="166.8" cy="456.1" r="1.8" fill="#3d4db3" opacity="0.10"/>
  <circle cx="170.7" cy="506.3" r="2.4" fill="#3d4db3" opacity="0.13"/>
  <circle cx="165.0" cy="551.7" r="1.8" fill="#3d4db3" opacity="0.08"/>
  <circle cx="166.9" cy="602.6" r="2.8" fill="#3d4db3" opacity="0.09"/>
  <circle cx="166.2" cy="647.2" r="1.9" fill="#3d4db3" opacity="0.13"/>
  <circle cx="170.2" cy="694.7" r="1.6" fill="#3d4db3" opacity="0.07"/>
  <circle cx="169.6" cy="744.9" r="2.3" fill="#3d4db3" opacity="0.14"/>
  <circle cx="167.4" cy="791.1" r="2.5" fill="#3d4db3" opacity="0.10"/>
  <circle cx="170.4" cy="840.1" r="1.2" fill="#3d4db3" opacity="0.09"/>
  <circle cx="166.6" cy="886.9" r="1.4" fill="#3d4db3" opacity="0.07"/>
  <circle cx="166.4" cy="936.2" r="2.0" fill="#3d4db3" opacity="0.10"/>
  <circle cx="169.8" cy="986.1" r="1.7" fill="#3d4db3" opacity="0.10"/>
  <circle cx="168.2" cy="1032.7" r="2.8" fill="#3d4db3" opacity="0.09"/>
  <circle cx="167.2" cy="1080.4" r="1.4" fill="#3d4db3" opacity="0.11"/>
  <circle cx="166.3" cy="1130.4" r="2.4" fill="#3d4db3" opacity="0.08"/>
  <circle cx="166.1" cy="1174.4" r="2.7" fill="#3d4db3" opacity="0.11"/>
  <circle cx="215.7" cy="21.8" r="1.8" fill="#3d4db3" opacity="0.10"/>
  <circle cx="217.9" cy="71.2" r="1.3" fill="#3d4db3" opacity="0.09"/>
  <circle cx="218.5" cy="121.7" r="2.1" fill="#3d4db3" opacity="0.08"/>
  <circle cx="214.1" cy="170.2" r="2.6" fill="#3d4db3" opacity="0.12"/>
  <circle cx="214.6" cy="218.5" r="2.6" fill="#3d4db3" opacity="0.09"/>
  <circle cx="215.4" cy="266.9" r="2.3" fill="#3d4db3" opacity="0.07"/>
  <circle cx="214.2" cy="311.7" r="1.8" fill="#3d4db3" opacity="0.07"/>
  <circle cx="214.4" cy="358.1" r="2.6" fill="#3d4db3" opacity="0.06"/>
  <circle cx="214.7" cy="407.9" r="2.5" fill="#3d4db3" opacity="0.13"/>
  <circle cx="214.1" cy="456.4" r="2.1" fill="#3d4db3" opacity="0.08"/>
  <circle cx="215.3" cy="506.3" r="2.4" fill="#3d4db3" opacity="0.14"/>
  <circle cx="214.4" cy="554.6" r="2.3" fill="#3d4db3" opacity="0.07"/>
  <circle cx="217.7" cy="602.1" r="2.8" fill="#3d4db3" opacity="0.12"/>
  <circle cx="215.4" cy="648.8" r="1.4" fill="#3d4db3" opacity="0.13"/>
  <circle cx="218.6" cy="693.1" r="1.2" fill="#3d4db3" opacity="0.10"/>
  <circle cx="217.2" cy="741.0" r="1.8" fill="#3d4db3" opacity="0.08"/>
  <circle cx="218.5" cy="789.9" r="2.4" fill="#3d4db3" opacity="0.10"/>
  <circle cx="213.3" cy="839.4" r="1.8" fill="#3d4db3" opacity="0.13"/>
  <circle cx="216.4" cy="889.0" r="1.8" fill="#3d4db3" opacity="0.11"/>
  <circle cx="216.8" cy="933.3" r="1.4" fill="#3d4db3" opacity="0.09"/>
  <circle cx="214.3" cy="985.4" r="2.0" fill="#3d4db3" opacity="0.11"/>
  <circle cx="213.4" cy="1032.1" r="2.4" fill="#3d4db3" opacity="0.08"/>
  <circle cx="214.2" cy="1077.2" r="1.3" fill="#3d4db3" opacity="0.07"/>
  <circle cx="213.9" cy="1129.3" r="1.2" fill="#3d4db3" opacity="0.11"/>
  <circle cx="218.2" cy="1174.3" r="1.2" fill="#3d4db3" opacity="0.07"/>
  <circle cx="262.6" cy="25.6" r="1.6" fill="#3d4db3" opacity="0.11"/>
  <circle cx="263.8" cy="74.9" r="2.2" fill="#3d4db3" opacity="0.10"/>
  <circle cx="264.7" cy="119.6" r="2.7" fill="#3d4db3" opacity="0.11"/>
  <circle cx="264.2" cy="170.4" r="1.5" fill="#3d4db3" opacity="0.09"/>
  <circle cx="266.2" cy="214.3" r="2.7" fill="#3d4db3" opacity="0.13"/>
  <circle cx="261.1" cy="266.0" r="1.4" fill="#3d4db3" opacity="0.10"/>
  <circle cx="264.9" cy="309.6" r="2.3" fill="#3d4db3" opacity="0.06"/>
  <circle cx="261.1" cy="357.4" r="2.3" fill="#3d4db3" opacity="0.09"/>
  <circle cx="265.2" cy="405.6" r="1.7" fill="#3d4db3" opacity="0.11"/>
  <circle cx="262.8" cy="453.3" r="1.8" fill="#3d4db3" opacity="0.09"/>
  <circle cx="264.4" cy="502.4" r="2.0" fill="#3d4db3" opacity="0.12"/>
  <circle cx="263.1" cy="554.2" r="1.4" fill="#3d4db3" opacity="0.09"/>
  <circle cx="261.7" cy="599.5" r="2.7" fill="#3d4db3" opacity="0.14"/>
  <circle cx="262.1" cy="647.1" r="1.3" fill="#3d4db3" opacity="0.11"/>
  <circle cx="264.8" cy="698.0" r="1.6" fill="#3d4db3" opacity="0.10"/>
  <circle cx="265.7" cy="746.0" r="2.7" fill="#3d4db3" opacity="0.11"/>
  <circle cx="264.3" cy="789.6" r="1.3" fill="#3d4db3" opacity="0.12"/>
  <circle cx="262.2" cy="840.9" r="1.7" fill="#3d4db3" opacity="0.12"/>
  <circle cx="266.9" cy="885.1" r="1.5" fill="#3d4db3" opacity="0.12"/>
  <circle cx="262.9" cy="933.9" r="1.3" fill="#3d4db3" opacity="0.12"/>
  <circle cx="265.4" cy="986.8" r="2.8" fill="#3d4db3" opacity="0.12"/>
  <circle cx="263.1" cy="1032.5" r="1.7" fill="#3d4db3" opacity="0.09"/>
  <circle cx="262.0" cy="1077.9" r="2.6" fill="#3d4db3" opacity="0.08"/>
  <circle cx="266.4" cy="1127.9" r="2.8" fill="#3d4db3" opacity="0.07"/>
  <circle cx="264.5" cy="1174.4" r="2.6" fill="#3d4db3" opacity="0.12"/>
  <circle cx="313.5" cy="25.8" r="1.3" fill="#3d4db3" opacity="0.13"/>
  <circle cx="311.2" cy="74.1" r="2.7" fill="#3d4db3" opacity="0.10"/>
  <circle cx="311.0" cy="120.8" r="2.3" fill="#3d4db3" opacity="0.13"/>
  <circle cx="313.5" cy="169.4" r="1.7" fill="#3d4db3" opacity="0.09"/>
  <circle cx="313.8" cy="217.5" r="2.0" fill="#3d4db3" opacity="0.12"/>
  <circle cx="310.6" cy="263.6" r="1.7" fill="#3d4db3" opacity="0.09"/>
  <circle cx="313.9" cy="312.8" r="1.7" fill="#3d4db3" opacity="0.09"/>
  <circle cx="314.1" cy="361.9" r="1.8" fill="#3d4db3" opacity="0.09"/>
  <circle cx="309.3" cy="406.8" r="2.0" fill="#3d4db3" opacity="0.12"/>
  <circle cx="312.8" cy="454.0" r="2.4" fill="#3d4db3" opacity="0.11"/>
  <circle cx="310.2" cy="505.4" r="1.6" fill="#3d4db3" opacity="0.06"/>
  <circle cx="311.1" cy="554.5" r="2.6" fill="#3d4db3" opacity="0.12"/>
  <circle cx="314.1" cy="602.9" r="1.5" fill="#3d4db3" opacity="0.11"/>
  <circle cx="312.1" cy="646.1" r="2.3" fill="#3d4db3" opacity="0.10"/>
  <circle cx="314.0" cy="698.6" r="1.3" fill="#3d4db3" opacity="0.14"/>
  <circle cx="309.8" cy="745.6" r="1.9" fill="#3d4db3" opacity="0.08"/>
  <circle cx="311.8" cy="793.8" r="2.0" fill="#3d4db3" opacity="0.08"/>
  <circle cx="310.1" cy="837.2" r="2.4" fill="#3d4db3" opacity="0.08"/>
  <circle cx="310.0" cy="886.1" r="1.3" fill="#3d4db3" opacity="0.06"/>
  <circle cx="313.2" cy="934.7" r="1.5" fill="#3d4db3" opacity="0.07"/>
  <circle cx="309.2" cy="986.2" r="2.3" fill="#3d4db3" opacity="0.07"/>
  <circle cx="312.6" cy="1034.4" r="2.4" fill="#3d4db3" opacity="0.11"/>
  <circle cx="314.4" cy="1078.7" r="2.1" fill="#3d4db3" opacity="0.12"/>
  <circle cx="309.5" cy="1125.7" r="1.9" fill="#3d4db3" opacity="0.09"/>
  <circle cx="309.7" cy="1176.5" r="1.6" fill="#3d4db3" opacity="0.12"/>
  <circle cx="361.4" cy="23.8" r="1.6" fill="#3d4db3" opacity="0.13"/>
  <circle cx="362.9" cy="71.6" r="2.3" fill="#3d4db3" opacity="0.10"/>
  <circle cx="359.2" cy="122.3" r="1.3" fill="#3d4db3" opacity="0.07"/>
  <circle cx="362.2" cy="168.0" r="2.6" fill="#3d4db3" opacity="0.14"/>
  <circle cx="359.4" cy="216.0" r="1.5" fill="#3d4db3" opacity="0.08"/>
  <circle cx="357.2" cy="263.9" r="1.2" fill="#3d4db3" opacity="0.08"/>
  <circle cx="362.8" cy="309.3" r="1.4" fill="#3d4db3" opacity="0.13"/>
  <circle cx="362.9" cy="362.8" r="2.0" fill="#3d4db3" opacity="0.09"/>
  <circle cx="361.6" cy="405.3" r="2.3" fill="#3d4db3" opacity="0.14"/>
  <circle cx="361.1" cy="457.7" r="2.2" fill="#3d4db3" opacity="0.07"/>
  <circle cx="359.7" cy="504.0" r="1.7" fill="#3d4db3" opacity="0.09"/>
  <circle cx="358.5" cy="550.5" r="2.4" fill="#3d4db3" opacity="0.13"/>
  <circle cx="361.2" cy="599.3" r="1.5" fill="#3d4db3" opacity="0.10"/>
  <circle cx="359.5" cy="649.7" r="1.7" fill="#3d4db3" opacity="0.06"/>
  <circle cx="357.8" cy="697.4" r="2.7" fill="#3d4db3" opacity="0.10"/>
  <circle cx="361.1" cy="743.9" r="1.7" fill="#3d4db3" opacity="0.10"/>
  <circle cx="360.4" cy="791.8" r="1.5" fill="#3d4db3" opacity="0.14"/>
  <circle cx="357.5" cy="838.1" r="2.5" fill="#3d4db3" opacity="0.12"/>
  <circle cx="358.8" cy="889.7" r="2.4" fill="#3d4db3" opacity="0.06"/>
  <circle cx="360.4" cy="934.4" r="2.1" fill="#3d4db3" opacity="0.13"/>
  <circle cx="361.7" cy="982.6" r="1.4" fill="#3d4db3" opacity="0.08"/>
  <circle cx="358.2" cy="1034.6" r="1.4" fill="#3d4db3" opacity="0.11"/>
  <circle cx="357.6" cy="1081.4" r="1.4" fill="#3d4db3" opacity="0.10"/>
  <circle cx="362.3" cy="1128.9" r="2.0" fill="#3d4db3" opacity="0.10"/>
  <circle cx="357.5" cy="1176.6" r="1.5" fill="#3d4db3" opacity="0.13"/>
  <circle cx="409.8" cy="24.9" r="2.1" fill="#3d4db3" opacity="0.09"/>
  <circle cx="405.4" cy="75.0" r="2.1" fill="#3d4db3" opacity="0.09"/>
  <circle cx="408.5" cy="119.6" r="2.0" fill="#3d4db3" opacity="0.11"/>
  <circle cx="407.2" cy="168.8" r="2.0" fill="#3d4db3" opacity="0.07"/>
  <circle cx="410.9" cy="218.8" r="1.4" fill="#3d4db3" opacity="0.08"/>
  <circle cx="407.2" cy="261.9" r="2.4" fill="#3d4db3" opacity="0.09"/>
  <circle cx="407.7" cy="311.2" r="2.2" fill="#3d4db3" opacity="0.11"/>
  <circle cx="406.9" cy="358.4" r="2.3" fill="#3d4db3" opacity="0.07"/>
  <circle cx="405.8" cy="407.2" r="2.3" fill="#3d4db3" opacity="0.14"/>
  <circle cx="409.3" cy="456.0" r="2.2" fill="#3d4db3" opacity="0.09"/>
  <circle cx="409.3" cy="503.8" r="1.3" fill="#3d4db3" opacity="0.10"/>
  <circle cx="408.1" cy="553.6" r="2.7" fill="#3d4db3" opacity="0.13"/>
  <circle cx="410.0" cy="601.2" r="1.4" fill="#3d4db3" opacity="0.06"/>
  <circle cx="410.1" cy="647.0" r="2.5" fill="#3d4db3" opacity="0.06"/>
  <circle cx="406.3" cy="693.1" r="1.3" fill="#3d4db3" opacity="0.13"/>
  <circle cx="407.8" cy="744.9" r="2.5" fill="#3d4db3" opacity="0.09"/>
  <circle cx="407.4" cy="791.9" r="2.2" fill="#3d4db3" opacity="0.10"/>
  <circle cx="410.1" cy="841.8" r="2.6" fill="#3d4db3" opacity="0.11"/>
  <circle cx="406.8" cy="885.0" r="1.7" fill="#3d4db3" opacity="0.06"/>
  <circle cx="405.2" cy="936.7" r="1.5" fill="#3d4db3" opacity="0.09"/>
  <circle cx="405.8" cy="985.6" r="2.8" fill="#3d4db3" opacity="0.13"/>
  <circle cx="410.8" cy="1031.6" r="1.8" fill="#3d4db3" opacity="0.11"/>
  <circle cx="407.4" cy="1079.2" r="1.4" fill="#3d4db3" opacity="0.10"/>
  <circle cx="409.3" cy="1128.4" r="1.3" fill="#3d4db3" opacity="0.07"/>
  <circle cx="405.9" cy="1176.6" r="2.2" fill="#3d4db3" opacity="0.13"/>
  <circle cx="454.0" cy="23.4" r="1.5" fill="#3d4db3" opacity="0.09"/>
  <circle cx="454.5" cy="74.4" r="2.4" fill="#3d4db3" opacity="0.06"/>
  <circle cx="456.2" cy="118.1" r="2.4" fill="#3d4db3" opacity="0.09"/>
  <circle cx="453.1" cy="167.5" r="2.7" fill="#3d4db3" opacity="0.13"/>
  <circle cx="455.5" cy="215.5" r="2.4" fill="#3d4db3" opacity="0.09"/>
  <circle cx="457.6" cy="266.0" r="1.7" fill="#3d4db3" opacity="0.13"/>
  <circle cx="456.6" cy="309.3" r="1.4" fill="#3d4db3" opacity="0.10"/>
  <circle cx="458.3" cy="361.7" r="2.3" fill="#3d4db3" opacity="0.13"/>
  <circle cx="456.1" cy="406.3" r="1.4" fill="#3d4db3" opacity="0.13"/>
  <circle cx="456.6" cy="459.0" r="1.8" fill="#3d4db3" opacity="0.06"/>
  <circle cx="454.8" cy="505.0" r="1.6" fill="#3d4db3" opacity="0.07"/>
  <circle cx="455.7" cy="549.1" r="2.4" fill="#3d4db3" opacity="0.09"/>
  <circle cx="457.0" cy="602.3" r="1.9" fill="#3d4db3" opacity="0.06"/>
  <circle cx="455.2" cy="649.5" r="1.5" fill="#3d4db3" opacity="0.11"/>
  <circle cx="454.4" cy="698.4" r="2.7" fill="#3d4db3" opacity="0.12"/>
  <circle cx="455.8" cy="743.5" r="2.5" fill="#3d4db3" opacity="0.08"/>
  <circle cx="457.3" cy="793.0" r="1.2" fill="#3d4db3" opacity="0.09"/>
  <circle cx="456.2" cy="840.1" r="1.6" fill="#3d4db3" opacity="0.12"/>
  <circle cx="457.1" cy="886.5" r="1.7" fill="#3d4db3" opacity="0.09"/>
  <circle cx="453.2" cy="933.6" r="2.0" fill="#3d4db3" opacity="0.12"/>
  <circle cx="453.1" cy="984.2" r="2.0" fill="#3d4db3" opacity="0.06"/>
  <circle cx="458.9" cy="1029.2" r="2.0" fill="#3d4db3" opacity="0.13"/>
  <circle cx="458.8" cy="1081.4" r="1.6" fill="#3d4db3" opacity="0.11"/>
  <circle cx="455.1" cy="1128.8" r="1.5" fill="#3d4db3" opacity="0.08"/>
  <circle cx="453.1" cy="1175.7" r="1.5" fill="#3d4db3" opacity="0.11"/>
  <circle cx="502.3" cy="22.3" r="2.8" fill="#3d4db3" opacity="0.10"/>
  <circle cx="502.3" cy="71.8" r="1.4" fill="#3d4db3" opacity="0.07"/>
  <circle cx="503.7" cy="118.0" r="2.6" fill="#3d4db3" opacity="0.08"/>
  <circle cx="503.5" cy="166.3" r="1.7" fill="#3d4db3" opacity="0.07"/>
  <circle cx="502.6" cy="217.3" r="2.6" fill="#3d4db3" opacity="0.09"/>
  <circle cx="506.8" cy="266.0" r="1.7" fill="#3d4db3" opacity="0.09"/>
  <circle cx="502.5" cy="311.4" r="2.8" fill="#3d4db3" opacity="0.08"/>
  <circle cx="501.9" cy="357.2" r="1.4" fill="#3d4db3" opacity="0.10"/>
  <circle cx="502.3" cy="405.9" r="1.5" fill="#3d4db3" opacity="0.12"/>
  <circle cx="503.3" cy="455.6" r="2.2" fill="#3d4db3" opacity="0.09"/>
  <circle cx="504.4" cy="501.5" r="2.2" fill="#3d4db3" opacity="0.08"/>
  <circle cx="506.3" cy="553.5" r="1.4" fill="#3d4db3" opacity="0.13"/>
  <circle cx="503.8" cy="602.9" r="2.6" fill="#3d4db3" opacity="0.08"/>
  <circle cx="502.0" cy="648.3" r="2.7" fill="#3d4db3" opacity="0.09"/>
  <circle cx="504.7" cy="694.9" r="2.4" fill="#3d4db3" opacity="0.11"/>
  <circle cx="502.2" cy="745.3" r="1.9" fill="#3d4db3" opacity="0.10"/>
  <circle cx="504.7" cy="789.6" r="2.4" fill="#3d4db3" opacity="0.09"/>
  <circle cx="501.5" cy="840.0" r="2.6" fill="#3d4db3" opacity="0.10"/>
  <circle cx="502.3" cy="886.8" r="2.7" fill="#3d4db3" opacity="0.12"/>
  <circle cx="504.5" cy="935.3" r="2.4" fill="#3d4db3" opacity="0.06"/>
  <circle cx="506.8" cy="987.0" r="1.2" fill="#3d4db3" opacity="0.08"/>
  <circle cx="502.2" cy="1031.5" r="1.3" fill="#3d4db3" opacity="0.13"/>
  <circle cx="505.5" cy="1077.4" r="2.2" fill="#3d4db3" opacity="0.06"/>
  <circle cx="506.6" cy="1127.7" r="2.6" fill="#3d4db3" opacity="0.10"/>
  <circle cx="505.9" cy="1177.3" r="2.0" fill="#3d4db3" opacity="0.09"/>
  <circle cx="553.5" cy="26.0" r="1.2" fill="#3d4db3" opacity="0.13"/>
  <circle cx="552.7" cy="72.2" r="1.5" fill="#3d4db3" opacity="0.13"/>
  <circle cx="553.3" cy="122.1" r="2.6" fill="#3d4db3" opacity="0.14"/>
  <circle cx="550.6" cy="167.0" r="2.1" fill="#3d4db3" opacity="0.10"/>
  <circle cx="553.4" cy="218.5" r="2.1" fill="#3d4db3" opacity="0.08"/>
  <circle cx="552.5" cy="264.1" r="2.7" fill="#3d4db3" opacity="0.08"/>
  <circle cx="554.9" cy="310.5" r="1.2" fill="#3d4db3" opacity="0.09"/>
  <circle cx="554.5" cy="358.5" r="2.3" fill="#3d4db3" opacity="0.14"/>
  <circle cx="549.5" cy="407.2" r="1.6" fill="#3d4db3" opacity="0.14"/>
  <circle cx="552.3" cy="454.4" r="2.7" fill="#3d4db3" opacity="0.07"/>
  <circle cx="554.0" cy="502.4" r="1.5" fill="#3d4db3" opacity="0.14"/>
  <circle cx="554.3" cy="549.4" r="2.1" fill="#3d4db3" opacity="0.12"/>
  <circle cx="552.8" cy="602.7" r="1.3" fill="#3d4db3" opacity="0.11"/>
  <circle cx="549.9" cy="648.0" r="2.5" fill="#3d4db3" opacity="0.13"/>
  <circle cx="552.9" cy="694.7" r="1.9" fill="#3d4db3" opacity="0.08"/>
  <circle cx="554.4" cy="741.5" r="1.3" fill="#3d4db3" opacity="0.09"/>
  <circle cx="552.3" cy="793.4" r="1.4" fill="#3d4db3" opacity="0.07"/>
  <circle cx="549.2" cy="841.2" r="2.3" fill="#3d4db3" opacity="0.08"/>
  <circle cx="549.1" cy="886.8" r="2.1" fill="#3d4db3" opacity="0.06"/>
  <circle cx="553.2" cy="936.6" r="2.6" fill="#3d4db3" opacity="0.12"/>
  <circle cx="553.3" cy="986.7" r="2.5" fill="#3d4db3" opacity="0.08"/>
  <circle cx="552.9" cy="1030.4" r="1.6" fill="#3d4db3" opacity="0.09"/>
  <circle cx="550.5" cy="1081.5" r="2.3" fill="#3d4db3" opacity="0.07"/>
  <circle cx="551.2" cy="1129.3" r="2.2" fill="#3d4db3" opacity="0.06"/>
  <circle cx="551.8" cy="1176.6" r="2.4" fill="#3d4db3" opacity="0.06"/>
  <circle cx="602.2" cy="26.2" r="1.6" fill="#3d4db3" opacity="0.06"/>
  <circle cx="600.9" cy="73.1" r="2.4" fill="#3d4db3" opacity="0.07"/>
  <circle cx="597.8" cy="117.2" r="2.5" fill="#3d4db3" opacity="0.11"/>
  <circle cx="598.4" cy="168.7" r="1.6" fill="#3d4db3" opacity="0.07"/>
  <circle cx="598.3" cy="216.0" r="2.5" fill="#3d4db3" opacity="0.09"/>
  <circle cx="599.0" cy="262.2" r="1.3" fill="#3d4db3" opacity="0.13"/>
  <circle cx="597.1" cy="313.0" r="1.6" fill="#3d4db3" opacity="0.07"/>
  <circle cx="601.5" cy="362.0" r="2.0" fill="#3d4db3" opacity="0.09"/>
  <circle cx="601.3" cy="409.6" r="1.4" fill="#3d4db3" opacity="0.09"/>
  <circle cx="602.1" cy="457.1" r="1.3" fill="#3d4db3" opacity="0.10"/>
  <circle cx="602.5" cy="503.1" r="2.0" fill="#3d4db3" opacity="0.12"/>
  <circle cx="602.6" cy="551.5" r="2.4" fill="#3d4db3" opacity="0.13"/>
  <circle cx="599.7" cy="598.9" r="1.6" fill="#3d4db3" opacity="0.08"/>
  <circle cx="599.3" cy="649.3" r="1.9" fill="#3d4db3" opacity="0.08"/>
  <circle cx="601.1" cy="697.9" r="2.1" fill="#3d4db3" opacity="0.14"/>
  <circle cx="599.6" cy="742.5" r="2.0" fill="#3d4db3" opacity="0.12"/>
  <circle cx="601.9" cy="792.6" r="1.3" fill="#3d4db3" opacity="0.09"/>
  <circle cx="600.7" cy="840.7" r="1.5" fill="#3d4db3" opacity="0.09"/>
  <circle cx="600.0" cy="885.9" r="2.0" fill="#3d4db3" opacity="0.12"/>
  <circle cx="602.2" cy="937.0" r="2.7" fill="#3d4db3" opacity="0.06"/>
  <circle cx="599.4" cy="983.9" r="1.8" fill="#3d4db3" opacity="0.12"/>
  <circle cx="598.9" cy="1033.1" r="2.7" fill="#3d4db3" opacity="0.14"/>
  <circle cx="598.3" cy="1080.5" r="2.4" fill="#3d4db3" opacity="0.12"/>
  <circle cx="601.2" cy="1125.6" r="2.3" fill="#3d4db3" opacity="0.12"/>
  <circle cx="600.2" cy="1176.0" r="1.8" fill="#3d4db3" opacity="0.06"/>
  <circle cx="648.2" cy="21.2" r="1.6" fill="#3d4db3" opacity="0.07"/>
  <circle cx="646.2" cy="69.8" r="2.7" fill="#3d4db3" opacity="0.06"/>
  <circle cx="649.9" cy="118.7" r="2.2" fill="#3d4db3" opacity="0.11"/>
  <circle cx="647.9" cy="169.0" r="1.2" fill="#3d4db3" opacity="0.14"/>
  <circle cx="648.2" cy="214.3" r="2.2" fill="#3d4db3" opacity="0.08"/>
  <circle cx="650.1" cy="265.2" r="1.6" fill="#3d4db3" opacity="0.09"/>
  <circle cx="649.3" cy="309.8" r="2.4" fill="#3d4db3" opacity="0.13"/>
  <circle cx="647.4" cy="357.4" r="2.0" fill="#3d4db3" opacity="0.07"/>
  <circle cx="646.7" cy="407.5" r="2.7" fill="#3d4db3" opacity="0.14"/>
  <circle cx="650.6" cy="453.8" r="1.4" fill="#3d4db3" opacity="0.10"/>
  <circle cx="647.6" cy="502.8" r="1.7" fill="#3d4db3" opacity="0.09"/>
  <circle cx="649.8" cy="549.6" r="1.9" fill="#3d4db3" opacity="0.07"/>
  <circle cx="649.6" cy="598.9" r="2.4" fill="#3d4db3" opacity="0.10"/>
  <circle cx="647.0" cy="648.7" r="2.1" fill="#3d4db3" opacity="0.10"/>
  <circle cx="645.3" cy="695.4" r="1.6" fill="#3d4db3" opacity="0.09"/>
  <circle cx="650.3" cy="743.1" r="1.8" fill="#3d4db3" opacity="0.11"/>
  <circle cx="649.5" cy="793.1" r="1.2" fill="#3d4db3" opacity="0.08"/>
  <circle cx="649.3" cy="837.0" r="1.5" fill="#3d4db3" opacity="0.11"/>
  <circle cx="650.9" cy="890.4" r="2.2" fill="#3d4db3" opacity="0.10"/>
  <circle cx="647.1" cy="933.9" r="1.7" fill="#3d4db3" opacity="0.09"/>
  <circle cx="647.7" cy="984.4" r="2.6" fill="#3d4db3" opacity="0.08"/>
  <circle cx="649.2" cy="1032.9" r="1.5" fill="#3d4db3" opacity="0.12"/>
  <circle cx="649.8" cy="1081.1" r="1.5" fill="#3d4db3" opacity="0.09"/>
  <circle cx="650.6" cy="1129.6" r="2.7" fill="#3d4db3" opacity="0.07"/>
  <circle cx="649.4" cy="1174.4" r="2.3" fill="#3d4db3" opacity="0.07"/>
  <circle cx="697.6" cy="26.8" r="1.5" fill="#3d4db3" opacity="0.06"/>
  <circle cx="697.9" cy="70.5" r="1.4" fill="#3d4db3" opacity="0.13"/>
  <circle cx="697.2" cy="119.1" r="2.5" fill="#3d4db3" opacity="0.08"/>
  <circle cx="698.5" cy="168.9" r="1.3" fill="#3d4db3" opacity="0.06"/>
  <circle cx="697.6" cy="217.3" r="2.8" fill="#3d4db3" opacity="0.07"/>
  <circle cx="694.9" cy="264.8" r="1.6" fill="#3d4db3" opacity="0.12"/>
  <circle cx="698.6" cy="311.5" r="1.9" fill="#3d4db3" opacity="0.14"/>
  <circle cx="695.8" cy="361.8" r="1.7" fill="#3d4db3" opacity="0.11"/>
  <circle cx="694.4" cy="409.7" r="2.2" fill="#3d4db3" opacity="0.08"/>
  <circle cx="695.7" cy="458.5" r="1.2" fill="#3d4db3" opacity="0.10"/>
  <circle cx="696.4" cy="502.0" r="2.3" fill="#3d4db3" opacity="0.13"/>
  <circle cx="693.6" cy="551.7" r="2.3" fill="#3d4db3" opacity="0.11"/>
  <circle cx="694.0" cy="602.0" r="1.9" fill="#3d4db3" opacity="0.09"/>
  <circle cx="697.5" cy="648.1" r="2.4" fill="#3d4db3" opacity="0.11"/>
  <circle cx="696.6" cy="694.8" r="1.2" fill="#3d4db3" opacity="0.09"/>
  <circle cx="697.3" cy="745.9" r="1.8" fill="#3d4db3" opacity="0.07"/>
  <circle cx="697.0" cy="791.9" r="1.7" fill="#3d4db3" opacity="0.11"/>
  <circle cx="695.4" cy="843.0" r="1.7" fill="#3d4db3" opacity="0.07"/>
  <circle cx="697.8" cy="888.3" r="2.0" fill="#3d4db3" opacity="0.11"/>
  <circle cx="699.0" cy="937.6" r="2.6" fill="#3d4db3" opacity="0.10"/>
  <circle cx="693.9" cy="982.3" r="1.5" fill="#3d4db3" opacity="0.11"/>
  <circle cx="693.4" cy="1033.1" r="2.0" fill="#3d4db3" opacity="0.09"/>
  <circle cx="695.4" cy="1082.9" r="1.6" fill="#3d4db3" opacity="0.13"/>
  <circle cx="696.3" cy="1128.7" r="1.9" fill="#3d4db3" opacity="0.11"/>
  <circle cx="694.1" cy="1178.3" r="2.8" fill="#3d4db3" opacity="0.06"/>
  <circle cx="744.3" cy="26.1" r="2.8" fill="#3d4db3" opacity="0.09"/>
  <circle cx="742.4" cy="74.3" r="2.2" fill="#3d4db3" opacity="0.11"/>
  <circle cx="745.9" cy="122.0" r="2.3" fill="#3d4db3" opacity="0.09"/>
  <circle cx="741.6" cy="165.1" r="2.5" fill="#3d4db3" opacity="0.12"/>
  <circle cx="746.3" cy="216.9" r="1.9" fill="#3d4db3" opacity="0.09"/>
  <circle cx="744.9" cy="262.1" r="1.5" fill="#3d4db3" opacity="0.06"/>
  <circle cx="745.3" cy="309.8" r="1.8" fill="#3d4db3" opacity="0.12"/>
  <circle cx="741.9" cy="360.7" r="2.0" fill="#3d4db3" opacity="0.10"/>
  <circle cx="742.9" cy="408.7" r="1.6" fill="#3d4db3" opacity="0.11"/>
  <circle cx="741.5" cy="458.3" r="1.7" fill="#3d4db3" opacity="0.12"/>
  <circle cx="745.4" cy="503.5" r="2.1" fill="#3d4db3" opacity="0.12"/>
  <circle cx="744.1" cy="553.7" r="2.0" fill="#3d4db3" opacity="0.13"/>
  <circle cx="746.1" cy="602.6" r="1.8" fill="#3d4db3" opacity="0.12"/>
  <circle cx="742.6" cy="649.5" r="1.6" fill="#3d4db3" opacity="0.12"/>
  <circle cx="746.3" cy="695.2" r="2.1" fill="#3d4db3" opacity="0.09"/>
  <circle cx="745.2" cy="746.6" r="1.4" fill="#3d4db3" opacity="0.08"/>
  <circle cx="743.6" cy="790.6" r="1.6" fill="#3d4db3" opacity="0.07"/>
  <circle cx="741.7" cy="837.1" r="1.5" fill="#3d4db3" opacity="0.13"/>
  <circle cx="742.7" cy="888.5" r="1.7" fill="#3d4db3" opacity="0.13"/>
  <circle cx="746.4" cy="936.8" r="1.5" fill="#3d4db3" opacity="0.11"/>
  <circle cx="746.2" cy="983.5" r="2.8" fill="#3d4db3" opacity="0.14"/>
  <circle cx="742.7" cy="1032.1" r="2.1" fill="#3d4db3" opacity="0.09"/>
  <circle cx="742.9" cy="1080.1" r="2.5" fill="#3d4db3" opacity="0.12"/>
  <circle cx="745.8" cy="1126.3" r="2.2" fill="#3d4db3" opacity="0.09"/>
  <circle cx="743.1" cy="1175.5" r="2.2" fill="#3d4db3" opacity="0.09"/>
  <circle cx="791.3" cy="24.6" r="2.3" fill="#3d4db3" opacity="0.09"/>
  <circle cx="792.5" cy="69.5" r="2.5" fill="#3d4db3" opacity="0.12"/>
  <circle cx="789.9" cy="122.6" r="1.2" fill="#3d4db3" opacity="0.11"/>
  <circle cx="793.4" cy="168.1" r="2.0" fill="#3d4db3" opacity="0.06"/>
  <circle cx="794.3" cy="217.2" r="1.4" fill="#3d4db3" opacity="0.12"/>
  <circle cx="791.2" cy="265.6" r="2.0" fill="#3d4db3" opacity="0.11"/>
  <circle cx="789.3" cy="314.8" r="2.8" fill="#3d4db3" opacity="0.10"/>
  <circle cx="791.2" cy="361.3" r="1.7" fill="#3d4db3" opacity="0.06"/>
  <circle cx="793.0" cy="408.3" r="2.3" fill="#3d4db3" opacity="0.08"/>
  <circle cx="794.9" cy="456.5" r="2.4" fill="#3d4db3" opacity="0.08"/>
  <circle cx="793.3" cy="505.9" r="1.3" fill="#3d4db3" opacity="0.08"/>
  <circle cx="793.2" cy="554.8" r="1.8" fill="#3d4db3" opacity="0.06"/>
  <circle cx="790.4" cy="597.4" r="2.0" fill="#3d4db3" opacity="0.08"/>
  <circle cx="792.4" cy="648.9" r="2.7" fill="#3d4db3" opacity="0.07"/>
  <circle cx="789.8" cy="697.1" r="1.3" fill="#3d4db3" opacity="0.11"/>
  <circle cx="791.6" cy="741.4" r="2.6" fill="#3d4db3" opacity="0.13"/>
  <circle cx="792.7" cy="794.4" r="2.3" fill="#3d4db3" opacity="0.09"/>
  <circle cx="792.9" cy="839.1" r="2.0" fill="#3d4db3" opacity="0.12"/>
  <circle cx="790.6" cy="886.5" r="2.0" fill="#3d4db3" opacity="0.13"/>
  <circle cx="792.0" cy="934.3" r="2.8" fill="#3d4db3" opacity="0.10"/>
  <circle cx="794.4" cy="985.0" r="1.8" fill="#3d4db3" opacity="0.07"/>
  <circle cx="791.4" cy="1030.7" r="1.4" fill="#3d4db3" opacity="0.06"/>
  <circle cx="794.5" cy="1078.6" r="1.9" fill="#3d4db3" opacity="0.08"/>
  <circle cx="792.4" cy="1126.6" r="1.7" fill="#3d4db3" opacity="0.08"/>
  <circle cx="792.0" cy="1178.0" r="1.8" fill="#3d4db3" opacity="0.13"/>
  <circle cx="840.1" cy="25.4" r="2.4" fill="#3d4db3" opacity="0.09"/>
  <circle cx="838.8" cy="74.0" r="2.7" fill="#3d4db3" opacity="0.14"/>
  <circle cx="838.3" cy="120.4" r="2.7" fill="#3d4db3" opacity="0.07"/>
  <circle cx="842.8" cy="166.7" r="2.1" fill="#3d4db3" opacity="0.09"/>
  <circle cx="841.6" cy="213.2" r="1.3" fill="#3d4db3" opacity="0.13"/>
  <circle cx="838.4" cy="262.0" r="1.9" fill="#3d4db3" opacity="0.10"/>
  <circle cx="842.6" cy="312.4" r="2.2" fill="#3d4db3" opacity="0.07"/>
  <circle cx="840.9" cy="360.1" r="1.5" fill="#3d4db3" opacity="0.11"/>
  <circle cx="838.3" cy="406.6" r="2.1" fill="#3d4db3" opacity="0.11"/>
  <circle cx="837.6" cy="454.5" r="2.0" fill="#3d4db3" opacity="0.06"/>
  <circle cx="840.7" cy="506.8" r="1.3" fill="#3d4db3" opacity="0.13"/>
  <circle cx="842.0" cy="552.4" r="1.2" fill="#3d4db3" opacity="0.07"/>
  <circle cx="837.6" cy="597.1" r="2.6" fill="#3d4db3" opacity="0.14"/>
  <circle cx="838.9" cy="645.3" r="1.8" fill="#3d4db3" opacity="0.08"/>
  <circle cx="841.4" cy="697.2" r="1.9" fill="#3d4db3" opacity="0.11"/>
  <circle cx="840.8" cy="744.1" r="1.9" fill="#3d4db3" opacity="0.10"/>
  <circle cx="839.5" cy="791.6" r="2.4" fill="#3d4db3" opacity="0.10"/>
  <circle cx="840.6" cy="839.2" r="1.9" fill="#3d4db3" opacity="0.14"/>
  <circle cx="839.0" cy="887.6" r="2.6" fill="#3d4db3" opacity="0.09"/>
  <circle cx="840.6" cy="937.7" r="2.6" fill="#3d4db3" opacity="0.09"/>
  <circle cx="837.6" cy="982.3" r="2.4" fill="#3d4db3" opacity="0.11"/>
  <circle cx="842.4" cy="1031.5" r="2.5" fill="#3d4db3" opacity="0.07"/>
  <circle cx="840.1" cy="1081.5" r="1.8" fill="#3d4db3" opacity="0.09"/>
  <circle cx="842.4" cy="1130.5" r="1.3" fill="#3d4db3" opacity="0.10"/>
  <circle cx="842.9" cy="1173.8" r="2.7" fill="#3d4db3" opacity="0.11"/>
  <circle cx="890.1" cy="21.1" r="2.8" fill="#3d4db3" opacity="0.07"/>
  <circle cx="889.0" cy="69.8" r="2.8" fill="#3d4db3" opacity="0.14"/>
  <circle cx="886.5" cy="118.6" r="2.6" fill="#3d4db3" opacity="0.09"/>
  <circle cx="886.5" cy="166.5" r="1.7" fill="#3d4db3" opacity="0.10"/>
  <circle cx="885.3" cy="216.3" r="1.5" fill="#3d4db3" opacity="0.13"/>
  <circle cx="887.2" cy="263.9" r="1.8" fill="#3d4db3" opacity="0.07"/>
  <circle cx="887.3" cy="309.7" r="1.3" fill="#3d4db3" opacity="0.07"/>
  <circle cx="889.4" cy="361.8" r="1.8" fill="#3d4db3" opacity="0.14"/>
  <circle cx="891.0" cy="407.6" r="1.3" fill="#3d4db3" opacity="0.09"/>
  <circle cx="890.6" cy="454.6" r="2.6" fill="#3d4db3" opacity="0.10"/>
  <circle cx="887.3" cy="504.5" r="1.5" fill="#3d4db3" opacity="0.12"/>
  <circle cx="889.9" cy="553.7" r="2.2" fill="#3d4db3" opacity="0.06"/>
  <circle cx="888.4" cy="599.3" r="1.9" fill="#3d4db3" opacity="0.09"/>
  <circle cx="889.0" cy="648.2" r="1.6" fill="#3d4db3" opacity="0.13"/>
  <circle cx="888.0" cy="694.3" r="2.3" fill="#3d4db3" opacity="0.11"/>
  <circle cx="890.5" cy="741.8" r="1.9" fill="#3d4db3" opacity="0.10"/>
  <circle cx="886.4" cy="791.1" r="1.7" fill="#3d4db3" opacity="0.07"/>
  <circle cx="889.1" cy="839.3" r="2.7" fill="#3d4db3" opacity="0.13"/>
  <circle cx="889.2" cy="886.1" r="1.9" fill="#3d4db3" opacity="0.09"/>
  <circle cx="889.7" cy="937.1" r="1.2" fill="#3d4db3" opacity="0.07"/>
  <circle cx="885.4" cy="986.8" r="2.8" fill="#3d4db3" opacity="0.09"/>
  <circle cx="888.3" cy="1030.2" r="1.6" fill="#3d4db3" opacity="0.13"/>
  <circle cx="890.7" cy="1078.2" r="1.2" fill="#3d4db3" opacity="0.10"/>
  <circle cx="886.7" cy="1128.7" r="2.2" fill="#3d4db3" opacity="0.13"/>
  <circle cx="885.8" cy="1178.0" r="1.9" fill="#3d4db3" opacity="0.10"/>
  <circle cx="935.4" cy="24.4" r="2.8" fill="#3d4db3" opacity="0.13"/>
  <circle cx="933.2" cy="69.0" r="1.8" fill="#3d4db3" opacity="0.14"/>
  <circle cx="933.7" cy="121.6" r="2.3" fill="#3d4db3" opacity="0.07"/>
  <circle cx="938.0" cy="167.7" r="2.1" fill="#3d4db3" opacity="0.07"/>
  <circle cx="938.8" cy="217.8" r="1.3" fill="#3d4db3" opacity="0.09"/>
  <circle cx="934.1" cy="265.0" r="2.3" fill="#3d4db3" opacity="0.07"/>
  <circle cx="938.3" cy="312.1" r="1.9" fill="#3d4db3" opacity="0.12"/>
  <circle cx="937.5" cy="361.1" r="1.5" fill="#3d4db3" opacity="0.12"/>
  <circle cx="933.0" cy="406.2" r="1.4" fill="#3d4db3" opacity="0.08"/>
  <circle cx="934.4" cy="455.7" r="1.7" fill="#3d4db3" opacity="0.09"/>
  <circle cx="933.3" cy="502.7" r="2.1" fill="#3d4db3" opacity="0.12"/>
  <circle cx="934.3" cy="549.1" r="2.1" fill="#3d4db3" opacity="0.09"/>
  <circle cx="936.3" cy="602.3" r="2.4" fill="#3d4db3" opacity="0.12"/>
  <circle cx="936.3" cy="646.9" r="2.4" fill="#3d4db3" opacity="0.06"/>
  <circle cx="936.0" cy="697.9" r="2.5" fill="#3d4db3" opacity="0.14"/>
  <circle cx="936.0" cy="744.1" r="2.0" fill="#3d4db3" opacity="0.11"/>
  <circle cx="938.3" cy="791.5" r="2.0" fill="#3d4db3" opacity="0.08"/>
  <circle cx="936.2" cy="838.4" r="1.9" fill="#3d4db3" opacity="0.12"/>
  <circle cx="937.5" cy="891.0" r="1.6" fill="#3d4db3" opacity="0.10"/>
  <circle cx="937.5" cy="934.5" r="1.8" fill="#3d4db3" opacity="0.07"/>
  <circle cx="938.9" cy="986.6" r="1.4" fill="#3d4db3" opacity="0.09"/>
  <circle cx="938.7" cy="1034.9" r="2.2" fill="#3d4db3" opacity="0.07"/>
  <circle cx="937.7" cy="1079.9" r="1.4" fill="#3d4db3" opacity="0.09"/>
  <circle cx="935.9" cy="1128.7" r="2.2" fill="#3d4db3" opacity="0.10"/>
  <circle cx="937.7" cy="1174.0" r="1.6" fill="#3d4db3" opacity="0.08"/>
  <circle cx="985.1" cy="25.9" r="1.9" fill="#3d4db3" opacity="0.10"/>
  <circle cx="985.5" cy="74.5" r="1.9" fill="#3d4db3" opacity="0.12"/>
  <circle cx="986.5" cy="118.2" r="2.6" fill="#3d4db3" opacity="0.09"/>
  <circle cx="981.6" cy="170.2" r="2.6" fill="#3d4db3" opacity="0.08"/>
  <circle cx="983.4" cy="216.1" r="1.8" fill="#3d4db3" opacity="0.14"/>
  <circle cx="981.0" cy="265.6" r="1.4" fill="#3d4db3" opacity="0.08"/>
  <circle cx="985.2" cy="311.0" r="1.5" fill="#3d4db3" opacity="0.09"/>
  <circle cx="981.8" cy="357.5" r="1.3" fill="#3d4db3" opacity="0.11"/>
  <circle cx="985.4" cy="408.0" r="2.3" fill="#3d4db3" opacity="0.10"/>
  <circle cx="981.9" cy="458.2" r="1.2" fill="#3d4db3" opacity="0.09"/>
  <circle cx="984.7" cy="502.7" r="1.4" fill="#3d4db3" opacity="0.10"/>
  <circle cx="985.5" cy="549.5" r="1.5" fill="#3d4db3" opacity="0.13"/>
  <circle cx="981.7" cy="597.9" r="1.3" fill="#3d4db3" opacity="0.07"/>
  <circle cx="984.0" cy="649.7" r="1.7" fill="#3d4db3" opacity="0.08"/>
  <circle cx="985.4" cy="694.2" r="1.7" fill="#3d4db3" opacity="0.13"/>
  <circle cx="982.6" cy="746.1" r="2.6" fill="#3d4db3" opacity="0.06"/>
  <circle cx="983.7" cy="790.4" r="1.5" fill="#3d4db3" opacity="0.10"/>
  <circle cx="983.0" cy="839.9" r="2.4" fill="#3d4db3" opacity="0.09"/>
  <circle cx="982.7" cy="888.6" r="1.7" fill="#3d4db3" opacity="0.14"/>
  <circle cx="981.9" cy="934.9" r="2.0" fill="#3d4db3" opacity="0.13"/>
  <circle cx="982.5" cy="984.8" r="1.5" fill="#3d4db3" opacity="0.14"/>
  <circle cx="985.8" cy="1029.7" r="2.6" fill="#3d4db3" opacity="0.10"/>
  <circle cx="982.5" cy="1081.2" r="2.6" fill="#3d4db3" opacity="0.08"/>
  <circle cx="981.7" cy="1126.8" r="1.5" fill="#3d4db3" opacity="0.08"/>
  <circle cx="984.1" cy="1173.1" r="1.7" fill="#3d4db3" opacity="0.09"/>
  <circle cx="1031.6" cy="21.2" r="2.7" fill="#3d4db3" opacity="0.06"/>
  <circle cx="1032.7" cy="69.9" r="2.0" fill="#3d4db3" opacity="0.06"/>
  <circle cx="1029.5" cy="117.0" r="1.6" fill="#3d4db3" opacity="0.07"/>
  <circle cx="1031.1" cy="165.1" r="2.0" fill="#3d4db3" opacity="0.06"/>
  <circle cx="1031.5" cy="218.1" r="2.5" fill="#3d4db3" opacity="0.12"/>
  <circle cx="1029.9" cy="265.4" r="1.8" fill="#3d4db3" opacity="0.11"/>
  <circle cx="1033.1" cy="310.7" r="1.3" fill="#3d4db3" opacity="0.13"/>
  <circle cx="1030.0" cy="357.4" r="2.4" fill="#3d4db3" opacity="0.09"/>
  <circle cx="1031.5" cy="410.2" r="1.7" fill="#3d4db3" opacity="0.09"/>
  <circle cx="1029.5" cy="456.1" r="1.9" fill="#3d4db3" opacity="0.08"/>
  <circle cx="1032.4" cy="503.8" r="2.7" fill="#3d4db3" opacity="0.08"/>
  <circle cx="1032.2" cy="549.4" r="2.5" fill="#3d4db3" opacity="0.07"/>
  <circle cx="1030.4" cy="599.2" r="1.5" fill="#3d4db3" opacity="0.12"/>
  <circle cx="1030.5" cy="649.4" r="1.4" fill="#3d4db3" opacity="0.08"/>
  <circle cx="1030.1" cy="693.1" r="2.0" fill="#3d4db3" opacity="0.09"/>
  <circle cx="1033.7" cy="744.2" r="2.8" fill="#3d4db3" opacity="0.07"/>
  <circle cx="1034.4" cy="792.0" r="2.7" fill="#3d4db3" opacity="0.06"/>
  <circle cx="1035.0" cy="839.3" r="1.3" fill="#3d4db3" opacity="0.06"/>
  <circle cx="1031.4" cy="888.9" r="2.1" fill="#3d4db3" opacity="0.06"/>
  <circle cx="1030.0" cy="935.8" r="1.2" fill="#3d4db3" opacity="0.08"/>
  <circle cx="1033.0" cy="985.8" r="1.4" fill="#3d4db3" opacity="0.11"/>
  <circle cx="1033.6" cy="1031.4" r="2.0" fill="#3d4db3" opacity="0.07"/>
  <circle cx="1033.5" cy="1078.7" r="1.4" fill="#3d4db3" opacity="0.09"/>
  <circle cx="1034.2" cy="1130.8" r="1.7" fill="#3d4db3" opacity="0.13"/>
  <circle cx="1032.2" cy="1175.7" r="2.1" fill="#3d4db3" opacity="0.07"/>
  <circle cx="1078.7" cy="24.6" r="2.5" fill="#3d4db3" opacity="0.09"/>
  <circle cx="1078.4" cy="72.3" r="1.9" fill="#3d4db3" opacity="0.09"/>
  <circle cx="1079.3" cy="119.7" r="1.7" fill="#3d4db3" opacity="0.11"/>
  <circle cx="1079.7" cy="165.7" r="2.4" fill="#3d4db3" opacity="0.12"/>
  <circle cx="1079.8" cy="214.2" r="1.3" fill="#3d4db3" opacity="0.13"/>
  <circle cx="1082.8" cy="261.6" r="2.0" fill="#3d4db3" opacity="0.08"/>
  <circle cx="1082.5" cy="311.9" r="2.4" fill="#3d4db3" opacity="0.08"/>
  <circle cx="1078.3" cy="360.6" r="2.5" fill="#3d4db3" opacity="0.14"/>
  <circle cx="1082.8" cy="405.2" r="2.4" fill="#3d4db3" opacity="0.12"/>
  <circle cx="1079.1" cy="455.3" r="1.7" fill="#3d4db3" opacity="0.10"/>
  <circle cx="1077.9" cy="503.4" r="2.0" fill="#3d4db3" opacity="0.09"/>
  <circle cx="1077.2" cy="554.6" r="2.5" fill="#3d4db3" opacity="0.12"/>
  <circle cx="1079.4" cy="599.7" r="1.5" fill="#3d4db3" opacity="0.06"/>
  <circle cx="1082.6" cy="646.6" r="2.2" fill="#3d4db3" opacity="0.12"/>
  <circle cx="1082.1" cy="695.7" r="1.5" fill="#3d4db3" opacity="0.14"/>
  <circle cx="1081.5" cy="743.2" r="1.3" fill="#3d4db3" opacity="0.12"/>
  <circle cx="1078.4" cy="794.3" r="2.8" fill="#3d4db3" opacity="0.12"/>
  <circle cx="1077.4" cy="838.7" r="2.3" fill="#3d4db3" opacity="0.06"/>
  <circle cx="1077.4" cy="889.9" r="2.0" fill="#3d4db3" opacity="0.07"/>
  <circle cx="1081.3" cy="938.4" r="1.5" fill="#3d4db3" opacity="0.06"/>
  <circle cx="1079.1" cy="981.4" r="2.6" fill="#3d4db3" opacity="0.11"/>
  <circle cx="1077.1" cy="1031.6" r="1.7" fill="#3d4db3" opacity="0.14"/>
  <circle cx="1077.4" cy="1077.0" r="2.6" fill="#3d4db3" opacity="0.08"/>
  <circle cx="1079.3" cy="1127.9" r="2.1" fill="#3d4db3" opacity="0.09"/>
  <circle cx="1078.5" cy="1178.5" r="1.2" fill="#3d4db3" opacity="0.13"/>
  <circle cx="1130.5" cy="26.0" r="2.5" fill="#3d4db3" opacity="0.08"/>
  <circle cx="1129.9" cy="70.2" r="1.6" fill="#3d4db3" opacity="0.06"/>
  <circle cx="1127.7" cy="122.5" r="1.8" fill="#3d4db3" opacity="0.10"/>
  <circle cx="1130.8" cy="165.5" r="2.1" fill="#3d4db3" opacity="0.09"/>
  <circle cx="1127.0" cy="218.3" r="2.3" fill="#3d4db3" opacity="0.07"/>
  <circle cx="1126.7" cy="261.6" r="1.3" fill="#3d4db3" opacity="0.11"/>
  <circle cx="1130.2" cy="311.4" r="2.5" fill="#3d4db3" opacity="0.10"/>
  <circle cx="1128.5" cy="358.1" r="2.1" fill="#3d4db3" opacity="0.10"/>
  <circle cx="1127.5" cy="405.8" r="2.2" fill="#3d4db3" opacity="0.12"/>
  <circle cx="1126.6" cy="455.8" r="1.7" fill="#3d4db3" opacity="0.08"/>
  <circle cx="1126.5" cy="505.7" r="2.0" fill="#3d4db3" opacity="0.11"/>
  <circle cx="1128.1" cy="553.1" r="2.6" fill="#3d4db3" opacity="0.11"/>
  <circle cx="1130.2" cy="602.6" r="2.2" fill="#3d4db3" opacity="0.09"/>
  <circle cx="1130.9" cy="647.1" r="1.4" fill="#3d4db3" opacity="0.09"/>
  <circle cx="1126.4" cy="695.5" r="1.9" fill="#3d4db3" opacity="0.13"/>
  <circle cx="1126.9" cy="743.8" r="1.9" fill="#3d4db3" opacity="0.09"/>
  <circle cx="1127.7" cy="792.3" r="1.6" fill="#3d4db3" opacity="0.08"/>
  <circle cx="1126.5" cy="837.1" r="2.7" fill="#3d4db3" opacity="0.07"/>
  <circle cx="1126.8" cy="889.5" r="1.9" fill="#3d4db3" opacity="0.07"/>
  <circle cx="1127.0" cy="933.2" r="1.8" fill="#3d4db3" opacity="0.13"/>
  <circle cx="1126.4" cy="981.7" r="1.4" fill="#3d4db3" opacity="0.08"/>
  <circle cx="1127.7" cy="1031.6" r="1.7" fill="#3d4db3" opacity="0.06"/>
  <circle cx="1126.8" cy="1079.9" r="1.6" fill="#3d4db3" opacity="0.07"/>
  <circle cx="1130.1" cy="1127.5" r="2.1" fill="#3d4db3" opacity="0.12"/>
  <circle cx="1127.7" cy="1174.2" r="2.3" fill="#3d4db3" opacity="0.14"/>
  <circle cx="1179.0" cy="24.4" r="2.1" fill="#3d4db3" opacity="0.11"/>
  <circle cx="1177.5" cy="72.4" r="2.7" fill="#3d4db3" opacity="0.09"/>
  <circle cx="1178.9" cy="121.2" r="1.7" fill="#3d4db3" opacity="0.10"/>
  <circle cx="1173.6" cy="170.7" r="2.7" fill="#3d4db3" opacity="0.13"/>
  <circle cx="1176.8" cy="214.3" r="2.7" fill="#3d4db3" opacity="0.11"/>
  <circle cx="1177.1" cy="264.7" r="2.3" fill="#3d4db3" opacity="0.09"/>
  <circle cx="1174.7" cy="310.8" r="1.3" fill="#3d4db3" opacity="0.12"/>
  <circle cx="1173.8" cy="357.4" r="1.7" fill="#3d4db3" opacity="0.09"/>
  <circle cx="1174.5" cy="408.6" r="2.2" fill="#3d4db3" opacity="0.08"/>
  <circle cx="1174.2" cy="454.6" r="2.1" fill="#3d4db3" opacity="0.11"/>
  <circle cx="1178.5" cy="505.6" r="2.1" fill="#3d4db3" opacity="0.07"/>
  <circle cx="1175.0" cy="550.9" r="2.4" fill="#3d4db3" opacity="0.11"/>
  <circle cx="1176.2" cy="600.2" r="1.5" fill="#3d4db3" opacity="0.10"/>
  <circle cx="1177.1" cy="651.0" r="2.0" fill="#3d4db3" opacity="0.11"/>
  <circle cx="1176.6" cy="695.7" r="2.4" fill="#3d4db3" opacity="0.09"/>
  <circle cx="1178.6" cy="745.6" r="2.0" fill="#3d4db3" opacity="0.13"/>
  <circle cx="1173.4" cy="791.4" r="2.3" fill="#3d4db3" opacity="0.11"/>
  <circle cx="1177.3" cy="841.0" r="1.6" fill="#3d4db3" opacity="0.07"/>
  <circle cx="1173.4" cy="888.8" r="1.6" fill="#3d4db3" opacity="0.09"/>
  <circle cx="1177.5" cy="936.9" r="2.6" fill="#3d4db3" opacity="0.11"/>
  <circle cx="1175.1" cy="984.7" r="2.7" fill="#3d4db3" opacity="0.09"/>
  <circle cx="1176.7" cy="1033.7" r="1.3" fill="#3d4db3" opacity="0.13"/>
  <circle cx="1175.4" cy="1079.6" r="2.3" fill="#3d4db3" opacity="0.09"/>
  <circle cx="1174.0" cy="1130.8" r="2.0" fill="#3d4db3" opacity="0.06"/>
  <circle cx="1174.5" cy="1178.5" r="2.2" fill="#3d4db3" opacity="0.12"/>
</svg>